G04 Layer_Color=8388736*
%FSLAX24Y24*%
%MOIN*%
G70*
G01*
G75*
%ADD28C,0.0630*%
%ADD54R,0.0397X0.0957*%
%ADD55O,0.0397X0.0957*%
%ADD56R,0.0709X0.0394*%
%ADD57R,0.0866X0.0394*%
G04:AMPARAMS|DCode=58|XSize=90.6mil|YSize=141.7mil|CornerRadius=0mil|HoleSize=0mil|Usage=FLASHONLY|Rotation=270.000|XOffset=0mil|YOffset=0mil|HoleType=Round|Shape=Octagon|*
%AMOCTAGOND58*
4,1,8,0.0709,0.0226,0.0709,-0.0226,0.0482,-0.0453,-0.0482,-0.0453,-0.0709,-0.0226,-0.0709,0.0226,-0.0482,0.0453,0.0482,0.0453,0.0709,0.0226,0.0*
%
%ADD58OCTAGOND58*%

%ADD59O,0.1024X0.0394*%
G04:AMPARAMS|DCode=60|XSize=110.2mil|YSize=94.5mil|CornerRadius=27.6mil|HoleSize=0mil|Usage=FLASHONLY|Rotation=180.000|XOffset=0mil|YOffset=0mil|HoleType=Round|Shape=RoundedRectangle|*
%AMROUNDEDRECTD60*
21,1,0.1102,0.0394,0,0,180.0*
21,1,0.0551,0.0945,0,0,180.0*
1,1,0.0551,-0.0276,0.0197*
1,1,0.0551,0.0276,0.0197*
1,1,0.0551,0.0276,-0.0197*
1,1,0.0551,-0.0276,-0.0197*
%
%ADD60ROUNDEDRECTD60*%
G04:AMPARAMS|DCode=61|XSize=102.5mil|YSize=86.8mil|CornerRadius=23.7mil|HoleSize=0mil|Usage=FLASHONLY|Rotation=180.000|XOffset=0mil|YOffset=0mil|HoleType=Round|Shape=RoundedRectangle|*
%AMROUNDEDRECTD61*
21,1,0.1025,0.0394,0,0,180.0*
21,1,0.0551,0.0868,0,0,180.0*
1,1,0.0474,-0.0276,0.0197*
1,1,0.0474,0.0276,0.0197*
1,1,0.0474,0.0276,-0.0197*
1,1,0.0474,-0.0276,-0.0197*
%
%ADD61ROUNDEDRECTD61*%
G04:AMPARAMS|DCode=62|XSize=70.9mil|YSize=55.1mil|CornerRadius=9.8mil|HoleSize=0mil|Usage=FLASHONLY|Rotation=0.000|XOffset=0mil|YOffset=0mil|HoleType=Round|Shape=RoundedRectangle|*
%AMROUNDEDRECTD62*
21,1,0.0709,0.0354,0,0,0.0*
21,1,0.0512,0.0551,0,0,0.0*
1,1,0.0197,0.0256,-0.0177*
1,1,0.0197,-0.0256,-0.0177*
1,1,0.0197,-0.0256,0.0177*
1,1,0.0197,0.0256,0.0177*
%
%ADD62ROUNDEDRECTD62*%
%ADD63R,0.0551X0.0748*%
%ADD64R,0.0512X0.0512*%
G04:AMPARAMS|DCode=65|XSize=66.9mil|YSize=47.2mil|CornerRadius=9.4mil|HoleSize=0mil|Usage=FLASHONLY|Rotation=180.000|XOffset=0mil|YOffset=0mil|HoleType=Round|Shape=RoundedRectangle|*
%AMROUNDEDRECTD65*
21,1,0.0669,0.0283,0,0,180.0*
21,1,0.0480,0.0472,0,0,180.0*
1,1,0.0189,-0.0240,0.0142*
1,1,0.0189,0.0240,0.0142*
1,1,0.0189,0.0240,-0.0142*
1,1,0.0189,-0.0240,-0.0142*
%
%ADD65ROUNDEDRECTD65*%
G04:AMPARAMS|DCode=66|XSize=66.9mil|YSize=47.2mil|CornerRadius=9.4mil|HoleSize=0mil|Usage=FLASHONLY|Rotation=270.000|XOffset=0mil|YOffset=0mil|HoleType=Round|Shape=RoundedRectangle|*
%AMROUNDEDRECTD66*
21,1,0.0669,0.0283,0,0,270.0*
21,1,0.0480,0.0472,0,0,270.0*
1,1,0.0189,-0.0142,-0.0240*
1,1,0.0189,-0.0142,0.0240*
1,1,0.0189,0.0142,0.0240*
1,1,0.0189,0.0142,-0.0240*
%
%ADD66ROUNDEDRECTD66*%
G04:AMPARAMS|DCode=67|XSize=39.4mil|YSize=55.1mil|CornerRadius=10.8mil|HoleSize=0mil|Usage=FLASHONLY|Rotation=270.000|XOffset=0mil|YOffset=0mil|HoleType=Round|Shape=RoundedRectangle|*
%AMROUNDEDRECTD67*
21,1,0.0394,0.0335,0,0,270.0*
21,1,0.0177,0.0551,0,0,270.0*
1,1,0.0217,-0.0167,-0.0089*
1,1,0.0217,-0.0167,0.0089*
1,1,0.0217,0.0167,0.0089*
1,1,0.0217,0.0167,-0.0089*
%
%ADD67ROUNDEDRECTD67*%
%ADD68C,0.0157*%
%ADD69O,0.1260X0.1654*%
%ADD70O,0.1772X0.1378*%
%ADD71O,0.1772X0.1339*%
%ADD72P,0.0170X8X22.5*%
%ADD73C,0.0757*%
%ADD74C,0.0748*%
%ADD75R,0.0748X0.0748*%
%ADD76R,0.0748X0.0748*%
%ADD77O,0.1339X0.2126*%
%ADD78C,0.1339*%
D28*
X492Y-15177D02*
D03*
Y-15689D02*
D03*
X15453D02*
D03*
Y-15177D02*
D03*
X14232Y-15453D02*
D03*
X13563D02*
D03*
X8327D02*
D03*
X7657D02*
D03*
X2421D02*
D03*
X1752D02*
D03*
D54*
X2165Y-7480D02*
D03*
D55*
X1165Y-9680D02*
D03*
Y-7480D02*
D03*
X1665D02*
D03*
X2165Y-9680D02*
D03*
X1665D02*
D03*
X665Y-7480D02*
D03*
Y-9680D02*
D03*
D56*
X10394Y-5413D02*
D03*
Y-4232D02*
D03*
D57*
X10315Y-4823D02*
D03*
D58*
X9331D02*
D03*
D59*
X13445Y-12085D02*
D03*
Y-11585D02*
D03*
Y-11085D02*
D03*
Y-10585D02*
D03*
Y-10085D02*
D03*
Y-9585D02*
D03*
Y-9085D02*
D03*
Y-8585D02*
D03*
X11555Y-12085D02*
D03*
Y-11585D02*
D03*
Y-11085D02*
D03*
Y-10585D02*
D03*
Y-10085D02*
D03*
Y-9585D02*
D03*
Y-9085D02*
D03*
Y-8585D02*
D03*
D60*
X15197Y-1772D02*
D03*
X7421Y-4724D02*
D03*
D61*
X13346Y-1772D02*
D03*
X5571Y-4724D02*
D03*
D62*
X9843Y-11358D02*
D03*
Y-12067D02*
D03*
D63*
X787Y-5315D02*
D03*
Y-3937D02*
D03*
D64*
X532Y-4626D02*
D03*
D65*
X8760Y-8366D02*
D03*
Y-7579D02*
D03*
X10236D02*
D03*
Y-8366D02*
D03*
X6594Y-6201D02*
D03*
Y-6988D02*
D03*
X5709Y-8760D02*
D03*
Y-7972D02*
D03*
X3445Y-10236D02*
D03*
Y-9449D02*
D03*
D66*
X2402Y-5315D02*
D03*
X1614D02*
D03*
X4370Y-6850D02*
D03*
X3583D02*
D03*
D67*
X6634Y-7992D02*
D03*
Y-8740D02*
D03*
X7539Y-8366D02*
D03*
X4350Y-8602D02*
D03*
Y-7854D02*
D03*
X3445Y-8228D02*
D03*
D68*
X12657Y-17343D02*
D03*
X10925Y-13681D02*
D03*
X5020D02*
D03*
X3287Y-17343D02*
D03*
D69*
X7972Y-13681D02*
D03*
X2067D02*
D03*
X13878D02*
D03*
D70*
X7972Y-15453D02*
D03*
D71*
X2067D02*
D03*
X13878D02*
D03*
D72*
X492D02*
D03*
D73*
X15453D02*
D03*
D74*
X12697Y-4429D02*
D03*
X6594Y-10925D02*
D03*
X1165Y-11114D02*
D03*
X2165Y-12114D02*
D03*
X3165Y-11114D02*
D03*
X12697Y-7283D02*
D03*
D75*
Y-3445D02*
D03*
Y-6299D02*
D03*
D76*
X5217Y-10925D02*
D03*
D77*
X15059Y-4232D02*
D03*
X15069Y-9242D02*
D03*
X984Y-1476D02*
D03*
X11417D02*
D03*
D78*
X3201Y-2756D02*
D03*
X5201D02*
D03*
X9201D02*
D03*
X7201D02*
D03*
M02*
