M48
;Layer_Color=9474304
;FILE_FORMAT=2:4
INCH
;TYPE=PLATED
T1F00S00C0.0118
T2F00S00C0.0315
T3F00S00C0.0512
T4F00S00C0.0551
T5F00S00C0.0630
T6F00S00C0.0709
T7F00S00C0.0709
T8F00S00C0.0787
T9F00S00C0.0984
%
T01
X016535Y028346
X017717
Y030709
X015354
X014764Y029528
X013583
X012402
X012992Y030709
X011811
Y028346
X012992
X014173
X015354
X010630
X009449
X008268
X007087
X005906
X004724
X003543
Y030709
X005906
X007087
X007677Y029528
X008858
X009449Y030709
X006496Y029528
X007087Y033071
X008268
X009449
X010039Y034252
X008858
X007087Y035433
X005636Y035263
X005315Y034252
X005906Y033071
X003543
X004134Y031890
X003234Y035145
X003545Y036763
X004545Y036771
X005045Y036759
X005951Y036602
X005315Y038976
X004134
X004724Y040157
X005906
X007087
X007526Y040066
X007677Y041339
X008858
X011220
X013583
X014173Y040157
X014764Y038976
X013583
X014173Y037795
X014764Y036614
X015282Y035421
Y034397
X015280Y033930
X015380Y033314
X014764Y031890
X013583
X013431Y032743
X012402Y031890
X011811Y033071
X012014Y033452
X012992Y035433
X012053Y037271
X010990Y036484
X010039Y031890
Y043701
X011220
X008858
X007677
X006496Y041339
X005315
X004134
X004724Y042520
X012992
X015354
X015945Y043701
X017126
X018307
Y038976
X017126
X017717Y037795
X016535
X017126Y036614
X015945
X017126Y034252
X018307
X017717Y033071
X018307Y031890
X015945
X016535Y040157
T02
X004045Y033716
X005045Y032716
X006045Y033716
X008097Y033905
X009474
X015577Y037547
Y038531
Y040401
Y041385
T03
X016758Y030873
Y031149
X010852
Y030873
X004947
Y031149
Y031424
X010852
X016758Y031385
T04
X006081Y042074
X008081
X010081
X012081
T05
X016443Y029377
X016758
X017112
X011207
X010852
X010537
X005301
X004947
X004632
T06
X003372Y029377
T07
X018333Y029141
Y029377
Y029653
X003372
Y029141
T08
X006167Y027487
X015537
X014297Y043354
X003864
X017939Y040598
X017949Y035588
T09
X007900Y031149
X013805
M30
