G04 Layer_Color=65535*
%FSLAX24Y24*%
%MOIN*%
G70*
G01*
G75*
%ADD47C,0.0098*%
%ADD48C,0.0079*%
%ADD49C,0.0100*%
%ADD50C,0.0050*%
%ADD51C,0.0039*%
%ADD52C,0.0059*%
%ADD53R,0.0380X0.0840*%
G36*
X12998Y-161D02*
Y-164D01*
X12997Y-168D01*
Y-172D01*
Y-179D01*
X12996Y-186D01*
X12995Y-204D01*
X12994Y-223D01*
X12993Y-241D01*
X12992Y-260D01*
Y-268D01*
Y-275D01*
Y-277D01*
Y-282D01*
Y-291D01*
X12993Y-300D01*
Y-313D01*
X12994Y-328D01*
X12996Y-344D01*
X12998Y-359D01*
X12996Y-360D01*
X12991Y-363D01*
X12983Y-368D01*
X12972Y-375D01*
X12959Y-384D01*
X12943Y-395D01*
X12924Y-407D01*
X12905Y-420D01*
X12904D01*
X12902Y-422D01*
X12900Y-424D01*
X12896Y-426D01*
X12886Y-433D01*
X12875Y-441D01*
X12863Y-449D01*
X12852Y-457D01*
X12844Y-463D01*
X12840Y-466D01*
X12838Y-468D01*
X12837Y-469D01*
X12834Y-471D01*
X12830Y-474D01*
X12825Y-477D01*
X12673Y-587D01*
Y-589D01*
Y-595D01*
X12672Y-603D01*
Y-614D01*
X12671Y-628D01*
X12670Y-644D01*
X12669Y-660D01*
X12667Y-677D01*
X12919Y-672D01*
X12921D01*
X12927Y-670D01*
X12935Y-668D01*
X12942Y-663D01*
Y-662D01*
X12944Y-660D01*
X12946Y-657D01*
X12948Y-650D01*
X12951Y-640D01*
X12955Y-627D01*
X12957Y-619D01*
X12959Y-610D01*
X12961Y-599D01*
X12963Y-589D01*
Y-587D01*
X12964Y-582D01*
X12966Y-573D01*
X12969Y-560D01*
X12998D01*
Y-561D01*
Y-564D01*
X12997Y-569D01*
Y-576D01*
Y-584D01*
X12996Y-593D01*
Y-603D01*
X12995Y-614D01*
X12994Y-640D01*
X12993Y-666D01*
X12992Y-694D01*
Y-721D01*
Y-721D01*
Y-723D01*
Y-728D01*
Y-733D01*
Y-740D01*
Y-749D01*
Y-758D01*
X12993Y-769D01*
Y-781D01*
Y-793D01*
X12994Y-821D01*
X12996Y-852D01*
X12998Y-886D01*
X12969D01*
X12965Y-865D01*
Y-864D01*
X12964Y-862D01*
Y-858D01*
X12963Y-853D01*
X12960Y-842D01*
X12957Y-828D01*
X12953Y-814D01*
X12949Y-800D01*
X12947Y-794D01*
X12946Y-789D01*
X12944Y-786D01*
X12942Y-783D01*
X12940Y-782D01*
X12938Y-781D01*
X12935Y-779D01*
X12930Y-777D01*
X12925Y-775D01*
X12919Y-773D01*
X12911Y-772D01*
X12894D01*
X12885Y-771D01*
X12768D01*
X12752Y-770D01*
X12654D01*
X12419Y-772D01*
X12391D01*
X12380Y-773D01*
X12370D01*
X12362Y-774D01*
X12359D01*
X12357Y-775D01*
X12355D01*
X12353Y-777D01*
X12349Y-780D01*
X12345Y-784D01*
X12344Y-785D01*
X12343Y-789D01*
X12340Y-795D01*
X12337Y-803D01*
X12334Y-814D01*
X12331Y-828D01*
X12327Y-844D01*
X12324Y-862D01*
Y-863D01*
X12322Y-868D01*
X12321Y-875D01*
X12318Y-886D01*
X12289D01*
Y-884D01*
Y-880D01*
X12290Y-873D01*
Y-864D01*
Y-852D01*
X12291Y-840D01*
Y-826D01*
X12292Y-810D01*
X12292Y-777D01*
X12293Y-741D01*
X12294Y-706D01*
Y-690D01*
Y-674D01*
Y-673D01*
Y-672D01*
Y-666D01*
Y-658D01*
Y-646D01*
Y-633D01*
Y-618D01*
X12293Y-588D01*
Y-587D01*
Y-586D01*
Y-583D01*
Y-579D01*
X12292Y-570D01*
Y-558D01*
Y-546D01*
X12292Y-535D01*
Y-524D01*
Y-515D01*
Y-514D01*
Y-511D01*
Y-505D01*
X12292Y-499D01*
Y-490D01*
X12293Y-481D01*
X12295Y-471D01*
X12297Y-460D01*
X12302Y-436D01*
X12311Y-412D01*
X12322Y-388D01*
X12330Y-377D01*
X12338Y-367D01*
X12339Y-366D01*
X12340Y-365D01*
X12343Y-362D01*
X12347Y-359D01*
X12351Y-355D01*
X12356Y-352D01*
X12371Y-343D01*
X12389Y-334D01*
X12411Y-326D01*
X12435Y-320D01*
X12449Y-319D01*
X12464Y-318D01*
X12473D01*
X12482Y-319D01*
X12495Y-321D01*
X12509Y-324D01*
X12525Y-328D01*
X12541Y-333D01*
X12557Y-341D01*
X12559Y-342D01*
X12564Y-345D01*
X12571Y-350D01*
X12581Y-357D01*
X12592Y-366D01*
X12602Y-377D01*
X12614Y-390D01*
X12625Y-405D01*
X12626Y-406D01*
X12628Y-411D01*
X12632Y-417D01*
X12637Y-427D01*
X12643Y-439D01*
X12649Y-454D01*
X12655Y-472D01*
X12661Y-491D01*
X12878Y-326D01*
X12880Y-325D01*
X12884Y-321D01*
X12891Y-315D01*
X12899Y-309D01*
X12908Y-302D01*
X12915Y-296D01*
X12921Y-291D01*
X12925Y-287D01*
Y-286D01*
X12927Y-285D01*
X12929Y-282D01*
X12931Y-278D01*
X12938Y-268D01*
X12944Y-254D01*
Y-253D01*
X12946Y-249D01*
X12948Y-242D01*
X12951Y-231D01*
X12955Y-219D01*
X12959Y-203D01*
X12964Y-183D01*
X12969Y-160D01*
X12998D01*
Y-161D01*
D02*
G37*
G36*
X764Y-2693D02*
X763D01*
X760Y-2694D01*
X756Y-2695D01*
X751Y-2697D01*
X745Y-2698D01*
X737Y-2700D01*
X722Y-2705D01*
X705Y-2710D01*
X688Y-2716D01*
X673Y-2721D01*
X667Y-2723D01*
X663Y-2725D01*
X662D01*
X661Y-2726D01*
X655Y-2729D01*
X647Y-2737D01*
X641Y-2747D01*
Y-2748D01*
X640Y-2750D01*
X639Y-2755D01*
X637Y-2761D01*
X636Y-2770D01*
X635Y-2782D01*
X634Y-2796D01*
Y-2815D01*
Y-3032D01*
X641D01*
X647Y-3033D01*
X665D01*
X676Y-3034D01*
X690D01*
X707Y-3034D01*
X725D01*
X745Y-3035D01*
X769D01*
X794Y-3036D01*
X822D01*
X853Y-3037D01*
X887D01*
Y-2901D01*
Y-2899D01*
Y-2895D01*
Y-2888D01*
X886Y-2879D01*
Y-2871D01*
X885Y-2862D01*
X884Y-2855D01*
X883Y-2850D01*
Y-2849D01*
X882Y-2848D01*
X879Y-2843D01*
X873Y-2837D01*
X865Y-2831D01*
X864D01*
X862Y-2830D01*
X858Y-2828D01*
X853Y-2826D01*
X846Y-2823D01*
X835Y-2820D01*
X822Y-2817D01*
X806Y-2813D01*
X804D01*
X799Y-2812D01*
X791Y-2810D01*
X781Y-2807D01*
Y-2774D01*
X790D01*
X797Y-2775D01*
X806D01*
X816Y-2776D01*
X837D01*
X860Y-2777D01*
X883Y-2778D01*
X893Y-2779D01*
X931D01*
X937Y-2778D01*
X954D01*
X964Y-2777D01*
X975D01*
X990Y-2776D01*
X1006D01*
X1025Y-2775D01*
X1045Y-2774D01*
Y-2807D01*
X1043D01*
X1037Y-2809D01*
X1031Y-2810D01*
X1025Y-2811D01*
X1022D01*
X1019Y-2812D01*
X1015Y-2813D01*
X1004Y-2815D01*
X991Y-2818D01*
X978Y-2822D01*
X966Y-2826D01*
X956Y-2830D01*
X952Y-2833D01*
X949Y-2835D01*
X948Y-2836D01*
X947Y-2838D01*
X945Y-2842D01*
X942Y-2848D01*
X940Y-2856D01*
X938Y-2868D01*
X937Y-2883D01*
X936Y-2902D01*
Y-3037D01*
X964D01*
X974Y-3038D01*
X1087D01*
X1105Y-3037D01*
X1162D01*
X1179Y-3036D01*
X1193D01*
X1205Y-3035D01*
X1214D01*
X1217Y-3034D01*
X1220D01*
X1224Y-3033D01*
X1229Y-3029D01*
X1233Y-3024D01*
Y-3023D01*
X1234Y-3021D01*
X1236Y-3015D01*
X1237Y-3011D01*
X1238Y-3005D01*
X1240Y-2999D01*
X1242Y-2991D01*
X1244Y-2982D01*
X1246Y-2972D01*
X1248Y-2959D01*
X1250Y-2945D01*
X1253Y-2928D01*
X1256Y-2911D01*
X1285D01*
Y-2912D01*
Y-2915D01*
X1284Y-2921D01*
Y-2929D01*
Y-2938D01*
X1283Y-2949D01*
Y-2961D01*
X1282Y-2973D01*
X1282Y-3000D01*
X1281Y-3027D01*
X1280Y-3052D01*
Y-3063D01*
Y-3073D01*
X1285Y-3247D01*
X1256D01*
Y-3246D01*
X1255Y-3244D01*
Y-3240D01*
X1254Y-3236D01*
X1252Y-3226D01*
X1251Y-3218D01*
Y-3217D01*
Y-3215D01*
X1250Y-3212D01*
X1249Y-3208D01*
X1248Y-3198D01*
X1245Y-3186D01*
X1242Y-3174D01*
X1239Y-3162D01*
X1235Y-3153D01*
X1233Y-3150D01*
X1231Y-3147D01*
X1230Y-3146D01*
X1229Y-3145D01*
X1225Y-3143D01*
X1221Y-3141D01*
X1215Y-3139D01*
X1207Y-3137D01*
X1197Y-3135D01*
X1185D01*
X1042Y-3133D01*
X1022D01*
X1015Y-3132D01*
X754D01*
X733Y-3133D01*
X673D01*
X668Y-3134D01*
X658D01*
X654Y-3135D01*
X650Y-3136D01*
X641Y-3139D01*
X637Y-3142D01*
X634Y-3145D01*
Y-3146D01*
X632Y-3148D01*
X630Y-3152D01*
X627Y-3158D01*
X624Y-3168D01*
X622Y-3174D01*
X620Y-3182D01*
X618Y-3190D01*
X616Y-3199D01*
X613Y-3210D01*
X611Y-3221D01*
Y-3223D01*
X610Y-3228D01*
X608Y-3236D01*
X605Y-3248D01*
X576D01*
Y-3247D01*
Y-3243D01*
X577Y-3236D01*
Y-3227D01*
Y-3217D01*
X578Y-3204D01*
Y-3189D01*
X579Y-3172D01*
X580Y-3155D01*
Y-3135D01*
X581Y-3113D01*
Y-3091D01*
Y-3068D01*
X582Y-3043D01*
Y-2992D01*
Y-2990D01*
Y-2985D01*
Y-2977D01*
Y-2967D01*
Y-2953D01*
Y-2936D01*
X581Y-2917D01*
Y-2897D01*
Y-2874D01*
Y-2850D01*
X580Y-2823D01*
X579Y-2794D01*
Y-2765D01*
X578Y-2734D01*
X577Y-2703D01*
X576Y-2670D01*
X764Y-2659D01*
Y-2693D01*
D02*
G37*
%LPC*%
G36*
X12490Y-417D02*
X12472D01*
X12467Y-418D01*
X12456Y-419D01*
X12441Y-422D01*
X12425Y-427D01*
X12409Y-434D01*
X12393Y-444D01*
X12378Y-457D01*
X12376Y-459D01*
X12372Y-464D01*
X12366Y-473D01*
X12359Y-485D01*
X12353Y-501D01*
X12347Y-521D01*
X12343Y-543D01*
X12341Y-569D01*
Y-570D01*
Y-574D01*
Y-582D01*
X12342Y-592D01*
Y-598D01*
X12343Y-606D01*
Y-615D01*
X12344Y-624D01*
X12345Y-635D01*
X12346Y-647D01*
X12347Y-660D01*
X12348Y-674D01*
X12625Y-677D01*
Y-676D01*
Y-675D01*
Y-672D01*
X12626Y-668D01*
X12627Y-660D01*
Y-648D01*
X12628Y-635D01*
X12629Y-621D01*
X12630Y-608D01*
Y-597D01*
Y-596D01*
Y-593D01*
Y-588D01*
X12629Y-582D01*
Y-574D01*
X12628Y-565D01*
X12625Y-545D01*
X12620Y-524D01*
X12613Y-501D01*
X12603Y-479D01*
X12597Y-471D01*
X12590Y-462D01*
X12589Y-461D01*
X12588Y-460D01*
X12582Y-455D01*
X12573Y-448D01*
X12560Y-439D01*
X12544Y-431D01*
X12526Y-424D01*
X12503Y-419D01*
X12490Y-417D01*
D02*
G37*
%LPD*%
D47*
X10463Y-5748D02*
G03*
X10463Y-5748I-49J0D01*
G01*
X13494Y-12419D02*
G03*
X13494Y-12419I-49J0D01*
G01*
X384Y-5315D02*
G03*
X384Y-5315I-49J0D01*
G01*
D48*
X13629Y-2976D02*
G03*
X13640Y-4867I-942J-951D01*
G01*
X7579Y-10925D02*
G03*
X7579Y-10925I-1673J0D01*
G01*
X3972Y-12067D02*
G03*
X3972Y-12067I-431J0D01*
G01*
X13633Y-5835D02*
G03*
X13621Y-7760I-936J-957D01*
G01*
X1108Y-4964D02*
G03*
X1108Y-4288I-203J338D01*
G01*
X9134Y-5728D02*
X10157D01*
X9134D02*
Y-5354D01*
Y-3917D02*
X10157D01*
X9134Y-4291D02*
Y-3917D01*
X12854Y-12303D02*
Y-8366D01*
X12146Y-12303D02*
Y-8366D01*
Y-12303D02*
X12854D01*
X12146Y-8366D02*
X12854D01*
X14567Y-2165D02*
Y-1378D01*
X13976Y-1772D02*
X14567Y-1378D01*
X13976Y-1772D02*
X14567Y-2165D01*
X13976D02*
Y-1378D01*
X13110Y-3465D02*
X13504D01*
X13307Y-3661D02*
Y-3268D01*
X4390Y-10925D02*
X4783D01*
X4587Y-11122D02*
Y-10728D01*
X289Y-12593D02*
X4041D01*
X289D02*
Y-10640D01*
X439D01*
Y-10789D02*
Y-10640D01*
Y-10789D02*
X880D01*
X3892D02*
Y-10640D01*
X4041D01*
Y-12593D02*
Y-10640D01*
X3451Y-10789D02*
X3892D01*
X1451D02*
X2880D01*
X3325Y-12440D02*
X3914Y-11850D01*
X3169Y-12284D02*
X3758Y-11694D01*
X13110Y-6319D02*
X13504D01*
X13307Y-6516D02*
Y-6122D01*
X6791Y-5118D02*
Y-4331D01*
X6201Y-4724D02*
X6791Y-4331D01*
X6201Y-4724D02*
X6791Y-5118D01*
X6201D02*
Y-4331D01*
X1807Y-3543D02*
X10595D01*
Y1181D01*
X1807Y-3543D02*
Y1181D01*
X3439Y669D02*
X3585Y1181D01*
X5439Y669D02*
X5585Y1181D01*
X7439Y669D02*
X7585Y1181D01*
X6963Y669D02*
X7439D01*
X6817Y1181D02*
X6963Y669D01*
X8817Y1181D02*
X8963Y669D01*
X6942Y740D02*
X7459D01*
X8122Y-2343D02*
X8280D01*
X8201Y-2047D02*
X8280Y-2343D01*
X8122D02*
X8201Y-2047D01*
X4122Y-2343D02*
X4280D01*
X6122D02*
X6280D01*
X4201Y-2047D02*
X4280Y-2343D01*
X4122D02*
X4201Y-2047D01*
X6122Y-2343D02*
X6201Y-2047D01*
X8963Y669D02*
X9439D01*
X8942Y740D02*
X9459D01*
X4942D02*
X5459D01*
X4963Y669D02*
X5439D01*
X4817Y1181D02*
X4963Y669D01*
X2817Y1181D02*
X2963Y669D01*
X3439D01*
X2942Y740D02*
X3459D01*
X6201Y-2047D02*
X6280Y-2343D01*
X1807Y0D02*
X10595D01*
X1807Y1181D02*
X10595D01*
X1807Y640D02*
X10595D01*
X9439Y669D02*
X9585Y1181D01*
D49*
X6674Y-7692D02*
G03*
X6674Y-7692I-40J0D01*
G01*
X4390Y-8902D02*
G03*
X4390Y-8902I-40J0D01*
G01*
X98Y-17697D02*
X12972D01*
X98D02*
Y-12815D01*
X15846D01*
Y-17697D02*
Y-12815D01*
X12972Y-17697D02*
X15846D01*
X14902D02*
X14941D01*
X15059D02*
X15571D01*
Y-21476D02*
Y-17697D01*
X12224Y-21476D02*
Y-17697D01*
X6319Y-21476D02*
Y-17697D01*
X9665Y-21476D02*
Y-17697D01*
X413Y-21476D02*
Y-17697D01*
X3760Y-21476D02*
Y-17697D01*
X413Y-21476D02*
X3760D01*
X6319D02*
X9665D01*
X12224D02*
X15571D01*
X5321Y-384D02*
X5121D01*
X5221D01*
Y-884D01*
X5121Y-984D01*
X5021D01*
X4921Y-884D01*
X5521Y-984D02*
X5721D01*
X5621D01*
Y-384D01*
X5521Y-484D01*
D50*
X2415Y-10180D02*
Y-6980D01*
X415Y-10180D02*
X2415D01*
X415D02*
Y-6980D01*
X2415D01*
X9586Y-11654D02*
X10099D01*
X9586Y-11772D02*
X10099D01*
X8510Y-8122D02*
Y-7822D01*
X9010Y-8122D02*
Y-7822D01*
X10486Y-8122D02*
Y-7822D01*
X9986Y-8122D02*
Y-7822D01*
X1858Y-5565D02*
X2158D01*
X1858Y-5065D02*
X2158D01*
X6844Y-6744D02*
Y-6444D01*
X6344Y-6744D02*
Y-6444D01*
X6937Y-8937D02*
Y-7795D01*
Y-8937D02*
X7237D01*
Y-7795D01*
X6937D02*
X7237D01*
X4048Y-8799D02*
Y-7657D01*
X3748D02*
X4048D01*
X3748Y-8799D02*
Y-7657D01*
Y-8799D02*
X4048D01*
X5459Y-8516D02*
Y-8216D01*
X5959Y-8516D02*
Y-8216D01*
X3195Y-9993D02*
Y-9693D01*
X3695Y-9993D02*
Y-9693D01*
X3826Y-7100D02*
X4126D01*
X3826Y-6600D02*
X4126D01*
D51*
X5197Y-5433D02*
Y-5827D01*
X5394D01*
X5459Y-5761D01*
Y-5499D01*
X5394Y-5433D01*
X5197D01*
X5853Y-5827D02*
X5590D01*
X5853Y-5564D01*
Y-5499D01*
X5787Y-5433D01*
X5656D01*
X5590Y-5499D01*
X1772Y-11024D02*
X2034D01*
X1903D01*
Y-11417D01*
X2165D02*
Y-11024D01*
X2362D01*
X2428Y-11089D01*
Y-11221D01*
X2362Y-11286D01*
X2165D01*
X2296D02*
X2428Y-11417D01*
X2559D02*
X2690D01*
X2624D01*
Y-11024D01*
X2559Y-11089D01*
X14961Y-7382D02*
X15354D01*
Y-7185D01*
X15289Y-7120D01*
X15223D01*
X15158Y-7185D01*
Y-7382D01*
Y-7185D01*
X15092Y-7120D01*
X15026D01*
X14961Y-7185D01*
Y-7382D01*
X15354Y-6988D02*
X15092D01*
X14961Y-6857D01*
X15092Y-6726D01*
X15354D01*
X15158D01*
Y-6988D01*
X14961Y-6595D02*
Y-6332D01*
Y-6464D01*
X15354D01*
X14961Y-6201D02*
Y-5939D01*
Y-6070D01*
X15354D01*
Y-5808D02*
Y-5676D01*
Y-5742D01*
X14961D01*
X15026Y-5808D01*
X8924Y-11877D02*
X8858Y-11811D01*
X8727D01*
X8661Y-11877D01*
Y-12139D01*
X8727Y-12205D01*
X8858D01*
X8924Y-12139D01*
X9055Y-12205D02*
X9186D01*
X9121D01*
Y-11811D01*
X9055Y-11877D01*
X7841D02*
X7776Y-11811D01*
X7644D01*
X7579Y-11877D01*
Y-12139D01*
X7644Y-12205D01*
X7776D01*
X7841Y-12139D01*
X8235Y-12205D02*
X7972D01*
X8235Y-11942D01*
Y-11877D01*
X8169Y-11811D01*
X8038D01*
X7972Y-11877D01*
X13963Y-2861D02*
X13898Y-2795D01*
X13766D01*
X13701Y-2861D01*
Y-3123D01*
X13766Y-3189D01*
X13898D01*
X13963Y-3123D01*
X14094Y-2861D02*
X14160Y-2795D01*
X14291D01*
X14357Y-2861D01*
Y-2927D01*
X14291Y-2992D01*
X14226D01*
X14291D01*
X14357Y-3058D01*
Y-3123D01*
X14291Y-3189D01*
X14160D01*
X14094Y-3123D01*
X13963Y-7546D02*
X13898Y-7480D01*
X13766D01*
X13701Y-7546D01*
Y-7808D01*
X13766Y-7874D01*
X13898D01*
X13963Y-7808D01*
X14291Y-7874D02*
Y-7480D01*
X14094Y-7677D01*
X14357D01*
X12215Y-1949D02*
X12608D01*
Y-1752D01*
X12543Y-1686D01*
X12280D01*
X12215Y-1752D01*
Y-1949D01*
X12608Y-1555D02*
Y-1424D01*
Y-1490D01*
X12215D01*
X12280Y-1555D01*
X14928Y-11844D02*
X14862Y-11910D01*
Y-12041D01*
X14928Y-12106D01*
X15190D01*
X15256Y-12041D01*
Y-11910D01*
X15190Y-11844D01*
X15059D01*
Y-11975D01*
X15256Y-11713D02*
X14862D01*
X15256Y-11450D01*
X14862D01*
Y-11319D02*
X15256D01*
Y-11122D01*
X15190Y-11057D01*
X14928D01*
X14862Y-11122D01*
Y-11319D01*
X15256Y-10926D02*
Y-10794D01*
Y-10860D01*
X14862D01*
X14928Y-10926D01*
X10236Y-11024D02*
X10630D01*
X10433D01*
Y-10761D01*
X10236D01*
X10630D01*
X10302Y-10368D02*
X10236Y-10433D01*
Y-10564D01*
X10302Y-10630D01*
X10564D01*
X10630Y-10564D01*
Y-10433D01*
X10564Y-10368D01*
X10630Y-10236D02*
Y-10105D01*
Y-10171D01*
X10236D01*
X10302Y-10236D01*
X1575Y-4921D02*
X1969D01*
Y-4659D01*
X1575Y-4528D02*
X1969D01*
Y-4331D01*
X1903Y-4265D01*
X1641D01*
X1575Y-4331D01*
Y-4528D01*
X1969Y-4134D02*
Y-4003D01*
Y-4069D01*
X1575D01*
X1641Y-4134D01*
X8563Y-6201D02*
Y-6594D01*
X8825D01*
X8957Y-6201D02*
Y-6594D01*
X9153D01*
X9219Y-6529D01*
Y-6267D01*
X9153Y-6201D01*
X8957D01*
X9547D02*
X9416D01*
X9350Y-6267D01*
Y-6529D01*
X9416Y-6594D01*
X9547D01*
X9613Y-6529D01*
Y-6267D01*
X9547Y-6201D01*
X9744Y-6594D02*
X9875D01*
X9809D01*
Y-6201D01*
X9744Y-6267D01*
X7703Y-9226D02*
Y-8963D01*
X7638Y-8898D01*
X7507D01*
X7441Y-8963D01*
Y-9226D01*
X7507Y-9291D01*
X7638D01*
X7572Y-9160D02*
X7703Y-9291D01*
X7638D02*
X7703Y-9226D01*
X8097Y-9291D02*
X7835D01*
X8097Y-9029D01*
Y-8963D01*
X8031Y-8898D01*
X7900D01*
X7835Y-8963D01*
X3136Y-7730D02*
Y-7467D01*
X3071Y-7402D01*
X2940D01*
X2874Y-7467D01*
Y-7730D01*
X2940Y-7795D01*
X3071D01*
X3005Y-7664D02*
X3136Y-7795D01*
X3071D02*
X3136Y-7730D01*
X3268Y-7467D02*
X3333Y-7402D01*
X3464D01*
X3530Y-7467D01*
Y-7533D01*
X3464Y-7598D01*
X3399D01*
X3464D01*
X3530Y-7664D01*
Y-7730D01*
X3464Y-7795D01*
X3333D01*
X3268Y-7730D01*
X2717Y-4685D02*
X2848D01*
X2782D01*
Y-4291D01*
X2717Y-4357D01*
X3045Y-4291D02*
Y-4685D01*
Y-4554D01*
X3307Y-4291D01*
X3110Y-4488D01*
X3307Y-4685D01*
X2717Y-5512D02*
Y-5118D01*
X2913D01*
X2979Y-5184D01*
Y-5315D01*
X2913Y-5381D01*
X2717D01*
X2848D02*
X2979Y-5512D01*
X3110D02*
X3241D01*
X3176D01*
Y-5118D01*
X3110Y-5184D01*
X2953Y-9941D02*
Y-9810D01*
Y-9875D01*
X2559D01*
X2625Y-9941D01*
X2559Y-9613D02*
X2953D01*
X2822D01*
X2559Y-9351D01*
X2756Y-9547D01*
X2953Y-9351D01*
X4331Y-10039D02*
X3937D01*
Y-9843D01*
X4003Y-9777D01*
X4134D01*
X4200Y-9843D01*
Y-10039D01*
Y-9908D02*
X4331Y-9777D01*
Y-9383D02*
Y-9646D01*
X4068Y-9383D01*
X4003D01*
X3937Y-9449D01*
Y-9580D01*
X4003Y-9646D01*
X9646Y-8563D02*
Y-8432D01*
Y-8497D01*
X9252D01*
X9318Y-8563D01*
Y-8235D02*
X9252Y-8169D01*
Y-8038D01*
X9318Y-7973D01*
X9580D01*
X9646Y-8038D01*
Y-8169D01*
X9580Y-8235D01*
X9318D01*
Y-7841D02*
X9252Y-7776D01*
Y-7645D01*
X9318Y-7579D01*
X9580D01*
X9646Y-7645D01*
Y-7776D01*
X9580Y-7841D01*
X9318D01*
X9252Y-7448D02*
X9646D01*
X9514D01*
X9252Y-7185D01*
X9449Y-7382D01*
X9646Y-7185D01*
X8465Y-9331D02*
Y-8937D01*
X8661D01*
X8727Y-9003D01*
Y-9134D01*
X8661Y-9200D01*
X8465D01*
X8596D02*
X8727Y-9331D01*
X9121Y-8937D02*
X8858D01*
Y-9134D01*
X8989Y-9068D01*
X9055D01*
X9121Y-9134D01*
Y-9265D01*
X9055Y-9331D01*
X8924D01*
X8858Y-9265D01*
X3661Y-6260D02*
X3793D01*
X3727D01*
Y-5866D01*
X3661Y-5932D01*
X3989Y-5866D02*
Y-6260D01*
Y-6129D01*
X4252Y-5866D01*
X4055Y-6063D01*
X4252Y-6260D01*
X4803Y-6969D02*
Y-6575D01*
X5000D01*
X5066Y-6641D01*
Y-6772D01*
X5000Y-6837D01*
X4803D01*
X4934D02*
X5066Y-6969D01*
X5459Y-6575D02*
X5328Y-6641D01*
X5197Y-6772D01*
Y-6903D01*
X5262Y-6969D01*
X5394D01*
X5459Y-6903D01*
Y-6837D01*
X5394Y-6772D01*
X5197D01*
X7579Y-6890D02*
X7185D01*
X7382Y-7087D01*
Y-6824D01*
X7185Y-6693D02*
Y-6431D01*
X7251D01*
X7513Y-6693D01*
X7579D01*
X7185Y-6299D02*
X7579D01*
X7448D01*
X7185Y-6037D01*
X7382Y-6234D01*
X7579Y-6037D01*
X6299Y-5807D02*
Y-5414D01*
X6496D01*
X6562Y-5479D01*
Y-5610D01*
X6496Y-5676D01*
X6299D01*
X6430D02*
X6562Y-5807D01*
X6693Y-5479D02*
X6758Y-5414D01*
X6890D01*
X6955Y-5479D01*
Y-5545D01*
X6890Y-5610D01*
X6955Y-5676D01*
Y-5741D01*
X6890Y-5807D01*
X6758D01*
X6693Y-5741D01*
Y-5676D01*
X6758Y-5610D01*
X6693Y-5545D01*
Y-5479D01*
X6758Y-5610D02*
X6890D01*
X5217Y-8760D02*
Y-8629D01*
Y-8694D01*
X4823D01*
X4889Y-8760D01*
Y-8432D02*
X4823Y-8366D01*
Y-8235D01*
X4889Y-8169D01*
X5151D01*
X5217Y-8235D01*
Y-8366D01*
X5151Y-8432D01*
X4889D01*
X4823Y-8038D02*
X5217D01*
X5085D01*
X4823Y-7776D01*
X5020Y-7973D01*
X5217Y-7776D01*
X5413Y-7579D02*
Y-7185D01*
X5610D01*
X5676Y-7251D01*
Y-7382D01*
X5610Y-7448D01*
X5413D01*
X5545D02*
X5676Y-7579D01*
X5807Y-7513D02*
X5873Y-7579D01*
X6004D01*
X6069Y-7513D01*
Y-7251D01*
X6004Y-7185D01*
X5873D01*
X5807Y-7251D01*
Y-7316D01*
X5873Y-7382D01*
X6069D01*
X11122Y-8071D02*
Y-7940D01*
Y-8005D01*
X10728D01*
X10794Y-8071D01*
X10728Y-7743D02*
X11122D01*
X10991D01*
X10728Y-7481D01*
X10925Y-7677D01*
X11122Y-7481D01*
X9724Y-9370D02*
Y-8977D01*
X9921D01*
X9987Y-9042D01*
Y-9173D01*
X9921Y-9239D01*
X9724D01*
X9856D02*
X9987Y-9370D01*
X10118D02*
X10249D01*
X10184D01*
Y-8977D01*
X10118Y-9042D01*
X10446Y-9370D02*
X10577D01*
X10512D01*
Y-8977D01*
X10446Y-9042D01*
X1221Y-8937D02*
X1549D01*
X1614Y-8871D01*
Y-8740D01*
X1549Y-8675D01*
X1221D01*
X1614Y-8281D02*
Y-8543D01*
X1352Y-8281D01*
X1286D01*
X1221Y-8347D01*
Y-8478D01*
X1286Y-8543D01*
D52*
X3139Y-1870D02*
X3327Y-1608D01*
X3046D01*
X3139Y-1870D02*
Y-1476D01*
X9311Y-1805D02*
X9274Y-1824D01*
X9217Y-1880D01*
Y-1486D01*
X7324Y-1796D02*
Y-1815D01*
X7305Y-1852D01*
X7286Y-1871D01*
X7249Y-1890D01*
X7174D01*
X7136Y-1871D01*
X7118Y-1852D01*
X7099Y-1815D01*
Y-1777D01*
X7118Y-1740D01*
X7155Y-1683D01*
X7343Y-1496D01*
X7080D01*
X5307Y-1890D02*
X5101D01*
X5213Y-1740D01*
X5157D01*
X5120Y-1721D01*
X5101Y-1702D01*
X5082Y-1646D01*
Y-1609D01*
X5101Y-1552D01*
X5138Y-1515D01*
X5195Y-1496D01*
X5251D01*
X5307Y-1515D01*
X5326Y-1534D01*
X5344Y-1571D01*
D53*
X2225Y-8580D02*
D03*
M02*
