G04 Layer_Color=32896*
%FSLAX24Y24*%
%MOIN*%
G70*
G01*
G75*
%ADD46C,0.0236*%
%ADD47C,0.0098*%
%ADD48C,0.0079*%
%ADD50C,0.0050*%
%ADD51C,0.0039*%
%ADD85C,0.0060*%
G36*
X4675Y-4171D02*
X4688Y-4173D01*
X4700Y-4175D01*
X4711Y-4178D01*
X4722Y-4181D01*
X4732Y-4185D01*
X4741Y-4189D01*
X4749Y-4194D01*
X4756Y-4198D01*
X4763Y-4202D01*
X4768Y-4206D01*
X4772Y-4210D01*
X4776Y-4213D01*
X4779Y-4215D01*
X4780Y-4216D01*
X4781Y-4217D01*
X4789Y-4226D01*
X4795Y-4235D01*
X4801Y-4245D01*
X4806Y-4255D01*
X4811Y-4265D01*
X4814Y-4276D01*
X4820Y-4295D01*
X4822Y-4304D01*
X4823Y-4313D01*
X4824Y-4320D01*
X4825Y-4326D01*
X4825Y-4332D01*
Y-4335D01*
Y-4338D01*
Y-4339D01*
X4825Y-4353D01*
X4824Y-4366D01*
X4822Y-4379D01*
X4819Y-4391D01*
X4816Y-4402D01*
X4812Y-4412D01*
X4808Y-4421D01*
X4804Y-4429D01*
X4800Y-4436D01*
X4797Y-4443D01*
X4793Y-4449D01*
X4789Y-4453D01*
X4787Y-4457D01*
X4785Y-4459D01*
X4784Y-4461D01*
X4783Y-4461D01*
X4774Y-4469D01*
X4765Y-4476D01*
X4756Y-4482D01*
X4746Y-4487D01*
X4736Y-4491D01*
X4726Y-4495D01*
X4708Y-4500D01*
X4699Y-4501D01*
X4691Y-4503D01*
X4684Y-4504D01*
X4678Y-4505D01*
X4673Y-4505D01*
X4665D01*
X4652Y-4505D01*
X4640Y-4503D01*
X4629Y-4501D01*
X4620Y-4498D01*
X4612Y-4495D01*
X4606Y-4493D01*
X4602Y-4491D01*
X4600Y-4490D01*
X4590Y-4484D01*
X4580Y-4477D01*
X4572Y-4470D01*
X4565Y-4463D01*
X4559Y-4457D01*
X4555Y-4452D01*
X4552Y-4448D01*
X4551Y-4447D01*
X4553Y-4463D01*
X4555Y-4478D01*
X4557Y-4493D01*
X4560Y-4506D01*
X4563Y-4518D01*
X4567Y-4530D01*
X4570Y-4539D01*
X4574Y-4549D01*
X4578Y-4557D01*
X4581Y-4563D01*
X4583Y-4569D01*
X4587Y-4574D01*
X4589Y-4578D01*
X4591Y-4580D01*
X4591Y-4581D01*
X4592Y-4582D01*
X4599Y-4590D01*
X4606Y-4597D01*
X4614Y-4602D01*
X4622Y-4608D01*
X4630Y-4612D01*
X4639Y-4616D01*
X4655Y-4621D01*
X4663Y-4622D01*
X4669Y-4623D01*
X4676Y-4625D01*
X4681Y-4625D01*
X4686Y-4626D01*
X4692D01*
X4711Y-4625D01*
X4720Y-4624D01*
X4728Y-4623D01*
X4734Y-4622D01*
X4739Y-4621D01*
X4742Y-4620D01*
X4743D01*
X4762Y-4615D01*
X4770Y-4612D01*
X4778Y-4609D01*
X4785Y-4606D01*
X4789Y-4604D01*
X4793Y-4603D01*
X4794Y-4602D01*
Y-4663D01*
X4784Y-4666D01*
X4774Y-4669D01*
X4765Y-4672D01*
X4757Y-4674D01*
X4751Y-4675D01*
X4745Y-4677D01*
X4742Y-4677D01*
X4741D01*
X4731Y-4679D01*
X4722Y-4681D01*
X4713Y-4681D01*
X4705Y-4682D01*
X4699Y-4682D01*
X4690D01*
X4673Y-4682D01*
X4656Y-4679D01*
X4641Y-4676D01*
X4627Y-4671D01*
X4614Y-4666D01*
X4601Y-4660D01*
X4590Y-4654D01*
X4580Y-4648D01*
X4571Y-4641D01*
X4563Y-4635D01*
X4557Y-4629D01*
X4551Y-4624D01*
X4547Y-4620D01*
X4543Y-4616D01*
X4541Y-4614D01*
X4541Y-4613D01*
X4531Y-4599D01*
X4522Y-4585D01*
X4515Y-4570D01*
X4509Y-4555D01*
X4503Y-4539D01*
X4499Y-4524D01*
X4495Y-4509D01*
X4492Y-4494D01*
X4490Y-4480D01*
X4488Y-4468D01*
X4487Y-4456D01*
X4486Y-4446D01*
Y-4438D01*
X4485Y-4433D01*
Y-4429D01*
Y-4427D01*
X4486Y-4404D01*
X4487Y-4383D01*
X4489Y-4364D01*
X4492Y-4345D01*
X4496Y-4328D01*
X4499Y-4313D01*
X4503Y-4298D01*
X4507Y-4286D01*
X4512Y-4274D01*
X4516Y-4265D01*
X4520Y-4256D01*
X4523Y-4250D01*
X4526Y-4244D01*
X4528Y-4240D01*
X4530Y-4238D01*
X4530Y-4237D01*
X4539Y-4225D01*
X4549Y-4215D01*
X4559Y-4206D01*
X4570Y-4199D01*
X4581Y-4192D01*
X4592Y-4187D01*
X4602Y-4183D01*
X4613Y-4179D01*
X4623Y-4176D01*
X4632Y-4174D01*
X4640Y-4173D01*
X4647Y-4172D01*
X4653Y-4171D01*
X4658Y-4171D01*
X4661D01*
X4675Y-4171D01*
D02*
G37*
G36*
X1631Y-4917D02*
X1646Y-4918D01*
X1660Y-4921D01*
X1673Y-4924D01*
X1685Y-4929D01*
X1696Y-4933D01*
X1706Y-4938D01*
X1715Y-4942D01*
X1724Y-4947D01*
X1731Y-4952D01*
X1737Y-4956D01*
X1742Y-4960D01*
X1746Y-4964D01*
X1749Y-4967D01*
X1751Y-4968D01*
X1751Y-4969D01*
X1760Y-4978D01*
X1768Y-4990D01*
X1774Y-5001D01*
X1780Y-5013D01*
X1785Y-5024D01*
X1789Y-5036D01*
X1792Y-5048D01*
X1795Y-5059D01*
X1797Y-5070D01*
X1799Y-5079D01*
X1800Y-5088D01*
X1801Y-5095D01*
Y-5102D01*
X1801Y-5106D01*
Y-5109D01*
Y-5110D01*
X1801Y-5127D01*
X1799Y-5142D01*
X1797Y-5156D01*
X1793Y-5170D01*
X1790Y-5182D01*
X1786Y-5194D01*
X1781Y-5205D01*
X1776Y-5215D01*
X1772Y-5223D01*
X1768Y-5230D01*
X1763Y-5237D01*
X1760Y-5242D01*
X1757Y-5247D01*
X1754Y-5249D01*
X1753Y-5251D01*
X1752Y-5252D01*
X1742Y-5261D01*
X1732Y-5269D01*
X1721Y-5276D01*
X1711Y-5282D01*
X1700Y-5287D01*
X1689Y-5291D01*
X1677Y-5295D01*
X1667Y-5298D01*
X1657Y-5300D01*
X1648Y-5302D01*
X1640Y-5303D01*
X1633Y-5304D01*
X1627D01*
X1623Y-5305D01*
X1608D01*
X1597Y-5304D01*
X1587Y-5303D01*
X1579Y-5301D01*
X1572Y-5301D01*
X1566Y-5299D01*
X1563Y-5299D01*
X1561D01*
X1551Y-5296D01*
X1542Y-5293D01*
X1532Y-5290D01*
X1524Y-5287D01*
X1518Y-5285D01*
X1513Y-5283D01*
X1510Y-5282D01*
X1509Y-5281D01*
Y-5225D01*
X1528Y-5234D01*
X1536Y-5238D01*
X1544Y-5241D01*
X1551Y-5243D01*
X1556Y-5245D01*
X1559Y-5245D01*
X1561Y-5246D01*
X1580Y-5250D01*
X1588Y-5251D01*
X1596Y-5252D01*
X1603D01*
X1608Y-5253D01*
X1612D01*
X1624Y-5252D01*
X1633Y-5251D01*
X1643Y-5249D01*
X1652Y-5247D01*
X1660Y-5244D01*
X1668Y-5241D01*
X1675Y-5238D01*
X1681Y-5234D01*
X1687Y-5230D01*
X1691Y-5227D01*
X1696Y-5224D01*
X1699Y-5221D01*
X1702Y-5219D01*
X1704Y-5217D01*
X1704Y-5216D01*
X1705Y-5215D01*
X1711Y-5208D01*
X1715Y-5200D01*
X1720Y-5192D01*
X1723Y-5183D01*
X1729Y-5165D01*
X1733Y-5149D01*
X1734Y-5141D01*
X1735Y-5134D01*
X1736Y-5127D01*
X1736Y-5121D01*
X1737Y-5117D01*
Y-5114D01*
Y-5111D01*
Y-5110D01*
X1736Y-5098D01*
X1736Y-5087D01*
X1734Y-5076D01*
X1732Y-5066D01*
X1730Y-5056D01*
X1727Y-5047D01*
X1724Y-5039D01*
X1721Y-5032D01*
X1718Y-5026D01*
X1715Y-5020D01*
X1712Y-5016D01*
X1710Y-5012D01*
X1708Y-5009D01*
X1706Y-5007D01*
X1706Y-5006D01*
X1705Y-5005D01*
X1698Y-4999D01*
X1692Y-4993D01*
X1684Y-4988D01*
X1677Y-4984D01*
X1669Y-4980D01*
X1661Y-4977D01*
X1647Y-4973D01*
X1633Y-4970D01*
X1627Y-4969D01*
X1622Y-4969D01*
X1618Y-4968D01*
X1603D01*
X1593Y-4969D01*
X1584Y-4970D01*
X1576Y-4971D01*
X1570Y-4973D01*
X1565Y-4974D01*
X1562Y-4975D01*
X1561Y-4975D01*
X1551Y-4978D01*
X1542Y-4981D01*
X1532Y-4984D01*
X1524Y-4988D01*
X1518Y-4991D01*
X1513Y-4994D01*
X1510Y-4996D01*
X1509Y-4996D01*
Y-4940D01*
X1527Y-4932D01*
X1536Y-4929D01*
X1544Y-4927D01*
X1551Y-4925D01*
X1556Y-4923D01*
X1559Y-4922D01*
X1561D01*
X1580Y-4919D01*
X1589Y-4917D01*
X1598Y-4917D01*
X1605Y-4916D01*
X1615D01*
X1631Y-4917D01*
D02*
G37*
G36*
X3775Y-4171D02*
X3790Y-4174D01*
X3806Y-4177D01*
X3820Y-4182D01*
X3834Y-4187D01*
X3845Y-4193D01*
X3857Y-4199D01*
X3867Y-4206D01*
X3876Y-4212D01*
X3884Y-4219D01*
X3891Y-4225D01*
X3896Y-4230D01*
X3901Y-4234D01*
X3904Y-4238D01*
X3906Y-4240D01*
X3906Y-4241D01*
X3916Y-4255D01*
X3925Y-4269D01*
X3932Y-4284D01*
X3939Y-4299D01*
X3944Y-4315D01*
X3948Y-4330D01*
X3952Y-4346D01*
X3954Y-4360D01*
X3957Y-4374D01*
X3959Y-4387D01*
X3960Y-4398D01*
X3961Y-4408D01*
Y-4416D01*
X3962Y-4422D01*
Y-4426D01*
Y-4427D01*
Y-4427D01*
X3961Y-4450D01*
X3960Y-4471D01*
X3958Y-4491D01*
X3954Y-4509D01*
X3951Y-4526D01*
X3947Y-4541D01*
X3943Y-4556D01*
X3939Y-4568D01*
X3935Y-4579D01*
X3931Y-4589D01*
X3927Y-4598D01*
X3924Y-4604D01*
X3921Y-4610D01*
X3919Y-4614D01*
X3918Y-4616D01*
X3917Y-4617D01*
X3908Y-4629D01*
X3899Y-4639D01*
X3888Y-4647D01*
X3878Y-4655D01*
X3866Y-4661D01*
X3855Y-4667D01*
X3845Y-4671D01*
X3834Y-4674D01*
X3824Y-4677D01*
X3815Y-4679D01*
X3807Y-4681D01*
X3800Y-4681D01*
X3794Y-4682D01*
X3790Y-4682D01*
X3786D01*
X3772Y-4682D01*
X3759Y-4681D01*
X3747Y-4679D01*
X3735Y-4675D01*
X3725Y-4672D01*
X3715Y-4668D01*
X3706Y-4663D01*
X3698Y-4660D01*
X3691Y-4655D01*
X3684Y-4651D01*
X3679Y-4647D01*
X3674Y-4644D01*
X3671Y-4640D01*
X3668Y-4639D01*
X3667Y-4637D01*
X3666Y-4637D01*
X3658Y-4627D01*
X3651Y-4618D01*
X3645Y-4608D01*
X3640Y-4598D01*
X3636Y-4588D01*
X3632Y-4578D01*
X3629Y-4568D01*
X3627Y-4559D01*
X3625Y-4549D01*
X3624Y-4541D01*
X3622Y-4534D01*
X3622Y-4527D01*
X3621Y-4522D01*
Y-4518D01*
Y-4515D01*
Y-4515D01*
X3622Y-4500D01*
X3623Y-4487D01*
X3625Y-4475D01*
X3628Y-4463D01*
X3631Y-4452D01*
X3635Y-4442D01*
X3639Y-4433D01*
X3643Y-4424D01*
X3647Y-4417D01*
X3651Y-4410D01*
X3655Y-4405D01*
X3658Y-4400D01*
X3660Y-4396D01*
X3662Y-4394D01*
X3664Y-4393D01*
X3664Y-4392D01*
X3673Y-4384D01*
X3682Y-4377D01*
X3691Y-4371D01*
X3701Y-4366D01*
X3711Y-4361D01*
X3721Y-4358D01*
X3730Y-4354D01*
X3739Y-4353D01*
X3748Y-4351D01*
X3756Y-4349D01*
X3763Y-4348D01*
X3769Y-4347D01*
X3775Y-4347D01*
X3782D01*
X3795Y-4347D01*
X3807Y-4349D01*
X3818Y-4352D01*
X3828Y-4354D01*
X3836Y-4357D01*
X3841Y-4360D01*
X3845Y-4362D01*
X3846Y-4362D01*
X3847D01*
X3857Y-4368D01*
X3866Y-4375D01*
X3874Y-4383D01*
X3882Y-4391D01*
X3887Y-4397D01*
X3891Y-4402D01*
X3894Y-4406D01*
X3895Y-4406D01*
X3895Y-4407D01*
Y-4406D01*
X3895Y-4406D01*
X3893Y-4391D01*
X3891Y-4375D01*
X3889Y-4361D01*
X3887Y-4348D01*
X3883Y-4335D01*
X3880Y-4324D01*
X3877Y-4314D01*
X3873Y-4305D01*
X3870Y-4297D01*
X3866Y-4291D01*
X3863Y-4285D01*
X3861Y-4280D01*
X3859Y-4276D01*
X3857Y-4274D01*
X3856Y-4272D01*
X3855Y-4272D01*
X3849Y-4264D01*
X3841Y-4257D01*
X3833Y-4251D01*
X3825Y-4246D01*
X3817Y-4242D01*
X3808Y-4238D01*
X3792Y-4232D01*
X3784Y-4231D01*
X3777Y-4230D01*
X3771Y-4229D01*
X3765Y-4228D01*
X3761Y-4227D01*
X3754D01*
X3736Y-4229D01*
X3727Y-4229D01*
X3720Y-4230D01*
X3714Y-4232D01*
X3708Y-4232D01*
X3706Y-4234D01*
X3704D01*
X3685Y-4239D01*
X3677Y-4242D01*
X3669Y-4245D01*
X3662Y-4248D01*
X3658Y-4250D01*
X3655Y-4251D01*
X3653Y-4251D01*
Y-4191D01*
X3664Y-4188D01*
X3674Y-4185D01*
X3683Y-4182D01*
X3691Y-4180D01*
X3697Y-4178D01*
X3702Y-4177D01*
X3706Y-4176D01*
X3707D01*
X3725Y-4173D01*
X3734Y-4172D01*
X3742Y-4171D01*
X3748Y-4171D01*
X3758D01*
X3775Y-4171D01*
D02*
G37*
G36*
X4406Y-4493D02*
Y-4557D01*
X4183D01*
Y-4673D01*
X4116D01*
Y-4557D01*
X4046D01*
Y-4501D01*
X4116D01*
Y-4180D01*
X4201D01*
X4406Y-4493D01*
D02*
G37*
G36*
X5200Y-5295D02*
X5117D01*
X4979Y-4925D01*
X5043D01*
X5158Y-5236D01*
X5274Y-4925D01*
X5338D01*
X5200Y-5295D01*
D02*
G37*
G36*
X6814Y-4917D02*
X6828Y-4918D01*
X6842Y-4921D01*
X6855Y-4925D01*
X6866Y-4929D01*
X6877Y-4933D01*
X6887Y-4938D01*
X6896Y-4943D01*
X6904Y-4948D01*
X6912Y-4953D01*
X6917Y-4957D01*
X6922Y-4961D01*
X6926Y-4965D01*
X6929Y-4967D01*
X6931Y-4969D01*
X6931Y-4970D01*
X6940Y-4980D01*
X6948Y-4992D01*
X6954Y-5003D01*
X6959Y-5015D01*
X6965Y-5027D01*
X6969Y-5039D01*
X6972Y-5051D01*
X6975Y-5062D01*
X6977Y-5073D01*
X6978Y-5083D01*
X6979Y-5091D01*
X6980Y-5099D01*
Y-5106D01*
X6980Y-5110D01*
Y-5113D01*
Y-5114D01*
X6980Y-5130D01*
X6978Y-5145D01*
X6976Y-5160D01*
X6973Y-5173D01*
X6969Y-5185D01*
X6964Y-5196D01*
X6959Y-5207D01*
X6954Y-5217D01*
X6950Y-5225D01*
X6945Y-5232D01*
X6940Y-5239D01*
X6937Y-5244D01*
X6933Y-5248D01*
X6931Y-5251D01*
X6929Y-5253D01*
X6929Y-5253D01*
X6919Y-5263D01*
X6908Y-5270D01*
X6896Y-5277D01*
X6885Y-5283D01*
X6873Y-5288D01*
X6862Y-5292D01*
X6850Y-5295D01*
X6839Y-5298D01*
X6828Y-5300D01*
X6819Y-5302D01*
X6811Y-5303D01*
X6803Y-5304D01*
X6797D01*
X6792Y-5305D01*
X6788D01*
X6775Y-5304D01*
X6763Y-5303D01*
X6751Y-5302D01*
X6741Y-5301D01*
X6732Y-5299D01*
X6725Y-5299D01*
X6723Y-5298D01*
X6721Y-5297D01*
X6719D01*
X6706Y-5294D01*
X6694Y-5291D01*
X6683Y-5287D01*
X6673Y-5284D01*
X6664Y-5281D01*
X6658Y-5278D01*
X6655Y-5278D01*
X6653Y-5277D01*
X6652Y-5276D01*
X6652D01*
Y-5219D01*
X6664Y-5225D01*
X6675Y-5230D01*
X6687Y-5235D01*
X6696Y-5238D01*
X6705Y-5241D01*
X6711Y-5243D01*
X6714Y-5244D01*
X6716D01*
X6717Y-5245D01*
X6717D01*
X6730Y-5247D01*
X6742Y-5249D01*
X6753Y-5251D01*
X6763Y-5251D01*
X6773Y-5252D01*
X6779Y-5253D01*
X6785D01*
X6796Y-5252D01*
X6807Y-5251D01*
X6816Y-5249D01*
X6825Y-5247D01*
X6834Y-5245D01*
X6841Y-5242D01*
X6849Y-5240D01*
X6855Y-5236D01*
X6860Y-5233D01*
X6866Y-5230D01*
X6870Y-5228D01*
X6873Y-5225D01*
X6876Y-5223D01*
X6878Y-5221D01*
X6879Y-5221D01*
X6879Y-5220D01*
X6885Y-5213D01*
X6891Y-5206D01*
X6899Y-5191D01*
X6906Y-5175D01*
X6911Y-5160D01*
X6912Y-5152D01*
X6914Y-5146D01*
X6915Y-5140D01*
X6916Y-5135D01*
X6916Y-5130D01*
X6917Y-5127D01*
Y-5125D01*
Y-5124D01*
X6637D01*
Y-5095D01*
X6638Y-5080D01*
X6639Y-5065D01*
X6641Y-5052D01*
X6644Y-5039D01*
X6648Y-5028D01*
X6651Y-5017D01*
X6655Y-5007D01*
X6659Y-4998D01*
X6664Y-4990D01*
X6668Y-4984D01*
X6671Y-4978D01*
X6674Y-4973D01*
X6677Y-4969D01*
X6679Y-4966D01*
X6681Y-4965D01*
X6681Y-4964D01*
X6690Y-4956D01*
X6699Y-4948D01*
X6708Y-4942D01*
X6718Y-4936D01*
X6728Y-4932D01*
X6738Y-4928D01*
X6747Y-4925D01*
X6756Y-4922D01*
X6765Y-4920D01*
X6773Y-4919D01*
X6780Y-4917D01*
X6786Y-4917D01*
X6792Y-4916D01*
X6799D01*
X6814Y-4917D01*
D02*
G37*
G36*
X2217Y-4428D02*
X2206Y-4423D01*
X2196Y-4420D01*
X2188Y-4417D01*
X2179Y-4414D01*
X2173Y-4412D01*
X2167Y-4411D01*
X2164Y-4410D01*
X2163D01*
X2153Y-4408D01*
X2143Y-4406D01*
X2134Y-4404D01*
X2126Y-4404D01*
X2119Y-4403D01*
X2099D01*
X2089Y-4404D01*
X2071Y-4408D01*
X2055Y-4413D01*
X2049Y-4415D01*
X2042Y-4418D01*
X2037Y-4421D01*
X2032Y-4423D01*
X2028Y-4426D01*
X2024Y-4429D01*
X2022Y-4431D01*
X2020Y-4432D01*
X2019Y-4433D01*
X2018Y-4433D01*
X2013Y-4439D01*
X2007Y-4446D01*
X2003Y-4452D01*
X1999Y-4459D01*
X1993Y-4472D01*
X1989Y-4485D01*
X1987Y-4497D01*
X1986Y-4501D01*
X1986Y-4506D01*
X1985Y-4509D01*
Y-4513D01*
Y-4514D01*
Y-4515D01*
X1986Y-4524D01*
X1986Y-4533D01*
X1990Y-4549D01*
X1996Y-4563D01*
X2001Y-4575D01*
X2008Y-4584D01*
X2011Y-4588D01*
X2013Y-4591D01*
X2015Y-4593D01*
X2017Y-4595D01*
X2018Y-4596D01*
X2018Y-4597D01*
X2025Y-4602D01*
X2032Y-4606D01*
X2047Y-4614D01*
X2062Y-4619D01*
X2077Y-4622D01*
X2089Y-4625D01*
X2095Y-4625D01*
X2100D01*
X2104Y-4626D01*
X2110D01*
X2123Y-4625D01*
X2135Y-4625D01*
X2146Y-4623D01*
X2156Y-4622D01*
X2165Y-4621D01*
X2171Y-4620D01*
X2173Y-4620D01*
X2175Y-4619D01*
X2177D01*
X2188Y-4616D01*
X2200Y-4612D01*
X2209Y-4608D01*
X2219Y-4604D01*
X2226Y-4600D01*
X2232Y-4597D01*
X2236Y-4595D01*
X2237Y-4595D01*
X2238D01*
Y-4661D01*
X2225Y-4665D01*
X2213Y-4668D01*
X2201Y-4671D01*
X2192Y-4673D01*
X2183Y-4675D01*
X2177Y-4676D01*
X2175Y-4677D01*
X2173Y-4677D01*
X2171D01*
X2159Y-4679D01*
X2148Y-4681D01*
X2137Y-4681D01*
X2128Y-4682D01*
X2119Y-4682D01*
X2108D01*
X2092Y-4682D01*
X2076Y-4681D01*
X2062Y-4679D01*
X2048Y-4675D01*
X2036Y-4672D01*
X2024Y-4669D01*
X2014Y-4665D01*
X2004Y-4660D01*
X1996Y-4656D01*
X1988Y-4652D01*
X1982Y-4649D01*
X1977Y-4645D01*
X1973Y-4642D01*
X1971Y-4640D01*
X1969Y-4639D01*
X1968Y-4639D01*
X1959Y-4630D01*
X1952Y-4620D01*
X1945Y-4610D01*
X1939Y-4600D01*
X1935Y-4590D01*
X1931Y-4579D01*
X1927Y-4570D01*
X1924Y-4560D01*
X1922Y-4551D01*
X1921Y-4542D01*
X1919Y-4534D01*
X1919Y-4528D01*
X1918Y-4522D01*
Y-4518D01*
Y-4515D01*
Y-4515D01*
X1919Y-4501D01*
X1920Y-4487D01*
X1923Y-4475D01*
X1926Y-4463D01*
X1929Y-4452D01*
X1933Y-4442D01*
X1938Y-4433D01*
X1942Y-4425D01*
X1947Y-4417D01*
X1952Y-4411D01*
X1955Y-4406D01*
X1959Y-4401D01*
X1962Y-4397D01*
X1965Y-4394D01*
X1966Y-4393D01*
X1967Y-4393D01*
X1976Y-4385D01*
X1986Y-4377D01*
X1997Y-4372D01*
X2007Y-4366D01*
X2018Y-4362D01*
X2030Y-4358D01*
X2040Y-4354D01*
X2051Y-4353D01*
X2060Y-4351D01*
X2069Y-4349D01*
X2077Y-4348D01*
X2084Y-4347D01*
X2090Y-4347D01*
X2098D01*
X2108Y-4347D01*
X2114D01*
X2118Y-4348D01*
X2121Y-4349D01*
X2124D01*
X2126Y-4349D01*
X2127D01*
X2137Y-4352D01*
X2142Y-4353D01*
X2146Y-4354D01*
X2150Y-4355D01*
X2153Y-4356D01*
X2155Y-4357D01*
X2156D01*
Y-4236D01*
X1955D01*
Y-4180D01*
X2217D01*
Y-4428D01*
D02*
G37*
G36*
X4772Y-3618D02*
X4780Y-3607D01*
X4787Y-3597D01*
X4796Y-3589D01*
X4804Y-3582D01*
X4810Y-3576D01*
X4816Y-3572D01*
X4820Y-3570D01*
X4820Y-3570D01*
X4821D01*
X4832Y-3565D01*
X4844Y-3561D01*
X4856Y-3557D01*
X4867Y-3555D01*
X4877Y-3554D01*
X4884Y-3553D01*
X4891D01*
X4904Y-3554D01*
X4915Y-3555D01*
X4926Y-3559D01*
X4936Y-3562D01*
X4946Y-3566D01*
X4955Y-3570D01*
X4963Y-3575D01*
X4970Y-3580D01*
X4977Y-3586D01*
X4983Y-3590D01*
X4988Y-3595D01*
X4992Y-3599D01*
X4995Y-3602D01*
X4998Y-3605D01*
X4999Y-3607D01*
X5000Y-3607D01*
X5007Y-3618D01*
X5014Y-3629D01*
X5020Y-3640D01*
X5024Y-3652D01*
X5028Y-3664D01*
X5031Y-3675D01*
X5037Y-3698D01*
X5039Y-3708D01*
X5040Y-3717D01*
X5041Y-3726D01*
X5041Y-3733D01*
X5042Y-3739D01*
Y-3744D01*
Y-3746D01*
Y-3748D01*
X5041Y-3763D01*
X5040Y-3778D01*
X5038Y-3793D01*
X5035Y-3807D01*
X5032Y-3819D01*
X5029Y-3830D01*
X5025Y-3841D01*
X5021Y-3851D01*
X5017Y-3859D01*
X5013Y-3867D01*
X5010Y-3874D01*
X5007Y-3879D01*
X5004Y-3883D01*
X5002Y-3886D01*
X5001Y-3888D01*
X5000Y-3889D01*
X4991Y-3898D01*
X4983Y-3906D01*
X4974Y-3914D01*
X4965Y-3919D01*
X4956Y-3925D01*
X4947Y-3929D01*
X4938Y-3933D01*
X4930Y-3935D01*
X4921Y-3937D01*
X4914Y-3939D01*
X4907Y-3940D01*
X4902Y-3941D01*
X4898D01*
X4894Y-3942D01*
X4891D01*
X4876Y-3941D01*
X4863Y-3939D01*
X4850Y-3936D01*
X4840Y-3934D01*
X4832Y-3931D01*
X4825Y-3929D01*
X4822Y-3927D01*
X4820Y-3926D01*
X4810Y-3919D01*
X4800Y-3912D01*
X4792Y-3903D01*
X4785Y-3895D01*
X4780Y-3888D01*
X4775Y-3882D01*
X4772Y-3878D01*
X4772Y-3877D01*
Y-3932D01*
X4711D01*
Y-3418D01*
X4772D01*
Y-3618D01*
D02*
G37*
G36*
X1568Y-3932D02*
X1507D01*
Y-3562D01*
X1568D01*
Y-3932D01*
D02*
G37*
G36*
X1679Y-3554D02*
X1694Y-3556D01*
X1706Y-3559D01*
X1717Y-3561D01*
X1727Y-3565D01*
X1733Y-3567D01*
X1735Y-3568D01*
X1737Y-3569D01*
X1738Y-3570D01*
X1738D01*
X1749Y-3576D01*
X1759Y-3584D01*
X1767Y-3593D01*
X1774Y-3601D01*
X1780Y-3608D01*
X1784Y-3614D01*
X1787Y-3618D01*
X1788Y-3619D01*
Y-3562D01*
X1849D01*
Y-3932D01*
X1788D01*
Y-3738D01*
X1787Y-3726D01*
X1786Y-3715D01*
X1785Y-3706D01*
X1783Y-3696D01*
X1781Y-3687D01*
X1779Y-3679D01*
X1776Y-3672D01*
X1774Y-3666D01*
X1771Y-3660D01*
X1769Y-3655D01*
X1767Y-3651D01*
X1765Y-3647D01*
X1763Y-3645D01*
X1761Y-3643D01*
X1760Y-3642D01*
Y-3641D01*
X1755Y-3635D01*
X1749Y-3630D01*
X1742Y-3626D01*
X1736Y-3622D01*
X1723Y-3616D01*
X1710Y-3612D01*
X1698Y-3610D01*
X1694Y-3609D01*
X1689Y-3608D01*
X1686Y-3608D01*
X1681D01*
X1670Y-3608D01*
X1666D01*
X1662Y-3609D01*
X1659Y-3610D01*
X1656D01*
X1655Y-3610D01*
X1654D01*
X1646Y-3613D01*
X1639Y-3616D01*
X1636Y-3617D01*
X1634Y-3618D01*
X1633Y-3619D01*
X1632D01*
X1633Y-3557D01*
X1639Y-3555D01*
X1645Y-3555D01*
X1648Y-3554D01*
X1650D01*
X1655Y-3553D01*
X1663D01*
X1679Y-3554D01*
D02*
G37*
G36*
X5654Y-4428D02*
X5644Y-4423D01*
X5634Y-4420D01*
X5625Y-4417D01*
X5617Y-4414D01*
X5610Y-4412D01*
X5605Y-4411D01*
X5602Y-4410D01*
X5600D01*
X5590Y-4408D01*
X5581Y-4406D01*
X5571Y-4404D01*
X5563Y-4404D01*
X5557Y-4403D01*
X5537D01*
X5527Y-4404D01*
X5508Y-4408D01*
X5493Y-4413D01*
X5486Y-4415D01*
X5480Y-4418D01*
X5474Y-4421D01*
X5470Y-4423D01*
X5465Y-4426D01*
X5462Y-4429D01*
X5459Y-4431D01*
X5457Y-4432D01*
X5457Y-4433D01*
X5456Y-4433D01*
X5450Y-4439D01*
X5445Y-4446D01*
X5440Y-4452D01*
X5436Y-4459D01*
X5430Y-4472D01*
X5426Y-4485D01*
X5424Y-4497D01*
X5424Y-4501D01*
X5423Y-4506D01*
X5422Y-4509D01*
Y-4513D01*
Y-4514D01*
Y-4515D01*
X5423Y-4524D01*
X5424Y-4533D01*
X5428Y-4549D01*
X5433Y-4563D01*
X5439Y-4575D01*
X5445Y-4584D01*
X5448Y-4588D01*
X5451Y-4591D01*
X5453Y-4593D01*
X5455Y-4595D01*
X5455Y-4596D01*
X5456Y-4597D01*
X5462Y-4602D01*
X5470Y-4606D01*
X5484Y-4614D01*
X5499Y-4619D01*
X5514Y-4622D01*
X5527Y-4625D01*
X5533Y-4625D01*
X5537D01*
X5542Y-4626D01*
X5547D01*
X5560Y-4625D01*
X5572Y-4625D01*
X5584Y-4623D01*
X5594Y-4622D01*
X5602Y-4621D01*
X5608Y-4620D01*
X5611Y-4620D01*
X5613Y-4619D01*
X5614D01*
X5626Y-4616D01*
X5637Y-4612D01*
X5647Y-4608D01*
X5656Y-4604D01*
X5664Y-4600D01*
X5670Y-4597D01*
X5674Y-4595D01*
X5674Y-4595D01*
X5675D01*
Y-4661D01*
X5663Y-4665D01*
X5650Y-4668D01*
X5639Y-4671D01*
X5629Y-4673D01*
X5621Y-4675D01*
X5614Y-4676D01*
X5612Y-4677D01*
X5610Y-4677D01*
X5609D01*
X5597Y-4679D01*
X5585Y-4681D01*
X5575Y-4681D01*
X5565Y-4682D01*
X5557Y-4682D01*
X5546D01*
X5529Y-4682D01*
X5514Y-4681D01*
X5499Y-4679D01*
X5485Y-4675D01*
X5473Y-4672D01*
X5462Y-4669D01*
X5451Y-4665D01*
X5441Y-4660D01*
X5433Y-4656D01*
X5426Y-4652D01*
X5420Y-4649D01*
X5415Y-4645D01*
X5411Y-4642D01*
X5408Y-4640D01*
X5406Y-4639D01*
X5405Y-4639D01*
X5397Y-4630D01*
X5389Y-4620D01*
X5382Y-4610D01*
X5377Y-4600D01*
X5372Y-4590D01*
X5368Y-4579D01*
X5364Y-4570D01*
X5361Y-4560D01*
X5359Y-4551D01*
X5358Y-4542D01*
X5357Y-4534D01*
X5356Y-4528D01*
X5356Y-4522D01*
Y-4518D01*
Y-4515D01*
Y-4515D01*
X5356Y-4501D01*
X5357Y-4487D01*
X5360Y-4475D01*
X5363Y-4463D01*
X5367Y-4452D01*
X5371Y-4442D01*
X5375Y-4433D01*
X5380Y-4425D01*
X5384Y-4417D01*
X5389Y-4411D01*
X5393Y-4406D01*
X5396Y-4401D01*
X5399Y-4397D01*
X5402Y-4394D01*
X5403Y-4393D01*
X5404Y-4393D01*
X5413Y-4385D01*
X5424Y-4377D01*
X5434Y-4372D01*
X5445Y-4366D01*
X5456Y-4362D01*
X5467Y-4358D01*
X5478Y-4354D01*
X5488Y-4353D01*
X5498Y-4351D01*
X5506Y-4349D01*
X5514Y-4348D01*
X5522Y-4347D01*
X5527Y-4347D01*
X5535D01*
X5546Y-4347D01*
X5551D01*
X5555Y-4348D01*
X5559Y-4349D01*
X5562D01*
X5563Y-4349D01*
X5564D01*
X5575Y-4352D01*
X5580Y-4353D01*
X5584Y-4354D01*
X5588Y-4355D01*
X5590Y-4356D01*
X5592Y-4357D01*
X5593D01*
Y-4236D01*
X5392D01*
Y-4180D01*
X5654D01*
Y-4428D01*
D02*
G37*
G36*
X2971Y-4171D02*
X2982Y-4173D01*
X2991Y-4173D01*
X3000Y-4175D01*
X3006Y-4176D01*
X3008D01*
X3010Y-4177D01*
X3012D01*
X3037Y-4181D01*
X3048Y-4184D01*
X3060Y-4187D01*
X3069Y-4189D01*
X3077Y-4190D01*
X3079Y-4191D01*
X3081Y-4192D01*
X3083Y-4192D01*
X3083D01*
Y-4251D01*
X3069Y-4247D01*
X3056Y-4244D01*
X3044Y-4240D01*
X3035Y-4238D01*
X3026Y-4236D01*
X3020Y-4234D01*
X3016Y-4233D01*
X3014D01*
X3002Y-4231D01*
X2992Y-4230D01*
X2981Y-4229D01*
X2973Y-4228D01*
X2966Y-4227D01*
X2955D01*
X2938Y-4228D01*
X2922Y-4230D01*
X2909Y-4234D01*
X2898Y-4238D01*
X2889Y-4242D01*
X2883Y-4245D01*
X2879Y-4248D01*
X2878Y-4248D01*
X2869Y-4257D01*
X2862Y-4266D01*
X2857Y-4275D01*
X2854Y-4285D01*
X2852Y-4293D01*
X2852Y-4300D01*
X2851Y-4303D01*
Y-4304D01*
Y-4305D01*
Y-4306D01*
X2852Y-4319D01*
X2855Y-4330D01*
X2859Y-4340D01*
X2864Y-4348D01*
X2869Y-4354D01*
X2873Y-4358D01*
X2876Y-4362D01*
X2877Y-4362D01*
X2888Y-4369D01*
X2900Y-4374D01*
X2913Y-4377D01*
X2924Y-4379D01*
X2936Y-4381D01*
X2940Y-4381D01*
X2945D01*
X2948Y-4382D01*
X3012D01*
Y-4437D01*
X2955D01*
X2936Y-4438D01*
X2919Y-4441D01*
X2904Y-4445D01*
X2892Y-4450D01*
X2887Y-4452D01*
X2882Y-4454D01*
X2878Y-4456D01*
X2876Y-4458D01*
X2873Y-4459D01*
X2871Y-4461D01*
X2871Y-4462D01*
X2870D01*
X2865Y-4467D01*
X2859Y-4472D01*
X2852Y-4483D01*
X2846Y-4494D01*
X2843Y-4505D01*
X2840Y-4515D01*
X2840Y-4522D01*
X2839Y-4526D01*
Y-4528D01*
Y-4529D01*
Y-4530D01*
X2840Y-4538D01*
X2840Y-4546D01*
X2844Y-4561D01*
X2850Y-4573D01*
X2856Y-4583D01*
X2862Y-4591D01*
X2867Y-4597D01*
X2871Y-4600D01*
X2872Y-4602D01*
X2873D01*
X2879Y-4606D01*
X2886Y-4610D01*
X2901Y-4616D01*
X2917Y-4620D01*
X2933Y-4623D01*
X2940Y-4624D01*
X2947Y-4625D01*
X2953Y-4625D01*
X2958D01*
X2962Y-4626D01*
X2968D01*
X2981Y-4625D01*
X2994Y-4625D01*
X3006Y-4623D01*
X3016Y-4622D01*
X3025Y-4621D01*
X3031Y-4620D01*
X3034Y-4619D01*
X3036Y-4618D01*
X3037D01*
X3049Y-4615D01*
X3060Y-4611D01*
X3071Y-4607D01*
X3080Y-4603D01*
X3087Y-4600D01*
X3093Y-4597D01*
X3096Y-4595D01*
X3098Y-4594D01*
Y-4658D01*
X3084Y-4662D01*
X3073Y-4666D01*
X3061Y-4669D01*
X3051Y-4671D01*
X3042Y-4673D01*
X3036Y-4675D01*
X3033Y-4675D01*
X3031Y-4676D01*
X3030D01*
X3018Y-4678D01*
X3006Y-4680D01*
X2995Y-4681D01*
X2986Y-4682D01*
X2978D01*
X2972Y-4682D01*
X2966D01*
X2949Y-4682D01*
X2934Y-4681D01*
X2919Y-4679D01*
X2905Y-4677D01*
X2892Y-4673D01*
X2880Y-4670D01*
X2870Y-4667D01*
X2860Y-4663D01*
X2852Y-4659D01*
X2844Y-4656D01*
X2838Y-4652D01*
X2833Y-4649D01*
X2829Y-4647D01*
X2826Y-4645D01*
X2824Y-4644D01*
X2823Y-4643D01*
X2814Y-4635D01*
X2807Y-4627D01*
X2800Y-4618D01*
X2794Y-4608D01*
X2789Y-4599D01*
X2785Y-4589D01*
X2782Y-4580D01*
X2779Y-4572D01*
X2777Y-4563D01*
X2775Y-4555D01*
X2774Y-4548D01*
X2774Y-4541D01*
X2773Y-4537D01*
Y-4533D01*
Y-4530D01*
Y-4530D01*
X2774Y-4513D01*
X2777Y-4498D01*
X2781Y-4484D01*
X2786Y-4472D01*
X2791Y-4463D01*
X2796Y-4456D01*
X2797Y-4454D01*
X2798Y-4452D01*
X2800Y-4451D01*
Y-4450D01*
X2811Y-4439D01*
X2823Y-4430D01*
X2835Y-4422D01*
X2847Y-4417D01*
X2858Y-4412D01*
X2863Y-4411D01*
X2867Y-4410D01*
X2870Y-4409D01*
X2873Y-4408D01*
X2874Y-4408D01*
X2875D01*
X2859Y-4403D01*
X2846Y-4396D01*
X2835Y-4391D01*
X2825Y-4384D01*
X2817Y-4377D01*
X2812Y-4373D01*
X2809Y-4370D01*
X2808Y-4368D01*
X2800Y-4357D01*
X2794Y-4345D01*
X2790Y-4334D01*
X2787Y-4323D01*
X2785Y-4314D01*
X2785Y-4306D01*
X2784Y-4303D01*
Y-4301D01*
Y-4300D01*
Y-4299D01*
X2785Y-4289D01*
X2786Y-4278D01*
X2788Y-4269D01*
X2791Y-4260D01*
X2795Y-4251D01*
X2798Y-4244D01*
X2802Y-4236D01*
X2806Y-4230D01*
X2810Y-4225D01*
X2814Y-4219D01*
X2818Y-4215D01*
X2821Y-4212D01*
X2825Y-4209D01*
X2827Y-4207D01*
X2828Y-4206D01*
X2829Y-4206D01*
X2837Y-4200D01*
X2846Y-4194D01*
X2856Y-4189D01*
X2866Y-4185D01*
X2886Y-4179D01*
X2905Y-4175D01*
X2914Y-4173D01*
X2922Y-4173D01*
X2930Y-4172D01*
X2936Y-4171D01*
X2941Y-4171D01*
X2949D01*
X2971Y-4171D01*
D02*
G37*
G36*
X2131Y-3554D02*
X2144Y-3555D01*
X2157Y-3558D01*
X2169Y-3561D01*
X2181Y-3565D01*
X2190Y-3570D01*
X2200Y-3574D01*
X2208Y-3579D01*
X2216Y-3584D01*
X2222Y-3589D01*
X2228Y-3593D01*
X2232Y-3597D01*
X2236Y-3601D01*
X2239Y-3603D01*
X2240Y-3605D01*
X2241Y-3605D01*
X2249Y-3615D01*
X2256Y-3626D01*
X2262Y-3637D01*
X2267Y-3649D01*
X2272Y-3661D01*
X2275Y-3673D01*
X2278Y-3685D01*
X2280Y-3696D01*
X2282Y-3706D01*
X2283Y-3716D01*
X2285Y-3725D01*
X2285Y-3732D01*
X2286Y-3739D01*
Y-3744D01*
Y-3746D01*
Y-3748D01*
X2285Y-3764D01*
X2284Y-3780D01*
X2282Y-3794D01*
X2279Y-3808D01*
X2276Y-3820D01*
X2272Y-3832D01*
X2268Y-3843D01*
X2263Y-3853D01*
X2259Y-3861D01*
X2255Y-3869D01*
X2251Y-3875D01*
X2248Y-3880D01*
X2245Y-3885D01*
X2243Y-3887D01*
X2242Y-3889D01*
X2241Y-3890D01*
X2232Y-3899D01*
X2222Y-3907D01*
X2213Y-3914D01*
X2202Y-3920D01*
X2192Y-3925D01*
X2182Y-3929D01*
X2171Y-3933D01*
X2161Y-3935D01*
X2152Y-3937D01*
X2144Y-3939D01*
X2136Y-3940D01*
X2129Y-3941D01*
X2124D01*
X2119Y-3942D01*
X2116D01*
X2102Y-3941D01*
X2088Y-3940D01*
X2076Y-3937D01*
X2064Y-3934D01*
X2053Y-3930D01*
X2042Y-3925D01*
X2033Y-3921D01*
X2024Y-3915D01*
X2017Y-3911D01*
X2011Y-3906D01*
X2005Y-3902D01*
X2001Y-3898D01*
X1997Y-3895D01*
X1994Y-3892D01*
X1993Y-3891D01*
X1992Y-3890D01*
X1984Y-3880D01*
X1977Y-3869D01*
X1971Y-3858D01*
X1965Y-3846D01*
X1961Y-3834D01*
X1957Y-3822D01*
X1954Y-3811D01*
X1952Y-3799D01*
X1950Y-3789D01*
X1949Y-3779D01*
X1948Y-3770D01*
X1947Y-3763D01*
X1946Y-3756D01*
Y-3751D01*
Y-3749D01*
Y-3748D01*
X1947Y-3731D01*
X1948Y-3715D01*
X1950Y-3701D01*
X1954Y-3687D01*
X1957Y-3674D01*
X1961Y-3663D01*
X1965Y-3652D01*
X1969Y-3643D01*
X1973Y-3634D01*
X1978Y-3626D01*
X1982Y-3620D01*
X1985Y-3614D01*
X1988Y-3610D01*
X1990Y-3608D01*
X1992Y-3606D01*
X1992Y-3605D01*
X2001Y-3596D01*
X2011Y-3588D01*
X2020Y-3581D01*
X2031Y-3575D01*
X2041Y-3570D01*
X2051Y-3566D01*
X2061Y-3563D01*
X2071Y-3560D01*
X2080Y-3558D01*
X2089Y-3556D01*
X2097Y-3555D01*
X2103Y-3554D01*
X2108Y-3553D01*
X2116D01*
X2131Y-3554D01*
D02*
G37*
G36*
X827Y-4917D02*
X840Y-4919D01*
X851Y-4921D01*
X861Y-4924D01*
X870Y-4927D01*
X876Y-4930D01*
X880Y-4932D01*
X880Y-4933D01*
X881D01*
X891Y-4939D01*
X901Y-4947D01*
X909Y-4956D01*
X916Y-4963D01*
X923Y-4971D01*
X927Y-4977D01*
X930Y-4981D01*
X931Y-4982D01*
X930Y-4925D01*
X991D01*
Y-5295D01*
X930D01*
Y-5087D01*
X929Y-5068D01*
X926Y-5050D01*
X922Y-5036D01*
X916Y-5023D01*
X914Y-5018D01*
X912Y-5014D01*
X909Y-5010D01*
X907Y-5007D01*
X906Y-5004D01*
X905Y-5002D01*
X903Y-5001D01*
Y-5001D01*
X898Y-4996D01*
X892Y-4990D01*
X880Y-4982D01*
X868Y-4977D01*
X856Y-4973D01*
X846Y-4971D01*
X841Y-4970D01*
X837D01*
X834Y-4969D01*
X829D01*
X815Y-4971D01*
X804Y-4973D01*
X794Y-4977D01*
X786Y-4982D01*
X779Y-4987D01*
X775Y-4991D01*
X772Y-4994D01*
X771Y-4995D01*
X765Y-5005D01*
X760Y-5018D01*
X757Y-5031D01*
X755Y-5044D01*
X753Y-5055D01*
Y-5060D01*
X752Y-5065D01*
Y-5068D01*
Y-5071D01*
Y-5073D01*
Y-5074D01*
Y-5295D01*
X691D01*
Y-5087D01*
X690Y-5068D01*
X687Y-5050D01*
X683Y-5036D01*
X678Y-5023D01*
X676Y-5018D01*
X673Y-5014D01*
X670Y-5010D01*
X668Y-5007D01*
X667Y-5004D01*
X666Y-5002D01*
X664Y-5001D01*
Y-5001D01*
X659Y-4996D01*
X653Y-4990D01*
X641Y-4982D01*
X628Y-4977D01*
X617Y-4973D01*
X606Y-4971D01*
X602Y-4970D01*
X598D01*
X594Y-4969D01*
X590D01*
X576Y-4971D01*
X564Y-4973D01*
X554Y-4978D01*
X546Y-4982D01*
X540Y-4987D01*
X535Y-4992D01*
X533Y-4994D01*
X532Y-4996D01*
X525Y-5006D01*
X521Y-5018D01*
X518Y-5032D01*
X516Y-5044D01*
X514Y-5056D01*
Y-5060D01*
X513Y-5065D01*
Y-5068D01*
Y-5071D01*
Y-5073D01*
Y-5074D01*
Y-5295D01*
X452D01*
Y-5072D01*
X453Y-5058D01*
X453Y-5045D01*
X455Y-5033D01*
X457Y-5022D01*
X459Y-5012D01*
X462Y-5002D01*
X464Y-4994D01*
X468Y-4986D01*
X470Y-4979D01*
X474Y-4973D01*
X476Y-4969D01*
X478Y-4964D01*
X481Y-4961D01*
X482Y-4959D01*
X483Y-4957D01*
X483Y-4957D01*
X489Y-4950D01*
X497Y-4944D01*
X503Y-4938D01*
X510Y-4933D01*
X518Y-4929D01*
X525Y-4926D01*
X540Y-4921D01*
X553Y-4918D01*
X558Y-4917D01*
X563Y-4917D01*
X567Y-4916D01*
X573D01*
X588Y-4917D01*
X602Y-4919D01*
X615Y-4922D01*
X626Y-4926D01*
X635Y-4929D01*
X642Y-4933D01*
X644Y-4934D01*
X646Y-4935D01*
X647Y-4936D01*
X647D01*
X659Y-4944D01*
X669Y-4954D01*
X678Y-4963D01*
X686Y-4973D01*
X693Y-4982D01*
X698Y-4990D01*
X699Y-4992D01*
X701Y-4994D01*
X702Y-4996D01*
Y-4996D01*
X707Y-4982D01*
X714Y-4971D01*
X721Y-4961D01*
X727Y-4952D01*
X734Y-4946D01*
X739Y-4941D01*
X743Y-4938D01*
X743Y-4937D01*
X744D01*
X755Y-4930D01*
X766Y-4925D01*
X778Y-4921D01*
X788Y-4919D01*
X798Y-4917D01*
X806Y-4916D01*
X812D01*
X827Y-4917D01*
D02*
G37*
G36*
X3274D02*
X3287Y-4919D01*
X3299Y-4921D01*
X3309Y-4924D01*
X3317Y-4927D01*
X3323Y-4930D01*
X3327Y-4932D01*
X3328Y-4933D01*
X3329D01*
X3339Y-4939D01*
X3348Y-4947D01*
X3357Y-4956D01*
X3364Y-4963D01*
X3370Y-4971D01*
X3374Y-4977D01*
X3378Y-4981D01*
X3378Y-4982D01*
X3378Y-4925D01*
X3439D01*
Y-5295D01*
X3378D01*
Y-5087D01*
X3376Y-5068D01*
X3374Y-5050D01*
X3369Y-5036D01*
X3364Y-5023D01*
X3362Y-5018D01*
X3359Y-5014D01*
X3357Y-5010D01*
X3355Y-5007D01*
X3353Y-5004D01*
X3352Y-5002D01*
X3351Y-5001D01*
Y-5001D01*
X3346Y-4996D01*
X3340Y-4990D01*
X3328Y-4982D01*
X3315Y-4977D01*
X3304Y-4973D01*
X3293Y-4971D01*
X3288Y-4970D01*
X3285D01*
X3281Y-4969D01*
X3277D01*
X3263Y-4971D01*
X3251Y-4973D01*
X3241Y-4977D01*
X3233Y-4982D01*
X3227Y-4987D01*
X3222Y-4991D01*
X3220Y-4994D01*
X3219Y-4995D01*
X3212Y-5005D01*
X3208Y-5018D01*
X3205Y-5031D01*
X3203Y-5044D01*
X3201Y-5055D01*
Y-5060D01*
X3200Y-5065D01*
Y-5068D01*
Y-5071D01*
Y-5073D01*
Y-5074D01*
Y-5295D01*
X3139D01*
Y-5087D01*
X3138Y-5068D01*
X3135Y-5050D01*
X3130Y-5036D01*
X3125Y-5023D01*
X3123Y-5018D01*
X3121Y-5014D01*
X3118Y-5010D01*
X3116Y-5007D01*
X3115Y-5004D01*
X3113Y-5002D01*
X3112Y-5001D01*
Y-5001D01*
X3107Y-4996D01*
X3101Y-4990D01*
X3088Y-4982D01*
X3076Y-4977D01*
X3064Y-4973D01*
X3054Y-4971D01*
X3049Y-4970D01*
X3045D01*
X3042Y-4969D01*
X3037D01*
X3023Y-4971D01*
X3012Y-4973D01*
X3002Y-4978D01*
X2994Y-4982D01*
X2987Y-4987D01*
X2983Y-4992D01*
X2980Y-4994D01*
X2979Y-4996D01*
X2973Y-5006D01*
X2968Y-5018D01*
X2965Y-5032D01*
X2963Y-5044D01*
X2961Y-5056D01*
Y-5060D01*
X2960Y-5065D01*
Y-5068D01*
Y-5071D01*
Y-5073D01*
Y-5074D01*
Y-5295D01*
X2899D01*
Y-5072D01*
X2900Y-5058D01*
X2901Y-5045D01*
X2902Y-5033D01*
X2904Y-5022D01*
X2907Y-5012D01*
X2909Y-5002D01*
X2912Y-4994D01*
X2915Y-4986D01*
X2918Y-4979D01*
X2921Y-4973D01*
X2924Y-4969D01*
X2926Y-4964D01*
X2928Y-4961D01*
X2930Y-4959D01*
X2930Y-4957D01*
X2931Y-4957D01*
X2937Y-4950D01*
X2944Y-4944D01*
X2951Y-4938D01*
X2958Y-4933D01*
X2966Y-4929D01*
X2973Y-4926D01*
X2987Y-4921D01*
X3000Y-4918D01*
X3006Y-4917D01*
X3010Y-4917D01*
X3015Y-4916D01*
X3020D01*
X3036Y-4917D01*
X3050Y-4919D01*
X3063Y-4922D01*
X3073Y-4926D01*
X3083Y-4929D01*
X3089Y-4933D01*
X3092Y-4934D01*
X3094Y-4935D01*
X3094Y-4936D01*
X3095D01*
X3106Y-4944D01*
X3117Y-4954D01*
X3126Y-4963D01*
X3134Y-4973D01*
X3140Y-4982D01*
X3145Y-4990D01*
X3147Y-4992D01*
X3148Y-4994D01*
X3149Y-4996D01*
Y-4996D01*
X3155Y-4982D01*
X3161Y-4971D01*
X3168Y-4961D01*
X3175Y-4952D01*
X3182Y-4946D01*
X3187Y-4941D01*
X3190Y-4938D01*
X3191Y-4937D01*
X3191D01*
X3203Y-4930D01*
X3214Y-4925D01*
X3225Y-4921D01*
X3236Y-4919D01*
X3245Y-4917D01*
X3253Y-4916D01*
X3260D01*
X3274Y-4917D01*
D02*
G37*
G36*
X6439Y-5101D02*
X6582Y-5295D01*
X6511D01*
X6403Y-5150D01*
X6295Y-5295D01*
X6224D01*
X6364Y-5105D01*
X6231Y-4925D01*
X6302D01*
X6400Y-5057D01*
X6498Y-4925D01*
X6570D01*
X6439Y-5101D01*
D02*
G37*
G36*
X2671Y-4917D02*
X2681Y-4918D01*
X2690Y-4919D01*
X2698Y-4921D01*
X2705Y-4921D01*
X2709Y-4923D01*
X2710D01*
X2734Y-4929D01*
X2744Y-4932D01*
X2754Y-4935D01*
X2762Y-4938D01*
X2769Y-4940D01*
X2772Y-4941D01*
X2774Y-4942D01*
X2774Y-4942D01*
X2775D01*
Y-4998D01*
X2764Y-4993D01*
X2754Y-4988D01*
X2745Y-4984D01*
X2735Y-4981D01*
X2728Y-4979D01*
X2722Y-4977D01*
X2718Y-4976D01*
X2717D01*
X2706Y-4973D01*
X2695Y-4971D01*
X2684Y-4970D01*
X2675Y-4969D01*
X2667D01*
X2661Y-4968D01*
X2655D01*
X2638Y-4969D01*
X2622Y-4971D01*
X2608Y-4975D01*
X2598Y-4979D01*
X2589Y-4984D01*
X2583Y-4987D01*
X2579Y-4990D01*
X2577Y-4991D01*
X2568Y-5000D01*
X2562Y-5011D01*
X2556Y-5022D01*
X2553Y-5032D01*
X2551Y-5041D01*
X2550Y-5049D01*
X2550Y-5052D01*
Y-5054D01*
Y-5055D01*
Y-5056D01*
Y-5062D01*
X2636D01*
X2651Y-5062D01*
X2665Y-5063D01*
X2678Y-5064D01*
X2690Y-5067D01*
X2701Y-5069D01*
X2711Y-5072D01*
X2720Y-5075D01*
X2728Y-5078D01*
X2735Y-5081D01*
X2742Y-5083D01*
X2747Y-5087D01*
X2752Y-5089D01*
X2755Y-5091D01*
X2758Y-5093D01*
X2759Y-5093D01*
X2760Y-5094D01*
X2767Y-5100D01*
X2774Y-5107D01*
X2779Y-5114D01*
X2784Y-5122D01*
X2788Y-5129D01*
X2791Y-5137D01*
X2796Y-5152D01*
X2800Y-5166D01*
X2800Y-5172D01*
X2801Y-5177D01*
X2802Y-5182D01*
Y-5185D01*
Y-5187D01*
Y-5188D01*
X2801Y-5198D01*
X2800Y-5207D01*
X2796Y-5223D01*
X2791Y-5238D01*
X2785Y-5250D01*
X2779Y-5260D01*
X2776Y-5264D01*
X2774Y-5267D01*
X2772Y-5270D01*
X2770Y-5272D01*
X2769Y-5272D01*
X2768Y-5273D01*
X2762Y-5278D01*
X2754Y-5284D01*
X2740Y-5291D01*
X2725Y-5297D01*
X2711Y-5301D01*
X2697Y-5303D01*
X2692Y-5304D01*
X2687D01*
X2683Y-5305D01*
X2678D01*
X2661Y-5304D01*
X2647Y-5302D01*
X2634Y-5299D01*
X2623Y-5297D01*
X2613Y-5294D01*
X2607Y-5291D01*
X2605Y-5290D01*
X2603Y-5289D01*
X2602Y-5289D01*
X2602D01*
X2591Y-5282D01*
X2581Y-5274D01*
X2571Y-5266D01*
X2564Y-5258D01*
X2558Y-5250D01*
X2554Y-5244D01*
X2550Y-5240D01*
X2550Y-5240D01*
Y-5295D01*
X2489D01*
Y-5084D01*
X2489Y-5069D01*
X2491Y-5055D01*
X2493Y-5041D01*
X2495Y-5029D01*
X2498Y-5017D01*
X2501Y-5007D01*
X2505Y-4997D01*
X2508Y-4990D01*
X2512Y-4982D01*
X2516Y-4976D01*
X2520Y-4971D01*
X2522Y-4966D01*
X2525Y-4963D01*
X2527Y-4960D01*
X2528Y-4959D01*
X2529Y-4958D01*
X2537Y-4951D01*
X2545Y-4944D01*
X2554Y-4938D01*
X2564Y-4934D01*
X2574Y-4930D01*
X2584Y-4927D01*
X2603Y-4921D01*
X2612Y-4919D01*
X2621Y-4918D01*
X2629Y-4917D01*
X2635Y-4917D01*
X2640Y-4916D01*
X2648D01*
X2671Y-4917D01*
D02*
G37*
G36*
X5601D02*
X5611Y-4918D01*
X5621Y-4919D01*
X5628Y-4921D01*
X5635Y-4921D01*
X5639Y-4923D01*
X5640D01*
X5664Y-4929D01*
X5674Y-4932D01*
X5684Y-4935D01*
X5693Y-4938D01*
X5699Y-4940D01*
X5702Y-4941D01*
X5704Y-4942D01*
X5705Y-4942D01*
X5705D01*
Y-4998D01*
X5695Y-4993D01*
X5684Y-4988D01*
X5675Y-4984D01*
X5666Y-4981D01*
X5659Y-4979D01*
X5653Y-4977D01*
X5649Y-4976D01*
X5647D01*
X5636Y-4973D01*
X5625Y-4971D01*
X5615Y-4970D01*
X5605Y-4969D01*
X5598D01*
X5591Y-4968D01*
X5586D01*
X5568Y-4969D01*
X5552Y-4971D01*
X5539Y-4975D01*
X5528Y-4979D01*
X5519Y-4984D01*
X5513Y-4987D01*
X5509Y-4990D01*
X5508Y-4991D01*
X5499Y-5000D01*
X5492Y-5011D01*
X5487Y-5022D01*
X5483Y-5032D01*
X5481Y-5041D01*
X5481Y-5049D01*
X5480Y-5052D01*
Y-5054D01*
Y-5055D01*
Y-5056D01*
Y-5062D01*
X5566D01*
X5581Y-5062D01*
X5595Y-5063D01*
X5608Y-5064D01*
X5620Y-5067D01*
X5631Y-5069D01*
X5642Y-5072D01*
X5651Y-5075D01*
X5659Y-5078D01*
X5666Y-5081D01*
X5672Y-5083D01*
X5678Y-5087D01*
X5682Y-5089D01*
X5685Y-5091D01*
X5688Y-5093D01*
X5689Y-5093D01*
X5690Y-5094D01*
X5697Y-5100D01*
X5704Y-5107D01*
X5710Y-5114D01*
X5714Y-5122D01*
X5718Y-5129D01*
X5722Y-5137D01*
X5727Y-5152D01*
X5730Y-5166D01*
X5731Y-5172D01*
X5731Y-5177D01*
X5732Y-5182D01*
Y-5185D01*
Y-5187D01*
Y-5188D01*
X5731Y-5198D01*
X5731Y-5207D01*
X5727Y-5223D01*
X5722Y-5238D01*
X5715Y-5250D01*
X5709Y-5260D01*
X5706Y-5264D01*
X5704Y-5267D01*
X5702Y-5270D01*
X5700Y-5272D01*
X5699Y-5272D01*
X5699Y-5273D01*
X5692Y-5278D01*
X5685Y-5284D01*
X5670Y-5291D01*
X5655Y-5297D01*
X5641Y-5301D01*
X5628Y-5303D01*
X5623Y-5304D01*
X5617D01*
X5613Y-5305D01*
X5608D01*
X5592Y-5304D01*
X5577Y-5302D01*
X5564Y-5299D01*
X5553Y-5297D01*
X5544Y-5294D01*
X5537Y-5291D01*
X5535Y-5290D01*
X5533Y-5289D01*
X5533Y-5289D01*
X5532D01*
X5521Y-5282D01*
X5511Y-5274D01*
X5502Y-5266D01*
X5495Y-5258D01*
X5489Y-5250D01*
X5484Y-5244D01*
X5481Y-5240D01*
X5480Y-5240D01*
Y-5295D01*
X5419D01*
Y-5084D01*
X5420Y-5069D01*
X5421Y-5055D01*
X5423Y-5041D01*
X5425Y-5029D01*
X5428Y-5017D01*
X5432Y-5007D01*
X5436Y-4997D01*
X5439Y-4990D01*
X5443Y-4982D01*
X5447Y-4976D01*
X5450Y-4971D01*
X5453Y-4966D01*
X5455Y-4963D01*
X5457Y-4960D01*
X5459Y-4959D01*
X5459Y-4958D01*
X5467Y-4951D01*
X5476Y-4944D01*
X5485Y-4938D01*
X5495Y-4934D01*
X5504Y-4930D01*
X5514Y-4927D01*
X5533Y-4921D01*
X5543Y-4919D01*
X5551Y-4918D01*
X5559Y-4917D01*
X5565Y-4917D01*
X5571Y-4916D01*
X5579D01*
X5601Y-4917D01*
D02*
G37*
G36*
X7448D02*
X7458Y-4918D01*
X7467Y-4919D01*
X7475Y-4921D01*
X7482Y-4921D01*
X7486Y-4923D01*
X7487D01*
X7510Y-4929D01*
X7521Y-4932D01*
X7531Y-4935D01*
X7539Y-4938D01*
X7546Y-4940D01*
X7549Y-4941D01*
X7551Y-4942D01*
X7551Y-4942D01*
X7552D01*
Y-4998D01*
X7541Y-4993D01*
X7531Y-4988D01*
X7522Y-4984D01*
X7512Y-4981D01*
X7505Y-4979D01*
X7499Y-4977D01*
X7495Y-4976D01*
X7494D01*
X7483Y-4973D01*
X7472Y-4971D01*
X7461Y-4970D01*
X7452Y-4969D01*
X7444D01*
X7438Y-4968D01*
X7432D01*
X7415Y-4969D01*
X7399Y-4971D01*
X7385Y-4975D01*
X7375Y-4979D01*
X7366Y-4984D01*
X7360Y-4987D01*
X7356Y-4990D01*
X7354Y-4991D01*
X7345Y-5000D01*
X7339Y-5011D01*
X7333Y-5022D01*
X7330Y-5032D01*
X7328Y-5041D01*
X7327Y-5049D01*
X7327Y-5052D01*
Y-5054D01*
Y-5055D01*
Y-5056D01*
Y-5062D01*
X7413D01*
X7428Y-5062D01*
X7442Y-5063D01*
X7455Y-5064D01*
X7467Y-5067D01*
X7478Y-5069D01*
X7488Y-5072D01*
X7497Y-5075D01*
X7505Y-5078D01*
X7512Y-5081D01*
X7519Y-5083D01*
X7524Y-5087D01*
X7529Y-5089D01*
X7532Y-5091D01*
X7535Y-5093D01*
X7536Y-5093D01*
X7537Y-5094D01*
X7544Y-5100D01*
X7551Y-5107D01*
X7556Y-5114D01*
X7561Y-5122D01*
X7565Y-5129D01*
X7568Y-5137D01*
X7573Y-5152D01*
X7577Y-5166D01*
X7577Y-5172D01*
X7578Y-5177D01*
X7579Y-5182D01*
Y-5185D01*
Y-5187D01*
Y-5188D01*
X7578Y-5198D01*
X7577Y-5207D01*
X7573Y-5223D01*
X7568Y-5238D01*
X7562Y-5250D01*
X7556Y-5260D01*
X7553Y-5264D01*
X7551Y-5267D01*
X7549Y-5270D01*
X7547Y-5272D01*
X7546Y-5272D01*
X7545Y-5273D01*
X7539Y-5278D01*
X7531Y-5284D01*
X7517Y-5291D01*
X7502Y-5297D01*
X7488Y-5301D01*
X7474Y-5303D01*
X7469Y-5304D01*
X7464D01*
X7460Y-5305D01*
X7455D01*
X7438Y-5304D01*
X7424Y-5302D01*
X7411Y-5299D01*
X7400Y-5297D01*
X7390Y-5294D01*
X7384Y-5291D01*
X7382Y-5290D01*
X7380Y-5289D01*
X7379Y-5289D01*
X7379D01*
X7367Y-5282D01*
X7358Y-5274D01*
X7348Y-5266D01*
X7341Y-5258D01*
X7335Y-5250D01*
X7331Y-5244D01*
X7327Y-5240D01*
X7327Y-5240D01*
Y-5295D01*
X7266D01*
Y-5084D01*
X7266Y-5069D01*
X7268Y-5055D01*
X7270Y-5041D01*
X7272Y-5029D01*
X7275Y-5017D01*
X7278Y-5007D01*
X7282Y-4997D01*
X7285Y-4990D01*
X7289Y-4982D01*
X7293Y-4976D01*
X7297Y-4971D01*
X7299Y-4966D01*
X7302Y-4963D01*
X7304Y-4960D01*
X7305Y-4959D01*
X7306Y-4958D01*
X7314Y-4951D01*
X7322Y-4944D01*
X7331Y-4938D01*
X7341Y-4934D01*
X7351Y-4930D01*
X7361Y-4927D01*
X7380Y-4921D01*
X7389Y-4919D01*
X7398Y-4918D01*
X7406Y-4917D01*
X7412Y-4917D01*
X7417Y-4916D01*
X7425D01*
X7448Y-4917D01*
D02*
G37*
G36*
X3754Y-4917D02*
X3766Y-4918D01*
X3777Y-4921D01*
X3788Y-4924D01*
X3798Y-4929D01*
X3807Y-4933D01*
X3815Y-4938D01*
X3822Y-4942D01*
X3829Y-4947D01*
X3835Y-4952D01*
X3840Y-4956D01*
X3843Y-4960D01*
X3847Y-4964D01*
X3849Y-4967D01*
X3851Y-4968D01*
X3851Y-4969D01*
X3859Y-4978D01*
X3865Y-4990D01*
X3870Y-5001D01*
X3875Y-5012D01*
X3879Y-5023D01*
X3883Y-5035D01*
X3887Y-5057D01*
X3889Y-5066D01*
X3891Y-5076D01*
X3891Y-5084D01*
X3892Y-5091D01*
X3893Y-5097D01*
Y-5102D01*
Y-5104D01*
Y-5106D01*
X3892Y-5121D01*
X3891Y-5136D01*
X3889Y-5150D01*
X3886Y-5163D01*
X3883Y-5175D01*
X3880Y-5186D01*
X3876Y-5197D01*
X3872Y-5206D01*
X3868Y-5215D01*
X3864Y-5222D01*
X3861Y-5228D01*
X3858Y-5234D01*
X3855Y-5238D01*
X3853Y-5240D01*
X3852Y-5242D01*
X3851Y-5243D01*
X3843Y-5252D01*
X3835Y-5260D01*
X3826Y-5267D01*
X3817Y-5273D01*
X3807Y-5278D01*
X3798Y-5282D01*
X3790Y-5285D01*
X3781Y-5288D01*
X3773Y-5290D01*
X3765Y-5292D01*
X3759Y-5293D01*
X3753Y-5294D01*
X3748D01*
X3745Y-5295D01*
X3742D01*
X3727Y-5294D01*
X3714Y-5292D01*
X3701Y-5289D01*
X3691Y-5287D01*
X3683Y-5284D01*
X3677Y-5282D01*
X3673Y-5280D01*
X3672Y-5279D01*
X3661Y-5272D01*
X3651Y-5264D01*
X3643Y-5257D01*
X3636Y-5249D01*
X3630Y-5242D01*
X3626Y-5236D01*
X3623Y-5232D01*
X3622Y-5231D01*
Y-5260D01*
Y-5271D01*
X3624Y-5282D01*
X3625Y-5291D01*
X3627Y-5301D01*
X3630Y-5309D01*
X3632Y-5317D01*
X3635Y-5324D01*
X3637Y-5330D01*
X3640Y-5335D01*
X3643Y-5340D01*
X3645Y-5344D01*
X3648Y-5347D01*
X3650Y-5350D01*
X3651Y-5352D01*
X3652Y-5352D01*
X3653Y-5353D01*
X3658Y-5358D01*
X3665Y-5364D01*
X3679Y-5371D01*
X3694Y-5377D01*
X3708Y-5381D01*
X3721Y-5383D01*
X3727Y-5384D01*
X3733D01*
X3737Y-5385D01*
X3742D01*
X3752Y-5384D01*
X3762Y-5383D01*
X3771Y-5382D01*
X3779Y-5381D01*
X3786Y-5379D01*
X3791Y-5379D01*
X3794Y-5377D01*
X3796D01*
X3805Y-5375D01*
X3815Y-5371D01*
X3824Y-5367D01*
X3832Y-5364D01*
X3838Y-5361D01*
X3843Y-5359D01*
X3847Y-5357D01*
X3848Y-5356D01*
Y-5415D01*
X3828Y-5422D01*
X3819Y-5425D01*
X3811Y-5427D01*
X3803Y-5428D01*
X3798Y-5429D01*
X3794Y-5430D01*
X3793D01*
X3771Y-5433D01*
X3761Y-5434D01*
X3752Y-5434D01*
X3744Y-5435D01*
X3732D01*
X3716Y-5434D01*
X3702Y-5433D01*
X3688Y-5431D01*
X3676Y-5428D01*
X3664Y-5425D01*
X3653Y-5421D01*
X3643Y-5416D01*
X3635Y-5412D01*
X3628Y-5408D01*
X3621Y-5404D01*
X3616Y-5400D01*
X3611Y-5396D01*
X3608Y-5393D01*
X3605Y-5391D01*
X3604Y-5390D01*
X3603Y-5389D01*
X3596Y-5380D01*
X3590Y-5370D01*
X3584Y-5359D01*
X3579Y-5348D01*
X3575Y-5337D01*
X3572Y-5325D01*
X3567Y-5302D01*
X3565Y-5291D01*
X3563Y-5282D01*
X3563Y-5272D01*
X3562Y-5264D01*
X3561Y-5259D01*
Y-5253D01*
Y-5251D01*
Y-5249D01*
Y-4925D01*
X3622D01*
Y-4981D01*
X3630Y-4970D01*
X3638Y-4960D01*
X3647Y-4952D01*
X3655Y-4945D01*
X3661Y-4939D01*
X3666Y-4936D01*
X3670Y-4933D01*
X3671Y-4933D01*
X3672D01*
X3683Y-4927D01*
X3695Y-4923D01*
X3706Y-4920D01*
X3717Y-4918D01*
X3727Y-4917D01*
X3735Y-4916D01*
X3742D01*
X3754Y-4917D01*
D02*
G37*
G36*
X3377Y-4171D02*
X3390Y-4172D01*
X3402Y-4174D01*
X3413Y-4176D01*
X3423Y-4179D01*
X3433Y-4182D01*
X3441Y-4185D01*
X3449Y-4188D01*
X3456Y-4191D01*
X3462Y-4194D01*
X3468Y-4198D01*
X3471Y-4200D01*
X3475Y-4202D01*
X3477Y-4204D01*
X3479Y-4205D01*
X3479Y-4206D01*
X3487Y-4212D01*
X3493Y-4219D01*
X3499Y-4227D01*
X3504Y-4234D01*
X3508Y-4242D01*
X3511Y-4250D01*
X3516Y-4265D01*
X3519Y-4278D01*
X3520Y-4284D01*
X3521Y-4290D01*
X3521Y-4293D01*
Y-4297D01*
Y-4299D01*
Y-4299D01*
X3520Y-4314D01*
X3517Y-4328D01*
X3514Y-4341D01*
X3510Y-4351D01*
X3505Y-4359D01*
X3502Y-4366D01*
X3499Y-4370D01*
X3498Y-4370D01*
Y-4371D01*
X3488Y-4381D01*
X3477Y-4389D01*
X3466Y-4396D01*
X3455Y-4402D01*
X3445Y-4406D01*
X3438Y-4409D01*
X3435Y-4410D01*
X3433Y-4410D01*
X3431Y-4411D01*
X3431D01*
X3448Y-4416D01*
X3463Y-4423D01*
X3475Y-4430D01*
X3486Y-4437D01*
X3494Y-4444D01*
X3500Y-4450D01*
X3504Y-4454D01*
X3505Y-4454D01*
X3506Y-4455D01*
X3515Y-4468D01*
X3521Y-4481D01*
X3526Y-4494D01*
X3529Y-4507D01*
X3531Y-4518D01*
X3532Y-4522D01*
Y-4526D01*
X3533Y-4530D01*
Y-4532D01*
Y-4534D01*
Y-4534D01*
X3532Y-4547D01*
X3531Y-4560D01*
X3529Y-4571D01*
X3526Y-4582D01*
X3523Y-4592D01*
X3519Y-4600D01*
X3515Y-4609D01*
X3511Y-4616D01*
X3507Y-4623D01*
X3503Y-4629D01*
X3499Y-4633D01*
X3496Y-4637D01*
X3493Y-4640D01*
X3491Y-4642D01*
X3490Y-4644D01*
X3489Y-4644D01*
X3481Y-4651D01*
X3471Y-4657D01*
X3461Y-4662D01*
X3451Y-4666D01*
X3441Y-4670D01*
X3430Y-4673D01*
X3410Y-4678D01*
X3401Y-4679D01*
X3392Y-4681D01*
X3384Y-4681D01*
X3377Y-4682D01*
X3372Y-4682D01*
X3364D01*
X3349Y-4682D01*
X3335Y-4681D01*
X3322Y-4679D01*
X3309Y-4677D01*
X3298Y-4674D01*
X3288Y-4671D01*
X3279Y-4667D01*
X3271Y-4663D01*
X3263Y-4660D01*
X3256Y-4656D01*
X3251Y-4653D01*
X3246Y-4650D01*
X3243Y-4648D01*
X3241Y-4646D01*
X3239Y-4645D01*
X3239Y-4644D01*
X3231Y-4637D01*
X3224Y-4629D01*
X3218Y-4620D01*
X3213Y-4611D01*
X3209Y-4602D01*
X3205Y-4593D01*
X3200Y-4575D01*
X3199Y-4567D01*
X3197Y-4559D01*
X3196Y-4552D01*
X3195Y-4546D01*
X3195Y-4541D01*
Y-4538D01*
Y-4535D01*
Y-4534D01*
X3196Y-4517D01*
X3199Y-4502D01*
X3203Y-4488D01*
X3208Y-4477D01*
X3213Y-4468D01*
X3215Y-4464D01*
X3218Y-4461D01*
X3219Y-4458D01*
X3220Y-4456D01*
X3222Y-4456D01*
Y-4455D01*
X3233Y-4444D01*
X3245Y-4434D01*
X3257Y-4427D01*
X3269Y-4421D01*
X3280Y-4416D01*
X3285Y-4414D01*
X3288Y-4413D01*
X3292Y-4412D01*
X3294Y-4412D01*
X3296Y-4411D01*
X3296D01*
X3281Y-4406D01*
X3268Y-4400D01*
X3257Y-4394D01*
X3247Y-4387D01*
X3240Y-4381D01*
X3235Y-4375D01*
X3231Y-4372D01*
X3230Y-4371D01*
X3222Y-4359D01*
X3216Y-4347D01*
X3212Y-4335D01*
X3209Y-4324D01*
X3207Y-4314D01*
X3206Y-4310D01*
Y-4307D01*
X3206Y-4303D01*
Y-4301D01*
Y-4300D01*
Y-4299D01*
X3206Y-4288D01*
X3208Y-4278D01*
X3210Y-4269D01*
X3212Y-4259D01*
X3216Y-4251D01*
X3220Y-4244D01*
X3223Y-4236D01*
X3227Y-4230D01*
X3231Y-4225D01*
X3235Y-4219D01*
X3239Y-4215D01*
X3242Y-4212D01*
X3245Y-4209D01*
X3246Y-4207D01*
X3248Y-4206D01*
X3248Y-4206D01*
X3256Y-4200D01*
X3266Y-4194D01*
X3275Y-4189D01*
X3284Y-4185D01*
X3304Y-4179D01*
X3322Y-4175D01*
X3330Y-4173D01*
X3338Y-4173D01*
X3346Y-4172D01*
X3351Y-4171D01*
X3357Y-4171D01*
X3364D01*
X3377Y-4171D01*
D02*
G37*
G36*
X5098D02*
X5112Y-4173D01*
X5125Y-4177D01*
X5137Y-4181D01*
X5149Y-4186D01*
X5159Y-4192D01*
X5169Y-4198D01*
X5177Y-4204D01*
X5184Y-4210D01*
X5191Y-4216D01*
X5197Y-4222D01*
X5201Y-4227D01*
X5205Y-4231D01*
X5207Y-4234D01*
X5209Y-4236D01*
X5209Y-4237D01*
X5217Y-4250D01*
X5224Y-4264D01*
X5230Y-4279D01*
X5235Y-4294D01*
X5239Y-4311D01*
X5243Y-4326D01*
X5245Y-4341D01*
X5248Y-4356D01*
X5249Y-4371D01*
X5251Y-4385D01*
X5252Y-4396D01*
X5253Y-4407D01*
X5253Y-4415D01*
Y-4422D01*
Y-4424D01*
Y-4426D01*
Y-4427D01*
Y-4427D01*
X5253Y-4450D01*
X5251Y-4471D01*
X5249Y-4491D01*
X5246Y-4509D01*
X5243Y-4526D01*
X5239Y-4541D01*
X5235Y-4556D01*
X5231Y-4568D01*
X5227Y-4579D01*
X5223Y-4589D01*
X5220Y-4598D01*
X5216Y-4604D01*
X5213Y-4610D01*
X5211Y-4614D01*
X5210Y-4616D01*
X5209Y-4617D01*
X5201Y-4629D01*
X5191Y-4639D01*
X5181Y-4647D01*
X5171Y-4655D01*
X5161Y-4661D01*
X5150Y-4667D01*
X5140Y-4671D01*
X5129Y-4674D01*
X5120Y-4677D01*
X5111Y-4679D01*
X5103Y-4681D01*
X5096Y-4681D01*
X5091Y-4682D01*
X5087Y-4682D01*
X5083D01*
X5068Y-4682D01*
X5053Y-4680D01*
X5040Y-4677D01*
X5028Y-4672D01*
X5016Y-4667D01*
X5007Y-4661D01*
X4997Y-4656D01*
X4988Y-4650D01*
X4981Y-4644D01*
X4974Y-4638D01*
X4969Y-4632D01*
X4964Y-4627D01*
X4961Y-4623D01*
X4958Y-4620D01*
X4957Y-4618D01*
X4956Y-4617D01*
X4948Y-4604D01*
X4942Y-4590D01*
X4936Y-4575D01*
X4930Y-4560D01*
X4927Y-4544D01*
X4923Y-4528D01*
X4920Y-4513D01*
X4917Y-4498D01*
X4916Y-4483D01*
X4915Y-4470D01*
X4913Y-4458D01*
X4913Y-4448D01*
X4912Y-4439D01*
Y-4433D01*
Y-4431D01*
Y-4429D01*
Y-4428D01*
Y-4427D01*
X4913Y-4404D01*
X4914Y-4383D01*
X4916Y-4364D01*
X4919Y-4345D01*
X4923Y-4328D01*
X4926Y-4313D01*
X4930Y-4298D01*
X4934Y-4286D01*
X4938Y-4274D01*
X4942Y-4265D01*
X4946Y-4256D01*
X4949Y-4250D01*
X4952Y-4244D01*
X4954Y-4240D01*
X4955Y-4238D01*
X4956Y-4237D01*
X4965Y-4225D01*
X4974Y-4215D01*
X4984Y-4206D01*
X4994Y-4199D01*
X5005Y-4192D01*
X5015Y-4187D01*
X5026Y-4183D01*
X5036Y-4179D01*
X5045Y-4176D01*
X5054Y-4174D01*
X5062Y-4173D01*
X5069Y-4172D01*
X5075Y-4171D01*
X5079Y-4171D01*
X5083D01*
X5098Y-4171D01*
D02*
G37*
G36*
X5957D02*
X5971Y-4173D01*
X5985Y-4177D01*
X5996Y-4181D01*
X6008Y-4186D01*
X6018Y-4192D01*
X6028Y-4198D01*
X6036Y-4204D01*
X6044Y-4210D01*
X6050Y-4216D01*
X6056Y-4222D01*
X6061Y-4227D01*
X6064Y-4231D01*
X6067Y-4234D01*
X6068Y-4236D01*
X6069Y-4237D01*
X6076Y-4250D01*
X6083Y-4264D01*
X6089Y-4279D01*
X6094Y-4294D01*
X6098Y-4311D01*
X6102Y-4326D01*
X6105Y-4341D01*
X6107Y-4356D01*
X6109Y-4371D01*
X6110Y-4385D01*
X6111Y-4396D01*
X6112Y-4407D01*
X6113Y-4415D01*
Y-4422D01*
Y-4424D01*
Y-4426D01*
Y-4427D01*
Y-4427D01*
X6112Y-4450D01*
X6111Y-4471D01*
X6109Y-4491D01*
X6105Y-4509D01*
X6102Y-4526D01*
X6099Y-4541D01*
X6095Y-4556D01*
X6090Y-4568D01*
X6086Y-4579D01*
X6082Y-4589D01*
X6079Y-4598D01*
X6075Y-4604D01*
X6073Y-4610D01*
X6071Y-4614D01*
X6069Y-4616D01*
X6069Y-4617D01*
X6060Y-4629D01*
X6050Y-4639D01*
X6040Y-4647D01*
X6031Y-4655D01*
X6020Y-4661D01*
X6009Y-4667D01*
X5999Y-4671D01*
X5989Y-4674D01*
X5979Y-4677D01*
X5970Y-4679D01*
X5962Y-4681D01*
X5956Y-4681D01*
X5950Y-4682D01*
X5946Y-4682D01*
X5942D01*
X5927Y-4682D01*
X5912Y-4680D01*
X5899Y-4677D01*
X5888Y-4672D01*
X5876Y-4667D01*
X5866Y-4661D01*
X5856Y-4656D01*
X5848Y-4650D01*
X5840Y-4644D01*
X5834Y-4638D01*
X5828Y-4632D01*
X5823Y-4627D01*
X5820Y-4623D01*
X5817Y-4620D01*
X5816Y-4618D01*
X5815Y-4617D01*
X5808Y-4604D01*
X5801Y-4590D01*
X5795Y-4575D01*
X5790Y-4560D01*
X5786Y-4544D01*
X5782Y-4528D01*
X5779Y-4513D01*
X5777Y-4498D01*
X5775Y-4483D01*
X5774Y-4470D01*
X5773Y-4458D01*
X5772Y-4448D01*
X5771Y-4439D01*
Y-4433D01*
Y-4431D01*
Y-4429D01*
Y-4428D01*
Y-4427D01*
X5772Y-4404D01*
X5773Y-4383D01*
X5775Y-4364D01*
X5778Y-4345D01*
X5782Y-4328D01*
X5785Y-4313D01*
X5789Y-4298D01*
X5793Y-4286D01*
X5798Y-4274D01*
X5802Y-4265D01*
X5805Y-4256D01*
X5808Y-4250D01*
X5811Y-4244D01*
X5813Y-4240D01*
X5815Y-4238D01*
X5815Y-4237D01*
X5824Y-4225D01*
X5833Y-4215D01*
X5844Y-4206D01*
X5853Y-4199D01*
X5864Y-4192D01*
X5874Y-4187D01*
X5885Y-4183D01*
X5895Y-4179D01*
X5905Y-4176D01*
X5914Y-4174D01*
X5922Y-4173D01*
X5928Y-4172D01*
X5934Y-4171D01*
X5938Y-4171D01*
X5942D01*
X5957Y-4171D01*
D02*
G37*
G36*
X6026Y-4917D02*
X6038Y-4918D01*
X6049Y-4921D01*
X6059Y-4924D01*
X6069Y-4929D01*
X6078Y-4933D01*
X6086Y-4938D01*
X6094Y-4942D01*
X6101Y-4947D01*
X6107Y-4952D01*
X6111Y-4956D01*
X6115Y-4960D01*
X6118Y-4964D01*
X6121Y-4967D01*
X6122Y-4968D01*
X6123Y-4969D01*
X6130Y-4978D01*
X6137Y-4990D01*
X6142Y-5001D01*
X6147Y-5012D01*
X6151Y-5023D01*
X6155Y-5035D01*
X6159Y-5057D01*
X6161Y-5066D01*
X6162Y-5076D01*
X6163Y-5084D01*
X6164Y-5091D01*
X6164Y-5097D01*
Y-5102D01*
Y-5104D01*
Y-5106D01*
X6164Y-5121D01*
X6162Y-5136D01*
X6160Y-5150D01*
X6158Y-5163D01*
X6155Y-5175D01*
X6151Y-5186D01*
X6147Y-5197D01*
X6143Y-5206D01*
X6140Y-5215D01*
X6136Y-5222D01*
X6133Y-5228D01*
X6130Y-5234D01*
X6127Y-5238D01*
X6125Y-5240D01*
X6124Y-5242D01*
X6123Y-5243D01*
X6115Y-5252D01*
X6107Y-5260D01*
X6097Y-5267D01*
X6088Y-5273D01*
X6079Y-5278D01*
X6070Y-5282D01*
X6061Y-5285D01*
X6053Y-5288D01*
X6045Y-5290D01*
X6037Y-5292D01*
X6031Y-5293D01*
X6025Y-5294D01*
X6020D01*
X6017Y-5295D01*
X6014D01*
X5998Y-5294D01*
X5985Y-5292D01*
X5973Y-5289D01*
X5963Y-5287D01*
X5954Y-5284D01*
X5949Y-5282D01*
X5945Y-5280D01*
X5943Y-5279D01*
X5933Y-5272D01*
X5923Y-5264D01*
X5914Y-5257D01*
X5908Y-5249D01*
X5902Y-5242D01*
X5897Y-5236D01*
X5895Y-5232D01*
X5894Y-5231D01*
Y-5260D01*
Y-5271D01*
X5895Y-5282D01*
X5897Y-5291D01*
X5899Y-5301D01*
X5901Y-5309D01*
X5904Y-5317D01*
X5907Y-5324D01*
X5909Y-5330D01*
X5912Y-5335D01*
X5914Y-5340D01*
X5917Y-5344D01*
X5920Y-5347D01*
X5922Y-5350D01*
X5923Y-5352D01*
X5924Y-5352D01*
X5924Y-5353D01*
X5930Y-5358D01*
X5937Y-5364D01*
X5951Y-5371D01*
X5966Y-5377D01*
X5980Y-5381D01*
X5993Y-5383D01*
X5999Y-5384D01*
X6004D01*
X6008Y-5385D01*
X6014D01*
X6024Y-5384D01*
X6034Y-5383D01*
X6043Y-5382D01*
X6051Y-5381D01*
X6057Y-5379D01*
X6063Y-5379D01*
X6066Y-5377D01*
X6067D01*
X6077Y-5375D01*
X6086Y-5371D01*
X6095Y-5367D01*
X6103Y-5364D01*
X6110Y-5361D01*
X6115Y-5359D01*
X6118Y-5357D01*
X6120Y-5356D01*
Y-5415D01*
X6100Y-5422D01*
X6090Y-5425D01*
X6082Y-5427D01*
X6075Y-5428D01*
X6069Y-5429D01*
X6066Y-5430D01*
X6065D01*
X6043Y-5433D01*
X6033Y-5434D01*
X6023Y-5434D01*
X6015Y-5435D01*
X6004D01*
X5988Y-5434D01*
X5973Y-5433D01*
X5960Y-5431D01*
X5947Y-5428D01*
X5935Y-5425D01*
X5925Y-5421D01*
X5915Y-5416D01*
X5907Y-5412D01*
X5899Y-5408D01*
X5893Y-5404D01*
X5888Y-5400D01*
X5883Y-5396D01*
X5880Y-5393D01*
X5877Y-5391D01*
X5876Y-5390D01*
X5875Y-5389D01*
X5868Y-5380D01*
X5861Y-5370D01*
X5855Y-5359D01*
X5851Y-5348D01*
X5847Y-5337D01*
X5844Y-5325D01*
X5838Y-5302D01*
X5836Y-5291D01*
X5835Y-5282D01*
X5834Y-5272D01*
X5834Y-5264D01*
X5833Y-5259D01*
Y-5253D01*
Y-5251D01*
Y-5249D01*
Y-4925D01*
X5894D01*
Y-4981D01*
X5902Y-4970D01*
X5910Y-4960D01*
X5918Y-4952D01*
X5926Y-4945D01*
X5933Y-4939D01*
X5938Y-4936D01*
X5942Y-4933D01*
X5943Y-4933D01*
X5943D01*
X5954Y-4927D01*
X5966Y-4923D01*
X5978Y-4920D01*
X5989Y-4918D01*
X5999Y-4917D01*
X6006Y-4916D01*
X6014D01*
X6026Y-4917D01*
D02*
G37*
G36*
X2365Y-4858D02*
X2304D01*
Y-4781D01*
X2365D01*
Y-4858D01*
D02*
G37*
G36*
X2520Y-4171D02*
X2533Y-4173D01*
X2547Y-4177D01*
X2559Y-4181D01*
X2571Y-4186D01*
X2581Y-4192D01*
X2591Y-4198D01*
X2599Y-4204D01*
X2606Y-4210D01*
X2613Y-4216D01*
X2619Y-4222D01*
X2623Y-4227D01*
X2627Y-4231D01*
X2629Y-4234D01*
X2631Y-4236D01*
X2631Y-4237D01*
X2639Y-4250D01*
X2646Y-4264D01*
X2652Y-4279D01*
X2657Y-4294D01*
X2661Y-4311D01*
X2665Y-4326D01*
X2667Y-4341D01*
X2670Y-4356D01*
X2671Y-4371D01*
X2673Y-4385D01*
X2674Y-4396D01*
X2674Y-4407D01*
X2675Y-4415D01*
Y-4422D01*
Y-4424D01*
Y-4426D01*
Y-4427D01*
Y-4427D01*
X2674Y-4450D01*
X2673Y-4471D01*
X2671Y-4491D01*
X2668Y-4509D01*
X2665Y-4526D01*
X2661Y-4541D01*
X2657Y-4556D01*
X2653Y-4568D01*
X2649Y-4579D01*
X2645Y-4589D01*
X2642Y-4598D01*
X2638Y-4604D01*
X2635Y-4610D01*
X2633Y-4614D01*
X2632Y-4616D01*
X2631Y-4617D01*
X2623Y-4629D01*
X2613Y-4639D01*
X2603Y-4647D01*
X2593Y-4655D01*
X2583Y-4661D01*
X2571Y-4667D01*
X2562Y-4671D01*
X2551Y-4674D01*
X2542Y-4677D01*
X2533Y-4679D01*
X2525Y-4681D01*
X2518Y-4681D01*
X2512Y-4682D01*
X2508Y-4682D01*
X2505D01*
X2489Y-4682D01*
X2475Y-4680D01*
X2462Y-4677D01*
X2450Y-4672D01*
X2438Y-4667D01*
X2428Y-4661D01*
X2419Y-4656D01*
X2410Y-4650D01*
X2403Y-4644D01*
X2396Y-4638D01*
X2390Y-4632D01*
X2386Y-4627D01*
X2383Y-4623D01*
X2380Y-4620D01*
X2379Y-4618D01*
X2378Y-4617D01*
X2370Y-4604D01*
X2364Y-4590D01*
X2358Y-4575D01*
X2352Y-4560D01*
X2348Y-4544D01*
X2344Y-4528D01*
X2342Y-4513D01*
X2339Y-4498D01*
X2338Y-4483D01*
X2337Y-4470D01*
X2335Y-4458D01*
X2335Y-4448D01*
X2334Y-4439D01*
Y-4433D01*
Y-4431D01*
Y-4429D01*
Y-4428D01*
Y-4427D01*
X2335Y-4404D01*
X2336Y-4383D01*
X2338Y-4364D01*
X2341Y-4345D01*
X2344Y-4328D01*
X2348Y-4313D01*
X2352Y-4298D01*
X2356Y-4286D01*
X2360Y-4274D01*
X2364Y-4265D01*
X2367Y-4256D01*
X2371Y-4250D01*
X2374Y-4244D01*
X2376Y-4240D01*
X2377Y-4238D01*
X2378Y-4237D01*
X2386Y-4225D01*
X2396Y-4215D01*
X2406Y-4206D01*
X2416Y-4199D01*
X2427Y-4192D01*
X2437Y-4187D01*
X2447Y-4183D01*
X2458Y-4179D01*
X2467Y-4176D01*
X2476Y-4174D01*
X2484Y-4173D01*
X2491Y-4172D01*
X2497Y-4171D01*
X2501Y-4171D01*
X2505D01*
X2520Y-4171D01*
D02*
G37*
G36*
X2177Y-5295D02*
X2116D01*
Y-4781D01*
X2177D01*
Y-5295D01*
D02*
G37*
G36*
X1980D02*
X1910D01*
Y-5211D01*
X1980D01*
Y-5295D01*
D02*
G37*
G36*
X4801Y-4917D02*
X4812Y-4919D01*
X4822Y-4921D01*
X4831Y-4923D01*
X4841Y-4925D01*
X4848Y-4928D01*
X4855Y-4931D01*
X4862Y-4933D01*
X4867Y-4936D01*
X4872Y-4938D01*
X4875Y-4940D01*
X4879Y-4942D01*
X4881Y-4944D01*
X4882Y-4944D01*
X4883Y-4945D01*
X4889Y-4950D01*
X4894Y-4957D01*
X4900Y-4963D01*
X4904Y-4969D01*
X4910Y-4982D01*
X4915Y-4996D01*
X4917Y-5007D01*
X4918Y-5012D01*
X4919Y-5017D01*
X4919Y-5020D01*
Y-5022D01*
Y-5024D01*
Y-5025D01*
X4918Y-5040D01*
X4915Y-5054D01*
X4911Y-5066D01*
X4907Y-5075D01*
X4902Y-5083D01*
X4898Y-5088D01*
X4896Y-5091D01*
X4894Y-5093D01*
X4889Y-5097D01*
X4884Y-5101D01*
X4871Y-5108D01*
X4858Y-5115D01*
X4844Y-5120D01*
X4831Y-5123D01*
X4826Y-5125D01*
X4822Y-5127D01*
X4818Y-5127D01*
X4815Y-5128D01*
X4813Y-5129D01*
X4812D01*
X4791Y-5134D01*
X4782Y-5137D01*
X4772Y-5139D01*
X4764Y-5141D01*
X4756Y-5143D01*
X4749Y-5145D01*
X4743Y-5148D01*
X4738Y-5150D01*
X4734Y-5152D01*
X4730Y-5153D01*
X4726Y-5155D01*
X4721Y-5158D01*
X4719Y-5159D01*
X4718Y-5160D01*
X4712Y-5165D01*
X4708Y-5171D01*
X4705Y-5177D01*
X4703Y-5183D01*
X4701Y-5189D01*
X4701Y-5194D01*
Y-5196D01*
Y-5198D01*
X4702Y-5207D01*
X4705Y-5215D01*
X4708Y-5222D01*
X4713Y-5228D01*
X4717Y-5233D01*
X4721Y-5236D01*
X4723Y-5238D01*
X4724Y-5239D01*
X4734Y-5243D01*
X4745Y-5247D01*
X4755Y-5250D01*
X4766Y-5251D01*
X4776Y-5253D01*
X4784Y-5253D01*
X4791D01*
X4803Y-5253D01*
X4814Y-5252D01*
X4825Y-5251D01*
X4835Y-5249D01*
X4844Y-5247D01*
X4850Y-5246D01*
X4852Y-5245D01*
X4854D01*
X4855Y-5245D01*
X4856D01*
X4868Y-5242D01*
X4880Y-5237D01*
X4891Y-5233D01*
X4901Y-5229D01*
X4909Y-5225D01*
X4916Y-5222D01*
X4919Y-5221D01*
X4921Y-5220D01*
X4921Y-5219D01*
X4922D01*
Y-5282D01*
X4909Y-5285D01*
X4896Y-5289D01*
X4885Y-5292D01*
X4875Y-5294D01*
X4866Y-5296D01*
X4860Y-5297D01*
X4858Y-5298D01*
X4856Y-5299D01*
X4854D01*
X4843Y-5301D01*
X4831Y-5302D01*
X4820Y-5303D01*
X4811Y-5304D01*
X4803D01*
X4797Y-5305D01*
X4792D01*
X4779Y-5304D01*
X4766Y-5303D01*
X4755Y-5302D01*
X4744Y-5300D01*
X4734Y-5298D01*
X4725Y-5295D01*
X4717Y-5293D01*
X4709Y-5289D01*
X4702Y-5287D01*
X4696Y-5284D01*
X4692Y-5282D01*
X4687Y-5280D01*
X4684Y-5278D01*
X4682Y-5276D01*
X4681Y-5275D01*
X4680D01*
X4673Y-5269D01*
X4666Y-5263D01*
X4661Y-5256D01*
X4656Y-5249D01*
X4652Y-5243D01*
X4648Y-5236D01*
X4644Y-5223D01*
X4640Y-5211D01*
X4640Y-5206D01*
X4639Y-5202D01*
X4639Y-5198D01*
Y-5196D01*
Y-5194D01*
Y-5194D01*
X4640Y-5177D01*
X4643Y-5163D01*
X4647Y-5151D01*
X4652Y-5141D01*
X4658Y-5133D01*
X4661Y-5127D01*
X4665Y-5124D01*
X4666Y-5123D01*
X4671Y-5118D01*
X4678Y-5114D01*
X4692Y-5106D01*
X4707Y-5100D01*
X4722Y-5094D01*
X4736Y-5090D01*
X4742Y-5088D01*
X4747Y-5087D01*
X4752Y-5085D01*
X4755Y-5085D01*
X4757Y-5084D01*
X4758D01*
X4779Y-5079D01*
X4787Y-5077D01*
X4796Y-5075D01*
X4803Y-5072D01*
X4810Y-5070D01*
X4816Y-5068D01*
X4822Y-5066D01*
X4830Y-5063D01*
X4837Y-5060D01*
X4841Y-5058D01*
X4844Y-5057D01*
X4845Y-5056D01*
X4850Y-5051D01*
X4854Y-5046D01*
X4856Y-5040D01*
X4858Y-5035D01*
X4860Y-5030D01*
X4860Y-5026D01*
Y-5024D01*
Y-5023D01*
X4860Y-5013D01*
X4857Y-5005D01*
X4853Y-4998D01*
X4849Y-4992D01*
X4845Y-4988D01*
X4841Y-4984D01*
X4839Y-4982D01*
X4838Y-4982D01*
X4828Y-4977D01*
X4818Y-4973D01*
X4806Y-4971D01*
X4795Y-4969D01*
X4785Y-4968D01*
X4781D01*
X4777Y-4967D01*
X4759D01*
X4748Y-4969D01*
X4739Y-4969D01*
X4730Y-4971D01*
X4723Y-4972D01*
X4717Y-4973D01*
X4714Y-4974D01*
X4713D01*
X4702Y-4977D01*
X4692Y-4980D01*
X4683Y-4983D01*
X4675Y-4986D01*
X4669Y-4989D01*
X4663Y-4992D01*
X4660Y-4993D01*
X4659Y-4994D01*
Y-4936D01*
X4678Y-4930D01*
X4687Y-4927D01*
X4696Y-4925D01*
X4703Y-4923D01*
X4709Y-4922D01*
X4713Y-4921D01*
X4714D01*
X4736Y-4918D01*
X4747Y-4917D01*
X4757Y-4917D01*
X4764Y-4916D01*
X4789D01*
X4801Y-4917D01*
D02*
G37*
G36*
X870Y-3932D02*
X787D01*
X649Y-3562D01*
X712D01*
X828Y-3873D01*
X944Y-3562D01*
X1008D01*
X870Y-3932D01*
D02*
G37*
G36*
X6534Y-3554D02*
X6548Y-3555D01*
X6562Y-3559D01*
X6574Y-3562D01*
X6586Y-3566D01*
X6597Y-3570D01*
X6607Y-3575D01*
X6616Y-3580D01*
X6624Y-3586D01*
X6631Y-3590D01*
X6637Y-3595D01*
X6642Y-3599D01*
X6646Y-3602D01*
X6649Y-3605D01*
X6650Y-3607D01*
X6651Y-3607D01*
X6660Y-3618D01*
X6668Y-3629D01*
X6674Y-3640D01*
X6679Y-3652D01*
X6685Y-3664D01*
X6689Y-3676D01*
X6692Y-3688D01*
X6694Y-3699D01*
X6696Y-3710D01*
X6698Y-3720D01*
X6699Y-3729D01*
X6700Y-3736D01*
Y-3743D01*
X6700Y-3748D01*
Y-3750D01*
Y-3751D01*
X6700Y-3767D01*
X6698Y-3782D01*
X6696Y-3797D01*
X6692Y-3810D01*
X6689Y-3822D01*
X6684Y-3833D01*
X6679Y-3844D01*
X6674Y-3854D01*
X6669Y-3862D01*
X6665Y-3870D01*
X6660Y-3876D01*
X6656Y-3881D01*
X6653Y-3885D01*
X6650Y-3888D01*
X6649Y-3890D01*
X6649Y-3891D01*
X6639Y-3900D01*
X6628Y-3908D01*
X6616Y-3914D01*
X6605Y-3920D01*
X6593Y-3925D01*
X6582Y-3929D01*
X6570Y-3933D01*
X6559Y-3935D01*
X6548Y-3937D01*
X6539Y-3939D01*
X6530Y-3940D01*
X6523Y-3941D01*
X6517D01*
X6512Y-3942D01*
X6508D01*
X6495Y-3941D01*
X6483Y-3940D01*
X6471Y-3939D01*
X6461Y-3938D01*
X6452Y-3936D01*
X6445Y-3936D01*
X6443Y-3935D01*
X6441Y-3935D01*
X6439D01*
X6426Y-3931D01*
X6414Y-3928D01*
X6403Y-3925D01*
X6393Y-3921D01*
X6384Y-3918D01*
X6378Y-3915D01*
X6375Y-3915D01*
X6373Y-3914D01*
X6372Y-3914D01*
X6372D01*
Y-3856D01*
X6383Y-3862D01*
X6395Y-3868D01*
X6406Y-3872D01*
X6416Y-3875D01*
X6425Y-3878D01*
X6431Y-3881D01*
X6434Y-3881D01*
X6436D01*
X6437Y-3882D01*
X6437D01*
X6450Y-3885D01*
X6462Y-3887D01*
X6473Y-3888D01*
X6483Y-3889D01*
X6492Y-3889D01*
X6499Y-3890D01*
X6505D01*
X6516Y-3889D01*
X6526Y-3889D01*
X6536Y-3887D01*
X6545Y-3885D01*
X6553Y-3882D01*
X6561Y-3879D01*
X6568Y-3877D01*
X6574Y-3874D01*
X6580Y-3870D01*
X6586Y-3868D01*
X6589Y-3865D01*
X6593Y-3862D01*
X6596Y-3860D01*
X6598Y-3858D01*
X6599Y-3858D01*
X6599Y-3857D01*
X6605Y-3851D01*
X6610Y-3843D01*
X6619Y-3828D01*
X6626Y-3812D01*
X6631Y-3797D01*
X6632Y-3790D01*
X6633Y-3783D01*
X6635Y-3777D01*
X6635Y-3772D01*
X6636Y-3767D01*
X6637Y-3764D01*
Y-3762D01*
Y-3761D01*
X6357D01*
Y-3732D01*
X6358Y-3717D01*
X6359Y-3702D01*
X6361Y-3689D01*
X6364Y-3677D01*
X6368Y-3665D01*
X6371Y-3654D01*
X6375Y-3645D01*
X6379Y-3635D01*
X6383Y-3628D01*
X6387Y-3621D01*
X6391Y-3615D01*
X6394Y-3610D01*
X6397Y-3607D01*
X6399Y-3603D01*
X6401Y-3602D01*
X6401Y-3601D01*
X6410Y-3593D01*
X6419Y-3586D01*
X6428Y-3579D01*
X6438Y-3574D01*
X6448Y-3569D01*
X6458Y-3565D01*
X6467Y-3562D01*
X6476Y-3559D01*
X6485Y-3557D01*
X6493Y-3556D01*
X6500Y-3555D01*
X6506Y-3554D01*
X6511Y-3553D01*
X6519D01*
X6534Y-3554D01*
D02*
G37*
G36*
X3479Y-3431D02*
X3498Y-3433D01*
X3517Y-3437D01*
X3534Y-3441D01*
X3551Y-3446D01*
X3566Y-3452D01*
X3579Y-3458D01*
X3592Y-3464D01*
X3603Y-3471D01*
X3612Y-3477D01*
X3620Y-3483D01*
X3627Y-3488D01*
X3632Y-3492D01*
X3636Y-3495D01*
X3638Y-3498D01*
X3639Y-3498D01*
X3650Y-3511D01*
X3660Y-3526D01*
X3669Y-3541D01*
X3676Y-3556D01*
X3683Y-3572D01*
X3688Y-3587D01*
X3692Y-3603D01*
X3696Y-3618D01*
X3698Y-3632D01*
X3700Y-3645D01*
X3702Y-3656D01*
X3702Y-3667D01*
X3703Y-3675D01*
X3704Y-3681D01*
Y-3685D01*
Y-3686D01*
Y-3687D01*
X3703Y-3708D01*
X3701Y-3729D01*
X3698Y-3748D01*
X3693Y-3767D01*
X3689Y-3783D01*
X3683Y-3799D01*
X3677Y-3812D01*
X3671Y-3826D01*
X3665Y-3837D01*
X3659Y-3847D01*
X3654Y-3854D01*
X3649Y-3862D01*
X3645Y-3867D01*
X3641Y-3871D01*
X3639Y-3874D01*
X3639Y-3874D01*
X3626Y-3886D01*
X3612Y-3896D01*
X3597Y-3906D01*
X3583Y-3914D01*
X3568Y-3919D01*
X3553Y-3925D01*
X3538Y-3930D01*
X3523Y-3933D01*
X3510Y-3936D01*
X3498Y-3938D01*
X3487Y-3940D01*
X3477Y-3940D01*
X3469Y-3941D01*
X3463Y-3942D01*
X3458D01*
X3438Y-3941D01*
X3420Y-3940D01*
X3403Y-3937D01*
X3388Y-3935D01*
X3382Y-3934D01*
X3376Y-3933D01*
X3370Y-3931D01*
X3366Y-3930D01*
X3363Y-3929D01*
X3360Y-3929D01*
X3359Y-3928D01*
X3358D01*
X3341Y-3922D01*
X3325Y-3915D01*
X3311Y-3908D01*
X3298Y-3902D01*
X3287Y-3896D01*
X3283Y-3893D01*
X3279Y-3891D01*
X3277Y-3889D01*
X3275Y-3888D01*
X3273Y-3887D01*
X3273D01*
Y-3674D01*
X3449D01*
Y-3729D01*
X3339D01*
Y-3862D01*
X3356Y-3870D01*
X3365Y-3873D01*
X3372Y-3876D01*
X3379Y-3878D01*
X3384Y-3879D01*
X3388Y-3881D01*
X3389D01*
X3399Y-3883D01*
X3410Y-3884D01*
X3421Y-3885D01*
X3431Y-3886D01*
X3439D01*
X3447Y-3887D01*
X3452D01*
X3469Y-3886D01*
X3484Y-3885D01*
X3498Y-3882D01*
X3512Y-3879D01*
X3524Y-3875D01*
X3535Y-3871D01*
X3545Y-3866D01*
X3554Y-3862D01*
X3562Y-3857D01*
X3569Y-3853D01*
X3575Y-3849D01*
X3580Y-3845D01*
X3584Y-3841D01*
X3586Y-3839D01*
X3588Y-3837D01*
X3588Y-3837D01*
X3596Y-3827D01*
X3603Y-3816D01*
X3609Y-3804D01*
X3614Y-3792D01*
X3618Y-3780D01*
X3622Y-3767D01*
X3627Y-3743D01*
X3629Y-3731D01*
X3630Y-3721D01*
X3632Y-3711D01*
X3632Y-3703D01*
X3633Y-3696D01*
Y-3691D01*
Y-3688D01*
Y-3687D01*
X3632Y-3668D01*
X3631Y-3651D01*
X3629Y-3635D01*
X3626Y-3620D01*
X3622Y-3607D01*
X3618Y-3595D01*
X3615Y-3584D01*
X3610Y-3574D01*
X3606Y-3565D01*
X3602Y-3557D01*
X3598Y-3550D01*
X3595Y-3545D01*
X3592Y-3541D01*
X3590Y-3538D01*
X3588Y-3536D01*
X3588Y-3536D01*
X3578Y-3526D01*
X3569Y-3519D01*
X3558Y-3512D01*
X3548Y-3506D01*
X3536Y-3502D01*
X3525Y-3498D01*
X3514Y-3494D01*
X3503Y-3492D01*
X3492Y-3489D01*
X3483Y-3488D01*
X3475Y-3486D01*
X3467Y-3486D01*
X3461Y-3485D01*
X3452D01*
X3435Y-3486D01*
X3419Y-3488D01*
X3404Y-3490D01*
X3391Y-3493D01*
X3380Y-3496D01*
X3376Y-3498D01*
X3372Y-3499D01*
X3369Y-3500D01*
X3367Y-3501D01*
X3365Y-3502D01*
X3365D01*
X3349Y-3508D01*
X3334Y-3515D01*
X3321Y-3523D01*
X3309Y-3531D01*
X3300Y-3538D01*
X3296Y-3541D01*
X3292Y-3544D01*
X3290Y-3546D01*
X3287Y-3547D01*
X3287Y-3548D01*
X3286Y-3549D01*
Y-3477D01*
X3300Y-3469D01*
X3314Y-3462D01*
X3327Y-3456D01*
X3340Y-3451D01*
X3350Y-3448D01*
X3355Y-3446D01*
X3359Y-3444D01*
X3362Y-3444D01*
X3364Y-3443D01*
X3365Y-3443D01*
X3366D01*
X3382Y-3439D01*
X3399Y-3435D01*
X3414Y-3433D01*
X3428Y-3431D01*
X3434D01*
X3440Y-3431D01*
X3445D01*
X3449Y-3430D01*
X3458D01*
X3479Y-3431D01*
D02*
G37*
G36*
X2365Y-5295D02*
X2304D01*
Y-4925D01*
X2365D01*
Y-5295D01*
D02*
G37*
G36*
X1274Y-4917D02*
X1288Y-4918D01*
X1300Y-4921D01*
X1313Y-4924D01*
X1324Y-4928D01*
X1334Y-4933D01*
X1343Y-4937D01*
X1351Y-4942D01*
X1359Y-4947D01*
X1366Y-4952D01*
X1371Y-4956D01*
X1376Y-4960D01*
X1380Y-4963D01*
X1382Y-4966D01*
X1383Y-4967D01*
X1384Y-4968D01*
X1392Y-4978D01*
X1399Y-4989D01*
X1405Y-5000D01*
X1410Y-5012D01*
X1415Y-5024D01*
X1418Y-5036D01*
X1421Y-5047D01*
X1423Y-5059D01*
X1425Y-5069D01*
X1427Y-5079D01*
X1428Y-5088D01*
X1429Y-5095D01*
X1429Y-5102D01*
Y-5106D01*
Y-5109D01*
Y-5110D01*
X1429Y-5127D01*
X1427Y-5142D01*
X1425Y-5157D01*
X1422Y-5171D01*
X1419Y-5183D01*
X1415Y-5195D01*
X1411Y-5206D01*
X1406Y-5215D01*
X1402Y-5224D01*
X1399Y-5232D01*
X1395Y-5238D01*
X1391Y-5243D01*
X1388Y-5247D01*
X1386Y-5250D01*
X1385Y-5252D01*
X1384Y-5253D01*
X1375Y-5262D01*
X1366Y-5270D01*
X1356Y-5277D01*
X1345Y-5283D01*
X1335Y-5287D01*
X1325Y-5292D01*
X1315Y-5295D01*
X1305Y-5298D01*
X1296Y-5300D01*
X1287Y-5302D01*
X1279Y-5303D01*
X1273Y-5304D01*
X1267D01*
X1263Y-5305D01*
X1259D01*
X1245Y-5304D01*
X1231Y-5303D01*
X1219Y-5300D01*
X1207Y-5297D01*
X1196Y-5293D01*
X1185Y-5288D01*
X1176Y-5284D01*
X1168Y-5278D01*
X1160Y-5274D01*
X1154Y-5269D01*
X1149Y-5264D01*
X1144Y-5261D01*
X1140Y-5257D01*
X1137Y-5255D01*
X1136Y-5253D01*
X1135Y-5253D01*
X1128Y-5243D01*
X1120Y-5232D01*
X1115Y-5221D01*
X1109Y-5209D01*
X1105Y-5197D01*
X1101Y-5185D01*
X1097Y-5173D01*
X1095Y-5162D01*
X1094Y-5152D01*
X1092Y-5142D01*
X1091Y-5133D01*
X1090Y-5125D01*
X1090Y-5119D01*
Y-5114D01*
Y-5112D01*
Y-5110D01*
X1090Y-5094D01*
X1092Y-5078D01*
X1094Y-5064D01*
X1097Y-5050D01*
X1100Y-5037D01*
X1104Y-5026D01*
X1108Y-5015D01*
X1113Y-5005D01*
X1116Y-4997D01*
X1121Y-4989D01*
X1125Y-4983D01*
X1128Y-4977D01*
X1132Y-4973D01*
X1134Y-4971D01*
X1135Y-4969D01*
X1135Y-4968D01*
X1144Y-4959D01*
X1154Y-4951D01*
X1164Y-4944D01*
X1174Y-4938D01*
X1184Y-4933D01*
X1195Y-4929D01*
X1204Y-4925D01*
X1214Y-4923D01*
X1223Y-4921D01*
X1232Y-4919D01*
X1240Y-4917D01*
X1246Y-4917D01*
X1252Y-4916D01*
X1259D01*
X1274Y-4917D01*
D02*
G37*
G36*
X1568Y-3496D02*
X1507D01*
Y-3418D01*
X1568D01*
Y-3496D01*
D02*
G37*
G36*
X2877D02*
X2815D01*
Y-3418D01*
X2877D01*
Y-3496D01*
D02*
G37*
G36*
X8533Y-6181D02*
Y-5787D01*
X8926D01*
X8533Y-6181D01*
D02*
G37*
G36*
X2577Y-3554D02*
X2589Y-3555D01*
X2600Y-3558D01*
X2610Y-3561D01*
X2620Y-3566D01*
X2629Y-3570D01*
X2637Y-3575D01*
X2644Y-3580D01*
X2652Y-3584D01*
X2657Y-3589D01*
X2662Y-3593D01*
X2666Y-3597D01*
X2669Y-3601D01*
X2672Y-3604D01*
X2673Y-3605D01*
X2674Y-3606D01*
X2681Y-3616D01*
X2688Y-3627D01*
X2693Y-3638D01*
X2697Y-3649D01*
X2701Y-3660D01*
X2705Y-3672D01*
X2710Y-3694D01*
X2712Y-3704D01*
X2713Y-3713D01*
X2714Y-3721D01*
X2714Y-3729D01*
X2715Y-3734D01*
Y-3739D01*
Y-3742D01*
Y-3743D01*
X2714Y-3759D01*
X2713Y-3773D01*
X2711Y-3788D01*
X2709Y-3800D01*
X2705Y-3812D01*
X2702Y-3824D01*
X2698Y-3834D01*
X2694Y-3843D01*
X2691Y-3852D01*
X2687Y-3859D01*
X2684Y-3866D01*
X2680Y-3871D01*
X2678Y-3875D01*
X2676Y-3877D01*
X2674Y-3879D01*
X2674Y-3880D01*
X2666Y-3889D01*
X2657Y-3897D01*
X2648Y-3904D01*
X2639Y-3910D01*
X2630Y-3915D01*
X2621Y-3919D01*
X2612Y-3923D01*
X2604Y-3925D01*
X2596Y-3927D01*
X2588Y-3929D01*
X2581Y-3931D01*
X2575Y-3931D01*
X2571D01*
X2568Y-3932D01*
X2564D01*
X2549Y-3931D01*
X2536Y-3929D01*
X2524Y-3927D01*
X2514Y-3924D01*
X2505Y-3921D01*
X2499Y-3919D01*
X2495Y-3917D01*
X2494Y-3916D01*
X2484Y-3910D01*
X2474Y-3902D01*
X2465Y-3894D01*
X2459Y-3886D01*
X2453Y-3879D01*
X2448Y-3873D01*
X2446Y-3869D01*
X2445Y-3868D01*
Y-3897D01*
Y-3908D01*
X2446Y-3919D01*
X2447Y-3929D01*
X2449Y-3938D01*
X2452Y-3946D01*
X2455Y-3954D01*
X2457Y-3961D01*
X2460Y-3967D01*
X2463Y-3973D01*
X2465Y-3977D01*
X2468Y-3981D01*
X2470Y-3984D01*
X2472Y-3987D01*
X2474Y-3989D01*
X2474Y-3990D01*
X2475Y-3990D01*
X2481Y-3996D01*
X2488Y-4001D01*
X2501Y-4009D01*
X2516Y-4014D01*
X2531Y-4018D01*
X2544Y-4020D01*
X2550Y-4021D01*
X2555D01*
X2559Y-4022D01*
X2565D01*
X2575Y-4021D01*
X2585Y-4020D01*
X2594Y-4019D01*
X2602Y-4018D01*
X2608Y-4017D01*
X2613Y-4016D01*
X2617Y-4015D01*
X2618D01*
X2628Y-4012D01*
X2637Y-4009D01*
X2646Y-4005D01*
X2654Y-4001D01*
X2661Y-3998D01*
X2666Y-3996D01*
X2669Y-3994D01*
X2671Y-3994D01*
Y-4053D01*
X2651Y-4059D01*
X2641Y-4062D01*
X2633Y-4064D01*
X2626Y-4065D01*
X2620Y-4066D01*
X2617Y-4067D01*
X2615D01*
X2594Y-4070D01*
X2584Y-4071D01*
X2574Y-4072D01*
X2566Y-4072D01*
X2554D01*
X2539Y-4072D01*
X2524Y-4070D01*
X2510Y-4068D01*
X2498Y-4065D01*
X2486Y-4062D01*
X2476Y-4058D01*
X2466Y-4053D01*
X2457Y-4049D01*
X2450Y-4045D01*
X2444Y-4041D01*
X2438Y-4037D01*
X2434Y-4034D01*
X2430Y-4030D01*
X2428Y-4028D01*
X2427Y-4027D01*
X2426Y-4026D01*
X2419Y-4017D01*
X2412Y-4007D01*
X2406Y-3996D01*
X2402Y-3985D01*
X2398Y-3974D01*
X2394Y-3962D01*
X2389Y-3939D01*
X2387Y-3929D01*
X2386Y-3919D01*
X2385Y-3910D01*
X2385Y-3902D01*
X2384Y-3896D01*
Y-3891D01*
Y-3888D01*
Y-3887D01*
Y-3562D01*
X2445D01*
Y-3618D01*
X2453Y-3607D01*
X2461Y-3597D01*
X2469Y-3589D01*
X2477Y-3582D01*
X2484Y-3576D01*
X2489Y-3573D01*
X2493Y-3570D01*
X2493Y-3570D01*
X2494D01*
X2505Y-3565D01*
X2517Y-3561D01*
X2529Y-3557D01*
X2540Y-3555D01*
X2550Y-3554D01*
X2557Y-3553D01*
X2564D01*
X2577Y-3554D01*
D02*
G37*
G36*
X6158Y-3738D02*
X6302Y-3932D01*
X6231D01*
X6122Y-3787D01*
X6015Y-3932D01*
X5944D01*
X6084Y-3742D01*
X5951Y-3562D01*
X6022D01*
X6120Y-3694D01*
X6218Y-3562D01*
X6290D01*
X6158Y-3738D01*
D02*
G37*
G36*
X5750Y-3555D02*
X5760Y-3555D01*
X5769Y-3557D01*
X5777Y-3558D01*
X5784Y-3559D01*
X5788Y-3560D01*
X5789D01*
X5813Y-3566D01*
X5823Y-3569D01*
X5833Y-3572D01*
X5842Y-3575D01*
X5848Y-3578D01*
X5851Y-3578D01*
X5853Y-3579D01*
X5853Y-3580D01*
X5854D01*
Y-3635D01*
X5844Y-3630D01*
X5833Y-3626D01*
X5824Y-3622D01*
X5815Y-3618D01*
X5808Y-3616D01*
X5802Y-3614D01*
X5798Y-3613D01*
X5796D01*
X5785Y-3610D01*
X5774Y-3608D01*
X5764Y-3607D01*
X5754Y-3606D01*
X5747D01*
X5740Y-3605D01*
X5735D01*
X5717Y-3606D01*
X5701Y-3608D01*
X5687Y-3612D01*
X5677Y-3616D01*
X5668Y-3621D01*
X5662Y-3624D01*
X5658Y-3627D01*
X5657Y-3628D01*
X5647Y-3637D01*
X5641Y-3648D01*
X5636Y-3659D01*
X5632Y-3669D01*
X5630Y-3679D01*
X5630Y-3686D01*
X5629Y-3689D01*
Y-3691D01*
Y-3692D01*
Y-3693D01*
Y-3699D01*
X5715D01*
X5730Y-3700D01*
X5744Y-3700D01*
X5757Y-3702D01*
X5769Y-3704D01*
X5780Y-3706D01*
X5790Y-3709D01*
X5800Y-3712D01*
X5808Y-3715D01*
X5815Y-3718D01*
X5821Y-3721D01*
X5827Y-3724D01*
X5831Y-3726D01*
X5834Y-3728D01*
X5837Y-3730D01*
X5838Y-3731D01*
X5839Y-3731D01*
X5846Y-3737D01*
X5853Y-3744D01*
X5859Y-3751D01*
X5863Y-3759D01*
X5867Y-3767D01*
X5871Y-3774D01*
X5876Y-3790D01*
X5879Y-3803D01*
X5880Y-3809D01*
X5880Y-3814D01*
X5881Y-3819D01*
Y-3822D01*
Y-3824D01*
Y-3825D01*
X5880Y-3835D01*
X5880Y-3844D01*
X5876Y-3860D01*
X5871Y-3875D01*
X5864Y-3887D01*
X5858Y-3897D01*
X5855Y-3901D01*
X5853Y-3904D01*
X5851Y-3907D01*
X5849Y-3909D01*
X5848Y-3910D01*
X5848Y-3910D01*
X5841Y-3915D01*
X5834Y-3921D01*
X5819Y-3929D01*
X5804Y-3934D01*
X5790Y-3938D01*
X5777Y-3940D01*
X5771Y-3941D01*
X5766D01*
X5762Y-3942D01*
X5757D01*
X5741Y-3941D01*
X5726Y-3939D01*
X5713Y-3936D01*
X5702Y-3934D01*
X5693Y-3931D01*
X5686Y-3929D01*
X5684Y-3927D01*
X5682Y-3927D01*
X5682Y-3926D01*
X5681D01*
X5670Y-3919D01*
X5660Y-3912D01*
X5651Y-3903D01*
X5644Y-3895D01*
X5638Y-3887D01*
X5633Y-3881D01*
X5630Y-3877D01*
X5629Y-3877D01*
Y-3932D01*
X5568D01*
Y-3721D01*
X5569Y-3706D01*
X5570Y-3692D01*
X5572Y-3678D01*
X5574Y-3666D01*
X5577Y-3654D01*
X5581Y-3645D01*
X5584Y-3635D01*
X5588Y-3627D01*
X5592Y-3619D01*
X5596Y-3613D01*
X5599Y-3608D01*
X5602Y-3603D01*
X5604Y-3600D01*
X5606Y-3597D01*
X5607Y-3596D01*
X5608Y-3595D01*
X5616Y-3588D01*
X5624Y-3582D01*
X5634Y-3576D01*
X5644Y-3571D01*
X5653Y-3567D01*
X5663Y-3564D01*
X5682Y-3559D01*
X5691Y-3557D01*
X5700Y-3555D01*
X5708Y-3555D01*
X5714Y-3554D01*
X5720Y-3553D01*
X5727D01*
X5750Y-3555D01*
D02*
G37*
G36*
X4281Y-4819D02*
X4303Y-4822D01*
X4323Y-4826D01*
X4332Y-4828D01*
X4341Y-4830D01*
X4348Y-4832D01*
X4355Y-4834D01*
X4361Y-4836D01*
X4366Y-4837D01*
X4370Y-4839D01*
X4374Y-4840D01*
X4375Y-4841D01*
X4376D01*
X4396Y-4851D01*
X4415Y-4860D01*
X4432Y-4872D01*
X4446Y-4881D01*
X4453Y-4886D01*
X4459Y-4891D01*
X4463Y-4895D01*
X4467Y-4898D01*
X4471Y-4901D01*
X4473Y-4903D01*
X4475Y-4904D01*
X4475Y-4905D01*
X4490Y-4921D01*
X4503Y-4938D01*
X4513Y-4954D01*
X4522Y-4969D01*
X4526Y-4976D01*
X4530Y-4982D01*
X4532Y-4988D01*
X4535Y-4992D01*
X4536Y-4996D01*
X4538Y-4999D01*
X4539Y-5001D01*
Y-5001D01*
X4546Y-5022D01*
X4552Y-5042D01*
X4556Y-5061D01*
X4559Y-5079D01*
X4559Y-5087D01*
X4560Y-5094D01*
X4560Y-5100D01*
Y-5105D01*
X4561Y-5110D01*
Y-5113D01*
Y-5115D01*
Y-5116D01*
X4560Y-5139D01*
X4558Y-5160D01*
X4555Y-5180D01*
X4553Y-5189D01*
X4550Y-5198D01*
X4548Y-5205D01*
X4546Y-5212D01*
X4545Y-5218D01*
X4543Y-5223D01*
X4541Y-5227D01*
X4540Y-5230D01*
X4539Y-5232D01*
Y-5232D01*
X4530Y-5252D01*
X4520Y-5270D01*
X4509Y-5286D01*
X4499Y-5301D01*
X4494Y-5306D01*
X4490Y-5312D01*
X4486Y-5316D01*
X4482Y-5320D01*
X4479Y-5324D01*
X4477Y-5325D01*
X4476Y-5327D01*
X4475Y-5327D01*
X4459Y-5342D01*
X4442Y-5355D01*
X4427Y-5366D01*
X4412Y-5375D01*
X4405Y-5378D01*
X4398Y-5381D01*
X4393Y-5384D01*
X4389Y-5387D01*
X4385Y-5388D01*
X4382Y-5389D01*
X4380Y-5390D01*
X4379D01*
X4359Y-5398D01*
X4338Y-5403D01*
X4318Y-5407D01*
X4301Y-5409D01*
X4293Y-5410D01*
X4286Y-5411D01*
X4279Y-5411D01*
X4274D01*
X4269Y-5412D01*
X4263D01*
X4244Y-5411D01*
X4227Y-5409D01*
X4209Y-5407D01*
X4195Y-5404D01*
X4189Y-5402D01*
X4182Y-5400D01*
X4177Y-5399D01*
X4173Y-5398D01*
X4169Y-5396D01*
X4166Y-5396D01*
X4165Y-5395D01*
X4164D01*
X4147Y-5388D01*
X4129Y-5381D01*
X4114Y-5372D01*
X4101Y-5364D01*
X4095Y-5360D01*
X4090Y-5357D01*
X4086Y-5354D01*
X4082Y-5351D01*
X4078Y-5349D01*
X4076Y-5347D01*
X4075Y-5346D01*
X4074Y-5346D01*
X4104Y-5310D01*
X4117Y-5319D01*
X4130Y-5327D01*
X4143Y-5334D01*
X4155Y-5340D01*
X4165Y-5345D01*
X4169Y-5346D01*
X4173Y-5348D01*
X4176Y-5349D01*
X4178Y-5350D01*
X4179Y-5350D01*
X4180D01*
X4195Y-5356D01*
X4210Y-5359D01*
X4224Y-5362D01*
X4237Y-5364D01*
X4248Y-5365D01*
X4252D01*
X4256Y-5366D01*
X4263D01*
X4282Y-5365D01*
X4301Y-5363D01*
X4317Y-5360D01*
X4332Y-5356D01*
X4338Y-5354D01*
X4344Y-5353D01*
X4349Y-5351D01*
X4353Y-5350D01*
X4356Y-5349D01*
X4359Y-5348D01*
X4360Y-5347D01*
X4361D01*
X4377Y-5339D01*
X4393Y-5331D01*
X4406Y-5322D01*
X4418Y-5314D01*
X4428Y-5306D01*
X4432Y-5303D01*
X4435Y-5301D01*
X4438Y-5298D01*
X4440Y-5296D01*
X4440Y-5295D01*
X4441Y-5295D01*
X4454Y-5281D01*
X4465Y-5267D01*
X4475Y-5254D01*
X4482Y-5242D01*
X4488Y-5230D01*
X4491Y-5226D01*
X4493Y-5222D01*
X4494Y-5219D01*
X4496Y-5216D01*
X4496Y-5215D01*
Y-5214D01*
X4502Y-5196D01*
X4507Y-5179D01*
X4510Y-5163D01*
X4512Y-5148D01*
X4513Y-5141D01*
Y-5135D01*
X4514Y-5129D01*
X4515Y-5125D01*
Y-5121D01*
Y-5118D01*
Y-5116D01*
Y-5116D01*
X4514Y-5104D01*
X4513Y-5092D01*
X4510Y-5070D01*
X4505Y-5050D01*
X4503Y-5041D01*
X4500Y-5033D01*
X4497Y-5025D01*
X4495Y-5018D01*
X4492Y-5012D01*
X4490Y-5007D01*
X4488Y-5003D01*
X4487Y-5000D01*
X4486Y-4998D01*
Y-4997D01*
X4474Y-4978D01*
X4461Y-4960D01*
X4447Y-4945D01*
X4434Y-4933D01*
X4428Y-4927D01*
X4423Y-4923D01*
X4417Y-4918D01*
X4413Y-4915D01*
X4410Y-4912D01*
X4406Y-4910D01*
X4405Y-4910D01*
X4404Y-4909D01*
X4393Y-4902D01*
X4380Y-4895D01*
X4369Y-4889D01*
X4358Y-4885D01*
X4349Y-4881D01*
X4342Y-4879D01*
X4339Y-4878D01*
X4337Y-4877D01*
X4336Y-4877D01*
X4335D01*
X4322Y-4873D01*
X4307Y-4870D01*
X4295Y-4868D01*
X4283Y-4867D01*
X4272Y-4866D01*
X4269Y-4866D01*
X4258D01*
X4236Y-4867D01*
X4217Y-4870D01*
X4198Y-4873D01*
X4190Y-4875D01*
X4183Y-4877D01*
X4175Y-4879D01*
X4169Y-4882D01*
X4164Y-4884D01*
X4159Y-4885D01*
X4155Y-4887D01*
X4152Y-4888D01*
X4151Y-4889D01*
X4150D01*
X4133Y-4898D01*
X4116Y-4910D01*
X4102Y-4920D01*
X4089Y-4931D01*
X4080Y-4940D01*
X4076Y-4945D01*
X4072Y-4948D01*
X4070Y-4952D01*
X4068Y-4954D01*
X4067Y-4955D01*
X4067Y-4956D01*
X4059Y-4965D01*
X4053Y-4976D01*
X4047Y-4985D01*
X4043Y-4994D01*
X4040Y-5002D01*
X4037Y-5008D01*
X4036Y-5012D01*
X4035Y-5013D01*
Y-5013D01*
X4032Y-5025D01*
X4029Y-5037D01*
X4027Y-5048D01*
X4026Y-5058D01*
X4025Y-5066D01*
X4025Y-5074D01*
Y-5076D01*
Y-5078D01*
Y-5079D01*
Y-5080D01*
X4026Y-5100D01*
X4029Y-5119D01*
X4033Y-5135D01*
X4036Y-5142D01*
X4038Y-5149D01*
X4041Y-5155D01*
X4044Y-5160D01*
X4045Y-5164D01*
X4047Y-5168D01*
X4049Y-5171D01*
X4051Y-5173D01*
X4051Y-5174D01*
X4052Y-5175D01*
X4057Y-5181D01*
X4063Y-5187D01*
X4075Y-5197D01*
X4087Y-5205D01*
X4099Y-5210D01*
X4110Y-5215D01*
X4115Y-5216D01*
X4119Y-5217D01*
X4122Y-5218D01*
X4125D01*
X4126Y-5219D01*
X4127D01*
Y-4976D01*
X4175D01*
Y-5018D01*
X4183Y-5010D01*
X4190Y-5002D01*
X4198Y-4996D01*
X4205Y-4990D01*
X4211Y-4986D01*
X4215Y-4984D01*
X4219Y-4982D01*
X4220Y-4981D01*
X4230Y-4977D01*
X4240Y-4974D01*
X4250Y-4972D01*
X4259Y-4970D01*
X4267Y-4969D01*
X4274Y-4969D01*
X4280D01*
X4290Y-4969D01*
X4300Y-4971D01*
X4309Y-4973D01*
X4318Y-4975D01*
X4333Y-4982D01*
X4341Y-4986D01*
X4347Y-4990D01*
X4353Y-4994D01*
X4357Y-4997D01*
X4362Y-5001D01*
X4365Y-5004D01*
X4368Y-5007D01*
X4370Y-5009D01*
X4371Y-5010D01*
X4372Y-5011D01*
X4377Y-5018D01*
X4383Y-5027D01*
X4388Y-5036D01*
X4392Y-5045D01*
X4398Y-5062D01*
X4402Y-5080D01*
X4404Y-5087D01*
X4405Y-5095D01*
X4406Y-5101D01*
X4406Y-5106D01*
X4407Y-5111D01*
Y-5115D01*
Y-5117D01*
Y-5118D01*
X4406Y-5129D01*
X4406Y-5141D01*
X4404Y-5152D01*
X4402Y-5162D01*
X4399Y-5172D01*
X4396Y-5181D01*
X4393Y-5189D01*
X4389Y-5196D01*
X4387Y-5203D01*
X4383Y-5209D01*
X4380Y-5213D01*
X4377Y-5218D01*
X4375Y-5221D01*
X4374Y-5223D01*
X4373Y-5224D01*
X4372Y-5225D01*
X4365Y-5232D01*
X4358Y-5238D01*
X4351Y-5244D01*
X4343Y-5249D01*
X4335Y-5253D01*
X4328Y-5256D01*
X4313Y-5261D01*
X4299Y-5264D01*
X4294Y-5264D01*
X4289Y-5265D01*
X4285Y-5266D01*
X4280D01*
X4267Y-5265D01*
X4256Y-5264D01*
X4246Y-5262D01*
X4237Y-5260D01*
X4230Y-5258D01*
X4225Y-5256D01*
X4222Y-5255D01*
X4221Y-5254D01*
X4211Y-5249D01*
X4203Y-5243D01*
X4195Y-5237D01*
X4188Y-5231D01*
X4183Y-5225D01*
X4178Y-5221D01*
X4175Y-5218D01*
X4175Y-5217D01*
Y-5267D01*
X4158Y-5266D01*
X4142Y-5264D01*
X4127Y-5262D01*
X4113Y-5258D01*
X4100Y-5254D01*
X4088Y-5250D01*
X4078Y-5245D01*
X4068Y-5240D01*
X4059Y-5236D01*
X4051Y-5231D01*
X4045Y-5227D01*
X4040Y-5223D01*
X4035Y-5220D01*
X4032Y-5217D01*
X4030Y-5216D01*
X4030Y-5215D01*
X4021Y-5205D01*
X4012Y-5195D01*
X4005Y-5184D01*
X3999Y-5173D01*
X3994Y-5161D01*
X3990Y-5150D01*
X3986Y-5139D01*
X3983Y-5128D01*
X3981Y-5118D01*
X3979Y-5108D01*
X3978Y-5100D01*
X3977Y-5093D01*
Y-5087D01*
X3977Y-5082D01*
Y-5079D01*
Y-5078D01*
X3977Y-5063D01*
X3979Y-5049D01*
X3981Y-5036D01*
X3983Y-5024D01*
X3986Y-5014D01*
X3986Y-5009D01*
X3988Y-5006D01*
X3988Y-5003D01*
X3989Y-5001D01*
X3990Y-5000D01*
Y-4999D01*
X3995Y-4986D01*
X4001Y-4973D01*
X4007Y-4961D01*
X4013Y-4950D01*
X4019Y-4942D01*
X4024Y-4935D01*
X4025Y-4933D01*
X4026Y-4931D01*
X4028Y-4930D01*
Y-4929D01*
X4044Y-4910D01*
X4061Y-4894D01*
X4077Y-4880D01*
X4093Y-4868D01*
X4100Y-4864D01*
X4107Y-4859D01*
X4113Y-4856D01*
X4118Y-4853D01*
X4122Y-4851D01*
X4126Y-4849D01*
X4128Y-4847D01*
X4128D01*
X4139Y-4842D01*
X4151Y-4837D01*
X4174Y-4831D01*
X4196Y-4826D01*
X4206Y-4824D01*
X4215Y-4822D01*
X4225Y-4821D01*
X4233Y-4820D01*
X4240Y-4819D01*
X4246D01*
X4251Y-4818D01*
X4258D01*
X4281Y-4819D01*
D02*
G37*
G36*
X5279Y-3554D02*
X5293Y-3556D01*
X5304Y-3559D01*
X5314Y-3562D01*
X5322Y-3565D01*
X5329Y-3568D01*
X5333Y-3570D01*
X5333Y-3570D01*
X5334D01*
X5344Y-3577D01*
X5354Y-3585D01*
X5363Y-3593D01*
X5371Y-3601D01*
X5377Y-3608D01*
X5381Y-3614D01*
X5384Y-3618D01*
X5385Y-3619D01*
X5384Y-3562D01*
X5445D01*
Y-3932D01*
X5384D01*
Y-3724D01*
X5384Y-3714D01*
X5383Y-3705D01*
X5380Y-3687D01*
X5375Y-3673D01*
X5370Y-3660D01*
X5367Y-3655D01*
X5365Y-3651D01*
X5363Y-3647D01*
X5361Y-3644D01*
X5359Y-3641D01*
X5357Y-3639D01*
X5356Y-3639D01*
Y-3638D01*
X5351Y-3633D01*
X5345Y-3628D01*
X5332Y-3620D01*
X5319Y-3614D01*
X5307Y-3610D01*
X5296Y-3608D01*
X5291Y-3607D01*
X5287D01*
X5283Y-3607D01*
X5279D01*
X5264Y-3608D01*
X5252Y-3610D01*
X5241Y-3615D01*
X5233Y-3620D01*
X5226Y-3624D01*
X5222Y-3629D01*
X5218Y-3631D01*
X5218Y-3633D01*
X5211Y-3644D01*
X5205Y-3656D01*
X5202Y-3669D01*
X5199Y-3681D01*
X5198Y-3693D01*
X5197Y-3698D01*
X5197Y-3702D01*
Y-3706D01*
Y-3708D01*
Y-3710D01*
Y-3711D01*
Y-3932D01*
X5136D01*
Y-3709D01*
X5136Y-3695D01*
X5137Y-3682D01*
X5139Y-3669D01*
X5141Y-3658D01*
X5144Y-3648D01*
X5146Y-3639D01*
X5149Y-3629D01*
X5152Y-3622D01*
X5155Y-3615D01*
X5158Y-3609D01*
X5161Y-3604D01*
X5163Y-3600D01*
X5165Y-3597D01*
X5167Y-3595D01*
X5168Y-3593D01*
X5169Y-3593D01*
X5175Y-3586D01*
X5182Y-3580D01*
X5190Y-3574D01*
X5197Y-3570D01*
X5205Y-3566D01*
X5214Y-3563D01*
X5230Y-3558D01*
X5237Y-3557D01*
X5243Y-3555D01*
X5250Y-3555D01*
X5255Y-3554D01*
X5260Y-3553D01*
X5266D01*
X5279Y-3554D01*
D02*
G37*
G36*
X1240D02*
X1255Y-3555D01*
X1269Y-3559D01*
X1281Y-3562D01*
X1293Y-3566D01*
X1304Y-3570D01*
X1314Y-3575D01*
X1323Y-3580D01*
X1331Y-3586D01*
X1338Y-3590D01*
X1344Y-3595D01*
X1349Y-3599D01*
X1353Y-3602D01*
X1355Y-3605D01*
X1357Y-3607D01*
X1358Y-3607D01*
X1366Y-3618D01*
X1374Y-3629D01*
X1381Y-3640D01*
X1386Y-3652D01*
X1391Y-3664D01*
X1395Y-3676D01*
X1399Y-3688D01*
X1401Y-3699D01*
X1403Y-3710D01*
X1404Y-3720D01*
X1406Y-3729D01*
X1406Y-3736D01*
Y-3743D01*
X1407Y-3748D01*
Y-3750D01*
Y-3751D01*
X1406Y-3767D01*
X1405Y-3782D01*
X1402Y-3797D01*
X1399Y-3810D01*
X1395Y-3822D01*
X1391Y-3833D01*
X1386Y-3844D01*
X1381Y-3854D01*
X1376Y-3862D01*
X1372Y-3870D01*
X1367Y-3876D01*
X1363Y-3881D01*
X1360Y-3885D01*
X1357Y-3888D01*
X1356Y-3890D01*
X1355Y-3891D01*
X1345Y-3900D01*
X1334Y-3908D01*
X1323Y-3914D01*
X1311Y-3920D01*
X1299Y-3925D01*
X1288Y-3929D01*
X1277Y-3933D01*
X1265Y-3935D01*
X1255Y-3937D01*
X1246Y-3939D01*
X1237Y-3940D01*
X1229Y-3941D01*
X1223D01*
X1219Y-3942D01*
X1215D01*
X1202Y-3941D01*
X1189Y-3940D01*
X1177Y-3939D01*
X1168Y-3938D01*
X1158Y-3936D01*
X1152Y-3936D01*
X1149Y-3935D01*
X1147Y-3935D01*
X1146D01*
X1133Y-3931D01*
X1121Y-3928D01*
X1109Y-3925D01*
X1099Y-3921D01*
X1091Y-3918D01*
X1084Y-3915D01*
X1082Y-3915D01*
X1080Y-3914D01*
X1079Y-3914D01*
X1078D01*
Y-3856D01*
X1090Y-3862D01*
X1102Y-3868D01*
X1113Y-3872D01*
X1123Y-3875D01*
X1132Y-3878D01*
X1138Y-3881D01*
X1141Y-3881D01*
X1143D01*
X1143Y-3882D01*
X1144D01*
X1156Y-3885D01*
X1168Y-3887D01*
X1180Y-3888D01*
X1190Y-3889D01*
X1199Y-3889D01*
X1206Y-3890D01*
X1212D01*
X1223Y-3889D01*
X1233Y-3889D01*
X1242Y-3887D01*
X1252Y-3885D01*
X1260Y-3882D01*
X1268Y-3879D01*
X1275Y-3877D01*
X1281Y-3874D01*
X1287Y-3870D01*
X1292Y-3868D01*
X1296Y-3865D01*
X1299Y-3862D01*
X1303Y-3860D01*
X1305Y-3858D01*
X1305Y-3858D01*
X1306Y-3857D01*
X1312Y-3851D01*
X1317Y-3843D01*
X1326Y-3828D01*
X1332Y-3812D01*
X1338Y-3797D01*
X1339Y-3790D01*
X1340Y-3783D01*
X1341Y-3777D01*
X1342Y-3772D01*
X1343Y-3767D01*
X1343Y-3764D01*
Y-3762D01*
Y-3761D01*
X1064D01*
Y-3732D01*
X1065Y-3717D01*
X1066Y-3702D01*
X1068Y-3689D01*
X1071Y-3677D01*
X1074Y-3665D01*
X1078Y-3654D01*
X1082Y-3645D01*
X1086Y-3635D01*
X1090Y-3628D01*
X1094Y-3621D01*
X1097Y-3615D01*
X1101Y-3610D01*
X1104Y-3607D01*
X1106Y-3603D01*
X1107Y-3602D01*
X1108Y-3601D01*
X1116Y-3593D01*
X1126Y-3586D01*
X1135Y-3579D01*
X1145Y-3574D01*
X1155Y-3569D01*
X1164Y-3565D01*
X1174Y-3562D01*
X1183Y-3559D01*
X1191Y-3557D01*
X1200Y-3556D01*
X1207Y-3555D01*
X1213Y-3554D01*
X1218Y-3553D01*
X1225D01*
X1240Y-3554D01*
D02*
G37*
G36*
X7382Y-3932D02*
X7312D01*
X7267Y-3806D01*
X7045D01*
X6999Y-3932D01*
X6931D01*
X7119Y-3439D01*
X7194D01*
X7382Y-3932D01*
D02*
G37*
G36*
X6862D02*
X6801D01*
Y-3418D01*
X6862D01*
Y-3932D01*
D02*
G37*
G36*
X7142Y-5295D02*
X7081D01*
Y-4781D01*
X7142D01*
Y-5295D01*
D02*
G37*
G36*
X2987Y-3554D02*
X3002Y-3556D01*
X3014Y-3559D01*
X3025Y-3561D01*
X3035Y-3565D01*
X3041Y-3567D01*
X3043Y-3568D01*
X3045Y-3569D01*
X3046Y-3570D01*
X3046D01*
X3057Y-3576D01*
X3067Y-3584D01*
X3075Y-3593D01*
X3083Y-3601D01*
X3088Y-3608D01*
X3092Y-3614D01*
X3095Y-3618D01*
X3096Y-3619D01*
Y-3562D01*
X3157D01*
Y-3932D01*
X3096D01*
Y-3738D01*
X3095Y-3726D01*
X3094Y-3715D01*
X3093Y-3706D01*
X3091Y-3696D01*
X3089Y-3687D01*
X3087Y-3679D01*
X3084Y-3672D01*
X3082Y-3666D01*
X3079Y-3660D01*
X3077Y-3655D01*
X3075Y-3651D01*
X3073Y-3647D01*
X3071Y-3645D01*
X3069Y-3643D01*
X3068Y-3642D01*
Y-3641D01*
X3063Y-3635D01*
X3057Y-3630D01*
X3050Y-3626D01*
X3044Y-3622D01*
X3031Y-3616D01*
X3018Y-3612D01*
X3006Y-3610D01*
X3002Y-3609D01*
X2997Y-3608D01*
X2994Y-3608D01*
X2989D01*
X2978Y-3608D01*
X2974D01*
X2970Y-3609D01*
X2967Y-3610D01*
X2964D01*
X2963Y-3610D01*
X2962D01*
X2954Y-3613D01*
X2947Y-3616D01*
X2944Y-3617D01*
X2942Y-3618D01*
X2941Y-3619D01*
X2940D01*
X2941Y-3557D01*
X2947Y-3555D01*
X2953Y-3555D01*
X2957Y-3554D01*
X2958D01*
X2963Y-3553D01*
X2971D01*
X2987Y-3554D01*
D02*
G37*
G36*
X2877Y-3932D02*
X2815D01*
Y-3562D01*
X2877D01*
Y-3932D01*
D02*
G37*
G36*
X4446Y-3554D02*
X4461Y-3555D01*
X4475Y-3559D01*
X4487Y-3562D01*
X4499Y-3566D01*
X4510Y-3570D01*
X4520Y-3575D01*
X4529Y-3580D01*
X4537Y-3586D01*
X4544Y-3590D01*
X4550Y-3595D01*
X4555Y-3599D01*
X4559Y-3602D01*
X4561Y-3605D01*
X4563Y-3607D01*
X4564Y-3607D01*
X4572Y-3618D01*
X4580Y-3629D01*
X4587Y-3640D01*
X4592Y-3652D01*
X4597Y-3664D01*
X4601Y-3676D01*
X4604Y-3688D01*
X4607Y-3699D01*
X4609Y-3710D01*
X4610Y-3720D01*
X4612Y-3729D01*
X4612Y-3736D01*
Y-3743D01*
X4613Y-3748D01*
Y-3750D01*
Y-3751D01*
X4612Y-3767D01*
X4611Y-3782D01*
X4608Y-3797D01*
X4605Y-3810D01*
X4601Y-3822D01*
X4597Y-3833D01*
X4592Y-3844D01*
X4587Y-3854D01*
X4582Y-3862D01*
X4578Y-3870D01*
X4573Y-3876D01*
X4569Y-3881D01*
X4566Y-3885D01*
X4563Y-3888D01*
X4562Y-3890D01*
X4561Y-3891D01*
X4551Y-3900D01*
X4540Y-3908D01*
X4529Y-3914D01*
X4517Y-3920D01*
X4505Y-3925D01*
X4494Y-3929D01*
X4482Y-3933D01*
X4471Y-3935D01*
X4461Y-3937D01*
X4452Y-3939D01*
X4443Y-3940D01*
X4435Y-3941D01*
X4429D01*
X4425Y-3942D01*
X4421D01*
X4408Y-3941D01*
X4395Y-3940D01*
X4383Y-3939D01*
X4374Y-3938D01*
X4364Y-3936D01*
X4358Y-3936D01*
X4355Y-3935D01*
X4353Y-3935D01*
X4352D01*
X4339Y-3931D01*
X4327Y-3928D01*
X4315Y-3925D01*
X4305Y-3921D01*
X4297Y-3918D01*
X4290Y-3915D01*
X4288Y-3915D01*
X4286Y-3914D01*
X4285Y-3914D01*
X4284D01*
Y-3856D01*
X4296Y-3862D01*
X4308Y-3868D01*
X4319Y-3872D01*
X4329Y-3875D01*
X4337Y-3878D01*
X4344Y-3881D01*
X4347Y-3881D01*
X4349D01*
X4349Y-3882D01*
X4350D01*
X4362Y-3885D01*
X4374Y-3887D01*
X4386Y-3888D01*
X4396Y-3889D01*
X4405Y-3889D01*
X4412Y-3890D01*
X4417D01*
X4429Y-3889D01*
X4439Y-3889D01*
X4448Y-3887D01*
X4457Y-3885D01*
X4466Y-3882D01*
X4474Y-3879D01*
X4481Y-3877D01*
X4487Y-3874D01*
X4493Y-3870D01*
X4498Y-3868D01*
X4502Y-3865D01*
X4505Y-3862D01*
X4509Y-3860D01*
X4511Y-3858D01*
X4511Y-3858D01*
X4512Y-3857D01*
X4518Y-3851D01*
X4523Y-3843D01*
X4532Y-3828D01*
X4538Y-3812D01*
X4543Y-3797D01*
X4545Y-3790D01*
X4546Y-3783D01*
X4547Y-3777D01*
X4548Y-3772D01*
X4549Y-3767D01*
X4549Y-3764D01*
Y-3762D01*
Y-3761D01*
X4270D01*
Y-3732D01*
X4271Y-3717D01*
X4272Y-3702D01*
X4274Y-3689D01*
X4276Y-3677D01*
X4280Y-3665D01*
X4284Y-3654D01*
X4288Y-3645D01*
X4291Y-3635D01*
X4296Y-3628D01*
X4300Y-3621D01*
X4303Y-3615D01*
X4307Y-3610D01*
X4310Y-3607D01*
X4312Y-3603D01*
X4313Y-3602D01*
X4314Y-3601D01*
X4322Y-3593D01*
X4332Y-3586D01*
X4341Y-3579D01*
X4351Y-3574D01*
X4360Y-3569D01*
X4370Y-3565D01*
X4379Y-3562D01*
X4389Y-3559D01*
X4397Y-3557D01*
X4406Y-3556D01*
X4413Y-3555D01*
X4419Y-3554D01*
X4424Y-3553D01*
X4431D01*
X4446Y-3554D01*
D02*
G37*
G36*
X4003D02*
X4018Y-3556D01*
X4030Y-3559D01*
X4042Y-3561D01*
X4051Y-3565D01*
X4057Y-3567D01*
X4059Y-3568D01*
X4061Y-3569D01*
X4062Y-3570D01*
X4063D01*
X4073Y-3576D01*
X4083Y-3584D01*
X4091Y-3593D01*
X4099Y-3601D01*
X4104Y-3608D01*
X4108Y-3614D01*
X4111Y-3618D01*
X4112Y-3619D01*
Y-3562D01*
X4173D01*
Y-3932D01*
X4112D01*
Y-3738D01*
X4111Y-3726D01*
X4110Y-3715D01*
X4109Y-3706D01*
X4107Y-3696D01*
X4105Y-3687D01*
X4103Y-3679D01*
X4101Y-3672D01*
X4098Y-3666D01*
X4095Y-3660D01*
X4093Y-3655D01*
X4091Y-3651D01*
X4089Y-3647D01*
X4087Y-3645D01*
X4086Y-3643D01*
X4084Y-3642D01*
Y-3641D01*
X4079Y-3635D01*
X4073Y-3630D01*
X4067Y-3626D01*
X4060Y-3622D01*
X4047Y-3616D01*
X4034Y-3612D01*
X4023Y-3610D01*
X4018Y-3609D01*
X4013Y-3608D01*
X4010Y-3608D01*
X4005D01*
X3994Y-3608D01*
X3990D01*
X3986Y-3609D01*
X3983Y-3610D01*
X3981D01*
X3979Y-3610D01*
X3979D01*
X3970Y-3613D01*
X3963Y-3616D01*
X3960Y-3617D01*
X3958Y-3618D01*
X3957Y-3619D01*
X3956D01*
X3957Y-3557D01*
X3963Y-3555D01*
X3969Y-3555D01*
X3973Y-3554D01*
X3974D01*
X3979Y-3553D01*
X3987D01*
X4003Y-3554D01*
D02*
G37*
%LPC*%
G36*
X4666Y-4224D02*
X4661D01*
X4654Y-4225D01*
X4646Y-4225D01*
X4631Y-4229D01*
X4620Y-4234D01*
X4609Y-4240D01*
X4601Y-4246D01*
X4595Y-4250D01*
X4592Y-4254D01*
X4591Y-4255D01*
Y-4255D01*
X4581Y-4268D01*
X4575Y-4282D01*
X4570Y-4295D01*
X4567Y-4309D01*
X4565Y-4320D01*
X4564Y-4326D01*
Y-4330D01*
X4564Y-4333D01*
Y-4336D01*
Y-4338D01*
Y-4339D01*
X4565Y-4358D01*
X4568Y-4375D01*
X4572Y-4389D01*
X4577Y-4401D01*
X4582Y-4411D01*
X4584Y-4415D01*
X4587Y-4417D01*
X4588Y-4420D01*
X4589Y-4422D01*
X4591Y-4423D01*
Y-4423D01*
X4596Y-4429D01*
X4601Y-4433D01*
X4613Y-4441D01*
X4625Y-4446D01*
X4636Y-4450D01*
X4646Y-4452D01*
X4650Y-4453D01*
X4654D01*
X4657Y-4454D01*
X4661D01*
X4670Y-4453D01*
X4677Y-4452D01*
X4692Y-4449D01*
X4704Y-4444D01*
X4714Y-4438D01*
X4723Y-4433D01*
X4728Y-4428D01*
X4732Y-4425D01*
X4733Y-4423D01*
X4742Y-4411D01*
X4748Y-4397D01*
X4752Y-4383D01*
X4755Y-4370D01*
X4757Y-4357D01*
X4758Y-4352D01*
Y-4348D01*
X4759Y-4344D01*
Y-4341D01*
Y-4339D01*
Y-4339D01*
X4757Y-4320D01*
X4755Y-4303D01*
X4751Y-4290D01*
X4745Y-4277D01*
X4741Y-4268D01*
X4739Y-4264D01*
X4737Y-4261D01*
X4736Y-4259D01*
X4734Y-4257D01*
X4733Y-4256D01*
Y-4255D01*
X4728Y-4250D01*
X4723Y-4245D01*
X4711Y-4237D01*
X4699Y-4232D01*
X4687Y-4228D01*
X4677Y-4225D01*
X4673Y-4225D01*
X4669D01*
X4666Y-4224D01*
D02*
G37*
G36*
X3790Y-4400D02*
X3777D01*
X3769Y-4401D01*
X3755Y-4404D01*
X3743Y-4410D01*
X3733Y-4415D01*
X3725Y-4421D01*
X3719Y-4426D01*
X3716Y-4429D01*
X3714Y-4430D01*
Y-4431D01*
X3706Y-4443D01*
X3699Y-4457D01*
X3695Y-4471D01*
X3691Y-4484D01*
X3689Y-4496D01*
X3689Y-4501D01*
Y-4506D01*
X3688Y-4509D01*
Y-4512D01*
Y-4514D01*
Y-4515D01*
X3689Y-4534D01*
X3692Y-4550D01*
X3697Y-4564D01*
X3701Y-4576D01*
X3706Y-4586D01*
X3708Y-4590D01*
X3710Y-4593D01*
X3712Y-4595D01*
X3713Y-4597D01*
X3714Y-4598D01*
Y-4599D01*
X3719Y-4604D01*
X3725Y-4608D01*
X3737Y-4616D01*
X3748Y-4621D01*
X3759Y-4625D01*
X3769Y-4627D01*
X3774Y-4629D01*
X3778D01*
X3780Y-4629D01*
X3785D01*
X3794Y-4629D01*
X3801Y-4628D01*
X3815Y-4625D01*
X3828Y-4620D01*
X3838Y-4614D01*
X3846Y-4608D01*
X3852Y-4603D01*
X3856Y-4600D01*
X3857Y-4599D01*
X3857D01*
X3866Y-4586D01*
X3872Y-4572D01*
X3877Y-4559D01*
X3880Y-4545D01*
X3882Y-4533D01*
X3883Y-4528D01*
Y-4523D01*
X3883Y-4520D01*
Y-4517D01*
Y-4515D01*
Y-4515D01*
X3882Y-4496D01*
X3880Y-4479D01*
X3875Y-4465D01*
X3870Y-4453D01*
X3866Y-4443D01*
X3863Y-4439D01*
X3861Y-4436D01*
X3860Y-4434D01*
X3859Y-4432D01*
X3857Y-4431D01*
Y-4431D01*
X3852Y-4425D01*
X3846Y-4420D01*
X3834Y-4413D01*
X3822Y-4407D01*
X3811Y-4404D01*
X3801Y-4401D01*
X3796Y-4400D01*
X3792D01*
X3790Y-4400D01*
D02*
G37*
G36*
X4183Y-4238D02*
Y-4501D01*
X4351D01*
X4183Y-4238D01*
D02*
G37*
G36*
X6803Y-4968D02*
X6790D01*
X6782Y-4969D01*
X6768Y-4973D01*
X6756Y-4978D01*
X6746Y-4983D01*
X6738Y-4988D01*
X6731Y-4994D01*
X6728Y-4997D01*
X6727Y-4997D01*
Y-4998D01*
X6717Y-5010D01*
X6711Y-5023D01*
X6706Y-5036D01*
X6702Y-5049D01*
X6700Y-5060D01*
X6699Y-5064D01*
Y-5069D01*
X6698Y-5072D01*
Y-5075D01*
Y-5076D01*
Y-5077D01*
X6915Y-5078D01*
X6912Y-5059D01*
X6908Y-5043D01*
X6902Y-5029D01*
X6896Y-5018D01*
X6890Y-5009D01*
X6885Y-5002D01*
X6883Y-5000D01*
X6881Y-4998D01*
X6880Y-4997D01*
X6874Y-4992D01*
X6868Y-4987D01*
X6855Y-4980D01*
X6841Y-4975D01*
X6828Y-4971D01*
X6816Y-4969D01*
X6811Y-4969D01*
X6807D01*
X6803Y-4968D01*
D02*
G37*
G36*
X4880Y-3605D02*
X4875D01*
X4867Y-3605D01*
X4858Y-3606D01*
X4850Y-3608D01*
X4843Y-3610D01*
X4831Y-3616D01*
X4820Y-3624D01*
X4811Y-3631D01*
X4805Y-3637D01*
X4803Y-3639D01*
X4801Y-3641D01*
X4800Y-3642D01*
Y-3643D01*
X4795Y-3650D01*
X4791Y-3658D01*
X4784Y-3675D01*
X4778Y-3692D01*
X4775Y-3710D01*
X4774Y-3717D01*
X4773Y-3725D01*
X4772Y-3731D01*
Y-3736D01*
X4772Y-3741D01*
Y-3744D01*
Y-3747D01*
Y-3748D01*
Y-3760D01*
X4773Y-3771D01*
X4774Y-3782D01*
X4776Y-3792D01*
X4778Y-3801D01*
X4781Y-3810D01*
X4783Y-3818D01*
X4785Y-3825D01*
X4788Y-3832D01*
X4791Y-3837D01*
X4793Y-3841D01*
X4795Y-3845D01*
X4797Y-3849D01*
X4799Y-3851D01*
X4799Y-3852D01*
X4800Y-3853D01*
X4805Y-3859D01*
X4811Y-3865D01*
X4817Y-3870D01*
X4824Y-3874D01*
X4829Y-3878D01*
X4836Y-3881D01*
X4848Y-3886D01*
X4859Y-3889D01*
X4864Y-3889D01*
X4867Y-3890D01*
X4871Y-3891D01*
X4875D01*
X4884Y-3890D01*
X4892Y-3889D01*
X4900Y-3887D01*
X4907Y-3885D01*
X4921Y-3879D01*
X4932Y-3872D01*
X4940Y-3864D01*
X4946Y-3858D01*
X4949Y-3856D01*
X4950Y-3854D01*
X4951Y-3853D01*
X4951Y-3853D01*
X4956Y-3845D01*
X4961Y-3837D01*
X4967Y-3820D01*
X4972Y-3803D01*
X4976Y-3786D01*
X4976Y-3778D01*
X4978Y-3771D01*
X4978Y-3764D01*
Y-3759D01*
X4979Y-3754D01*
Y-3750D01*
Y-3748D01*
Y-3748D01*
X4978Y-3735D01*
X4978Y-3724D01*
X4976Y-3713D01*
X4974Y-3703D01*
X4972Y-3694D01*
X4970Y-3685D01*
X4968Y-3677D01*
X4965Y-3670D01*
X4963Y-3664D01*
X4960Y-3658D01*
X4958Y-3654D01*
X4956Y-3650D01*
X4954Y-3647D01*
X4953Y-3645D01*
X4951Y-3643D01*
Y-3643D01*
X4946Y-3636D01*
X4940Y-3630D01*
X4934Y-3625D01*
X4928Y-3620D01*
X4921Y-3617D01*
X4915Y-3614D01*
X4903Y-3609D01*
X4892Y-3607D01*
X4887Y-3606D01*
X4883Y-3605D01*
X4880Y-3605D01*
D02*
G37*
G36*
X2121Y-3605D02*
X2116D01*
X2107Y-3606D01*
X2099Y-3607D01*
X2091Y-3608D01*
X2083Y-3611D01*
X2070Y-3618D01*
X2060Y-3624D01*
X2051Y-3631D01*
X2045Y-3638D01*
X2042Y-3641D01*
X2041Y-3642D01*
X2039Y-3643D01*
Y-3644D01*
X2034Y-3651D01*
X2030Y-3659D01*
X2023Y-3676D01*
X2018Y-3693D01*
X2014Y-3710D01*
X2013Y-3717D01*
X2012Y-3725D01*
X2011Y-3731D01*
Y-3736D01*
X2011Y-3741D01*
Y-3745D01*
Y-3747D01*
Y-3748D01*
Y-3759D01*
X2012Y-3771D01*
X2013Y-3782D01*
X2015Y-3792D01*
X2017Y-3801D01*
X2020Y-3810D01*
X2022Y-3818D01*
X2025Y-3824D01*
X2028Y-3831D01*
X2030Y-3836D01*
X2033Y-3841D01*
X2035Y-3845D01*
X2037Y-3848D01*
X2038Y-3850D01*
X2039Y-3851D01*
X2039Y-3852D01*
X2045Y-3858D01*
X2051Y-3864D01*
X2057Y-3870D01*
X2063Y-3874D01*
X2070Y-3877D01*
X2076Y-3881D01*
X2089Y-3885D01*
X2099Y-3888D01*
X2104Y-3889D01*
X2108Y-3889D01*
X2112Y-3890D01*
X2116D01*
X2125Y-3889D01*
X2134Y-3888D01*
X2142Y-3887D01*
X2149Y-3884D01*
X2162Y-3878D01*
X2173Y-3871D01*
X2182Y-3864D01*
X2188Y-3858D01*
X2191Y-3855D01*
X2192Y-3853D01*
X2193Y-3853D01*
X2194Y-3852D01*
X2199Y-3845D01*
X2203Y-3836D01*
X2210Y-3820D01*
X2215Y-3802D01*
X2219Y-3786D01*
X2219Y-3778D01*
X2221Y-3771D01*
X2221Y-3764D01*
Y-3759D01*
X2222Y-3754D01*
Y-3750D01*
Y-3748D01*
Y-3748D01*
X2221Y-3736D01*
X2221Y-3724D01*
X2219Y-3713D01*
X2217Y-3704D01*
X2215Y-3694D01*
X2213Y-3685D01*
X2210Y-3677D01*
X2207Y-3671D01*
X2205Y-3664D01*
X2203Y-3659D01*
X2200Y-3654D01*
X2198Y-3650D01*
X2196Y-3647D01*
X2195Y-3645D01*
X2194Y-3644D01*
Y-3643D01*
X2188Y-3637D01*
X2182Y-3631D01*
X2176Y-3626D01*
X2169Y-3621D01*
X2163Y-3618D01*
X2157Y-3614D01*
X2144Y-3610D01*
X2133Y-3607D01*
X2129Y-3607D01*
X2124Y-3606D01*
X2121Y-3605D01*
D02*
G37*
G36*
X931Y-4982D02*
X931Y-4982D01*
Y-4982D01*
X931Y-4982D01*
D02*
G37*
G36*
X3378D02*
X3378Y-4982D01*
Y-4982D01*
X3378Y-4982D01*
D02*
G37*
G36*
X2622Y-5109D02*
X2550D01*
Y-5123D01*
Y-5133D01*
X2551Y-5144D01*
X2554Y-5163D01*
X2560Y-5179D01*
X2562Y-5186D01*
X2565Y-5192D01*
X2568Y-5198D01*
X2571Y-5203D01*
X2573Y-5207D01*
X2576Y-5211D01*
X2578Y-5214D01*
X2579Y-5216D01*
X2580Y-5217D01*
X2581Y-5218D01*
X2587Y-5224D01*
X2593Y-5230D01*
X2599Y-5234D01*
X2606Y-5238D01*
X2619Y-5245D01*
X2632Y-5249D01*
X2644Y-5251D01*
X2649Y-5252D01*
X2653Y-5253D01*
X2657Y-5253D01*
X2662D01*
X2675Y-5253D01*
X2686Y-5250D01*
X2696Y-5247D01*
X2705Y-5243D01*
X2711Y-5240D01*
X2716Y-5237D01*
X2718Y-5235D01*
X2720Y-5234D01*
X2727Y-5226D01*
X2732Y-5219D01*
X2735Y-5210D01*
X2738Y-5202D01*
X2739Y-5194D01*
X2740Y-5188D01*
X2741Y-5184D01*
Y-5184D01*
Y-5183D01*
X2740Y-5176D01*
X2739Y-5169D01*
X2736Y-5158D01*
X2732Y-5148D01*
X2726Y-5140D01*
X2722Y-5133D01*
X2717Y-5129D01*
X2714Y-5127D01*
X2713Y-5126D01*
X2707Y-5123D01*
X2700Y-5120D01*
X2693Y-5118D01*
X2684Y-5116D01*
X2668Y-5113D01*
X2651Y-5111D01*
X2643Y-5110D01*
X2635Y-5110D01*
X2628D01*
X2622Y-5109D01*
D02*
G37*
G36*
X5552D02*
X5480D01*
Y-5123D01*
Y-5133D01*
X5481Y-5144D01*
X5485Y-5163D01*
X5490Y-5179D01*
X5493Y-5186D01*
X5495Y-5192D01*
X5499Y-5198D01*
X5501Y-5203D01*
X5504Y-5207D01*
X5506Y-5211D01*
X5508Y-5214D01*
X5510Y-5216D01*
X5510Y-5217D01*
X5511Y-5218D01*
X5517Y-5224D01*
X5523Y-5230D01*
X5529Y-5234D01*
X5537Y-5238D01*
X5550Y-5245D01*
X5563Y-5249D01*
X5575Y-5251D01*
X5579Y-5252D01*
X5584Y-5253D01*
X5587Y-5253D01*
X5592D01*
X5605Y-5253D01*
X5617Y-5250D01*
X5626Y-5247D01*
X5635Y-5243D01*
X5642Y-5240D01*
X5646Y-5237D01*
X5649Y-5235D01*
X5650Y-5234D01*
X5657Y-5226D01*
X5662Y-5219D01*
X5666Y-5210D01*
X5668Y-5202D01*
X5670Y-5194D01*
X5670Y-5188D01*
X5671Y-5184D01*
Y-5184D01*
Y-5183D01*
X5670Y-5176D01*
X5670Y-5169D01*
X5666Y-5158D01*
X5662Y-5148D01*
X5657Y-5140D01*
X5652Y-5133D01*
X5647Y-5129D01*
X5644Y-5127D01*
X5643Y-5126D01*
X5637Y-5123D01*
X5630Y-5120D01*
X5623Y-5118D01*
X5615Y-5116D01*
X5598Y-5113D01*
X5581Y-5111D01*
X5573Y-5110D01*
X5565Y-5110D01*
X5558D01*
X5552Y-5109D01*
D02*
G37*
G36*
X7399D02*
X7327D01*
Y-5123D01*
Y-5133D01*
X7328Y-5144D01*
X7331Y-5163D01*
X7337Y-5179D01*
X7339Y-5186D01*
X7342Y-5192D01*
X7345Y-5198D01*
X7348Y-5203D01*
X7350Y-5207D01*
X7353Y-5211D01*
X7355Y-5214D01*
X7356Y-5216D01*
X7357Y-5217D01*
X7358Y-5218D01*
X7364Y-5224D01*
X7370Y-5230D01*
X7376Y-5234D01*
X7383Y-5238D01*
X7396Y-5245D01*
X7409Y-5249D01*
X7421Y-5251D01*
X7426Y-5252D01*
X7430Y-5253D01*
X7434Y-5253D01*
X7439D01*
X7452Y-5253D01*
X7463Y-5250D01*
X7473Y-5247D01*
X7482Y-5243D01*
X7488Y-5240D01*
X7493Y-5237D01*
X7495Y-5235D01*
X7497Y-5234D01*
X7504Y-5226D01*
X7509Y-5219D01*
X7512Y-5210D01*
X7515Y-5202D01*
X7516Y-5194D01*
X7517Y-5188D01*
X7518Y-5184D01*
Y-5184D01*
Y-5183D01*
X7517Y-5176D01*
X7516Y-5169D01*
X7513Y-5158D01*
X7509Y-5148D01*
X7503Y-5140D01*
X7499Y-5133D01*
X7494Y-5129D01*
X7491Y-5127D01*
X7490Y-5126D01*
X7484Y-5123D01*
X7477Y-5120D01*
X7470Y-5118D01*
X7461Y-5116D01*
X7445Y-5113D01*
X7428Y-5111D01*
X7420Y-5110D01*
X7412Y-5110D01*
X7405D01*
X7399Y-5109D01*
D02*
G37*
G36*
X3731Y-4967D02*
X3726D01*
X3717Y-4968D01*
X3709Y-4969D01*
X3694Y-4973D01*
X3681Y-4979D01*
X3670Y-4986D01*
X3661Y-4992D01*
X3655Y-4998D01*
X3651Y-5003D01*
X3650Y-5003D01*
Y-5004D01*
X3645Y-5011D01*
X3641Y-5018D01*
X3634Y-5035D01*
X3629Y-5052D01*
X3626Y-5068D01*
X3624Y-5076D01*
X3624Y-5083D01*
X3623Y-5089D01*
Y-5095D01*
X3622Y-5099D01*
Y-5103D01*
Y-5105D01*
Y-5106D01*
Y-5118D01*
X3624Y-5129D01*
X3625Y-5139D01*
X3627Y-5149D01*
X3629Y-5158D01*
X3631Y-5167D01*
X3634Y-5175D01*
X3636Y-5181D01*
X3639Y-5187D01*
X3641Y-5192D01*
X3643Y-5197D01*
X3645Y-5201D01*
X3647Y-5203D01*
X3649Y-5205D01*
X3649Y-5207D01*
X3650Y-5207D01*
X3655Y-5214D01*
X3661Y-5219D01*
X3667Y-5224D01*
X3674Y-5228D01*
X3686Y-5235D01*
X3698Y-5239D01*
X3709Y-5242D01*
X3714Y-5242D01*
X3718Y-5243D01*
X3721Y-5243D01*
X3726D01*
X3735Y-5243D01*
X3744Y-5242D01*
X3759Y-5238D01*
X3772Y-5232D01*
X3783Y-5225D01*
X3792Y-5219D01*
X3798Y-5213D01*
X3801Y-5209D01*
X3802Y-5208D01*
X3803Y-5207D01*
X3807Y-5200D01*
X3812Y-5193D01*
X3819Y-5177D01*
X3823Y-5160D01*
X3826Y-5143D01*
X3828Y-5135D01*
X3828Y-5129D01*
X3829Y-5122D01*
Y-5116D01*
X3830Y-5112D01*
Y-5108D01*
Y-5106D01*
Y-5106D01*
Y-5094D01*
X3828Y-5083D01*
X3827Y-5072D01*
X3826Y-5062D01*
X3823Y-5053D01*
X3821Y-5045D01*
X3819Y-5037D01*
X3816Y-5030D01*
X3814Y-5024D01*
X3811Y-5019D01*
X3809Y-5015D01*
X3807Y-5011D01*
X3805Y-5008D01*
X3804Y-5006D01*
X3803Y-5005D01*
Y-5004D01*
X3798Y-4997D01*
X3792Y-4992D01*
X3786Y-4987D01*
X3779Y-4983D01*
X3766Y-4977D01*
X3754Y-4972D01*
X3743Y-4969D01*
X3738Y-4969D01*
X3734Y-4968D01*
X3731Y-4967D01*
D02*
G37*
G36*
X3371Y-4224D02*
X3364D01*
X3349Y-4225D01*
X3336Y-4227D01*
X3324Y-4230D01*
X3315Y-4234D01*
X3307Y-4239D01*
X3302Y-4242D01*
X3298Y-4245D01*
X3297Y-4246D01*
X3288Y-4254D01*
X3283Y-4264D01*
X3278Y-4274D01*
X3275Y-4284D01*
X3273Y-4292D01*
X3273Y-4299D01*
X3272Y-4301D01*
Y-4303D01*
Y-4305D01*
Y-4305D01*
X3273Y-4319D01*
X3276Y-4331D01*
X3280Y-4341D01*
X3285Y-4349D01*
X3289Y-4356D01*
X3293Y-4361D01*
X3296Y-4364D01*
X3297Y-4365D01*
X3307Y-4372D01*
X3318Y-4377D01*
X3329Y-4381D01*
X3340Y-4383D01*
X3349Y-4385D01*
X3357Y-4385D01*
X3360Y-4386D01*
X3364D01*
X3379Y-4385D01*
X3393Y-4383D01*
X3405Y-4379D01*
X3414Y-4375D01*
X3422Y-4372D01*
X3427Y-4368D01*
X3430Y-4366D01*
X3431Y-4365D01*
X3439Y-4356D01*
X3445Y-4347D01*
X3449Y-4337D01*
X3452Y-4327D01*
X3454Y-4318D01*
X3454Y-4312D01*
X3455Y-4309D01*
Y-4307D01*
Y-4306D01*
Y-4305D01*
X3454Y-4292D01*
X3451Y-4280D01*
X3448Y-4270D01*
X3443Y-4261D01*
X3439Y-4254D01*
X3435Y-4250D01*
X3433Y-4246D01*
X3431Y-4246D01*
X3422Y-4238D01*
X3410Y-4233D01*
X3399Y-4229D01*
X3389Y-4227D01*
X3379Y-4225D01*
X3371Y-4224D01*
D02*
G37*
G36*
X3369Y-4439D02*
X3364D01*
X3347Y-4440D01*
X3332Y-4443D01*
X3319Y-4447D01*
X3309Y-4452D01*
X3300Y-4457D01*
X3294Y-4461D01*
X3290Y-4463D01*
X3289Y-4465D01*
X3280Y-4475D01*
X3273Y-4486D01*
X3268Y-4498D01*
X3265Y-4509D01*
X3263Y-4519D01*
X3262Y-4523D01*
Y-4527D01*
X3262Y-4530D01*
Y-4532D01*
Y-4534D01*
Y-4534D01*
X3263Y-4550D01*
X3266Y-4564D01*
X3270Y-4576D01*
X3275Y-4585D01*
X3281Y-4593D01*
X3285Y-4599D01*
X3288Y-4602D01*
X3289Y-4604D01*
X3300Y-4612D01*
X3312Y-4619D01*
X3325Y-4623D01*
X3337Y-4626D01*
X3348Y-4628D01*
X3352Y-4629D01*
X3356D01*
X3359Y-4629D01*
X3364D01*
X3381Y-4628D01*
X3396Y-4625D01*
X3409Y-4621D01*
X3419Y-4617D01*
X3428Y-4612D01*
X3433Y-4608D01*
X3437Y-4606D01*
X3439Y-4604D01*
X3448Y-4594D01*
X3454Y-4583D01*
X3459Y-4571D01*
X3462Y-4560D01*
X3464Y-4550D01*
X3465Y-4545D01*
Y-4541D01*
X3466Y-4539D01*
Y-4536D01*
Y-4535D01*
Y-4534D01*
X3464Y-4518D01*
X3462Y-4505D01*
X3457Y-4493D01*
X3452Y-4483D01*
X3447Y-4475D01*
X3443Y-4469D01*
X3440Y-4466D01*
X3439Y-4465D01*
X3428Y-4456D01*
X3416Y-4450D01*
X3403Y-4445D01*
X3391Y-4442D01*
X3380Y-4440D01*
X3376Y-4440D01*
X3372D01*
X3369Y-4439D01*
D02*
G37*
G36*
X5089Y-4224D02*
X5083D01*
X5073Y-4225D01*
X5065Y-4226D01*
X5056Y-4229D01*
X5049Y-4232D01*
X5035Y-4240D01*
X5024Y-4250D01*
X5016Y-4259D01*
X5010Y-4267D01*
X5008Y-4271D01*
X5007Y-4273D01*
X5005Y-4274D01*
Y-4275D01*
X5001Y-4285D01*
X4997Y-4296D01*
X4993Y-4308D01*
X4990Y-4320D01*
X4986Y-4345D01*
X4982Y-4370D01*
X4981Y-4381D01*
X4980Y-4393D01*
X4980Y-4402D01*
Y-4411D01*
X4979Y-4417D01*
Y-4423D01*
Y-4426D01*
Y-4427D01*
Y-4446D01*
X4980Y-4463D01*
X4982Y-4478D01*
X4983Y-4494D01*
X4985Y-4507D01*
X4988Y-4520D01*
X4989Y-4531D01*
X4992Y-4541D01*
X4995Y-4550D01*
X4997Y-4557D01*
X4999Y-4564D01*
X5001Y-4570D01*
X5003Y-4574D01*
X5004Y-4576D01*
X5005Y-4578D01*
Y-4579D01*
X5010Y-4588D01*
X5016Y-4595D01*
X5022Y-4602D01*
X5028Y-4608D01*
X5035Y-4613D01*
X5041Y-4617D01*
X5048Y-4620D01*
X5054Y-4623D01*
X5066Y-4627D01*
X5070Y-4628D01*
X5075Y-4629D01*
X5078D01*
X5081Y-4629D01*
X5083D01*
X5092Y-4629D01*
X5102Y-4627D01*
X5110Y-4625D01*
X5117Y-4621D01*
X5131Y-4614D01*
X5142Y-4604D01*
X5150Y-4595D01*
X5156Y-4587D01*
X5158Y-4583D01*
X5159Y-4581D01*
X5161Y-4579D01*
Y-4579D01*
X5165Y-4569D01*
X5169Y-4558D01*
X5173Y-4546D01*
X5176Y-4534D01*
X5180Y-4509D01*
X5183Y-4484D01*
X5184Y-4473D01*
X5185Y-4462D01*
X5186Y-4452D01*
Y-4444D01*
X5186Y-4437D01*
Y-4432D01*
Y-4429D01*
Y-4427D01*
Y-4409D01*
X5185Y-4391D01*
X5184Y-4375D01*
X5182Y-4360D01*
X5180Y-4347D01*
X5178Y-4334D01*
X5176Y-4323D01*
X5173Y-4313D01*
X5171Y-4304D01*
X5169Y-4297D01*
X5167Y-4290D01*
X5165Y-4284D01*
X5163Y-4280D01*
X5162Y-4278D01*
X5161Y-4276D01*
Y-4275D01*
X5155Y-4266D01*
X5150Y-4258D01*
X5144Y-4251D01*
X5138Y-4246D01*
X5131Y-4240D01*
X5125Y-4236D01*
X5119Y-4233D01*
X5112Y-4230D01*
X5101Y-4227D01*
X5096Y-4225D01*
X5092Y-4225D01*
X5089Y-4224D01*
D02*
G37*
G36*
X5948D02*
X5943D01*
X5933Y-4225D01*
X5924Y-4226D01*
X5916Y-4229D01*
X5909Y-4232D01*
X5895Y-4240D01*
X5884Y-4250D01*
X5876Y-4259D01*
X5869Y-4267D01*
X5867Y-4271D01*
X5866Y-4273D01*
X5865Y-4274D01*
Y-4275D01*
X5860Y-4285D01*
X5856Y-4296D01*
X5852Y-4308D01*
X5849Y-4320D01*
X5845Y-4345D01*
X5842Y-4370D01*
X5840Y-4381D01*
X5840Y-4393D01*
X5839Y-4402D01*
Y-4411D01*
X5838Y-4417D01*
Y-4423D01*
Y-4426D01*
Y-4427D01*
Y-4446D01*
X5840Y-4463D01*
X5841Y-4478D01*
X5842Y-4494D01*
X5844Y-4507D01*
X5847Y-4520D01*
X5849Y-4531D01*
X5851Y-4541D01*
X5854Y-4550D01*
X5856Y-4557D01*
X5859Y-4564D01*
X5861Y-4570D01*
X5862Y-4574D01*
X5863Y-4576D01*
X5865Y-4578D01*
Y-4579D01*
X5870Y-4588D01*
X5875Y-4595D01*
X5881Y-4602D01*
X5888Y-4608D01*
X5894Y-4613D01*
X5901Y-4617D01*
X5907Y-4620D01*
X5913Y-4623D01*
X5925Y-4627D01*
X5930Y-4628D01*
X5934Y-4629D01*
X5937D01*
X5940Y-4629D01*
X5943D01*
X5952Y-4629D01*
X5961Y-4627D01*
X5969Y-4625D01*
X5977Y-4621D01*
X5990Y-4614D01*
X6001Y-4604D01*
X6009Y-4595D01*
X6015Y-4587D01*
X6017Y-4583D01*
X6019Y-4581D01*
X6020Y-4579D01*
Y-4579D01*
X6025Y-4569D01*
X6029Y-4558D01*
X6032Y-4546D01*
X6035Y-4534D01*
X6039Y-4509D01*
X6042Y-4484D01*
X6044Y-4473D01*
X6044Y-4462D01*
X6045Y-4452D01*
Y-4444D01*
X6046Y-4437D01*
Y-4432D01*
Y-4429D01*
Y-4427D01*
Y-4409D01*
X6044Y-4391D01*
X6043Y-4375D01*
X6042Y-4360D01*
X6040Y-4347D01*
X6038Y-4334D01*
X6035Y-4323D01*
X6033Y-4313D01*
X6031Y-4304D01*
X6028Y-4297D01*
X6026Y-4290D01*
X6024Y-4284D01*
X6023Y-4280D01*
X6021Y-4278D01*
X6020Y-4276D01*
Y-4275D01*
X6015Y-4266D01*
X6010Y-4258D01*
X6004Y-4251D01*
X5997Y-4246D01*
X5991Y-4240D01*
X5984Y-4236D01*
X5978Y-4233D01*
X5972Y-4230D01*
X5960Y-4227D01*
X5955Y-4225D01*
X5951Y-4225D01*
X5948Y-4224D01*
D02*
G37*
G36*
X6002Y-4967D02*
X5998D01*
X5989Y-4968D01*
X5981Y-4969D01*
X5966Y-4973D01*
X5953Y-4979D01*
X5941Y-4986D01*
X5933Y-4992D01*
X5927Y-4998D01*
X5923Y-5003D01*
X5922Y-5003D01*
Y-5004D01*
X5917Y-5011D01*
X5912Y-5018D01*
X5906Y-5035D01*
X5901Y-5052D01*
X5897Y-5068D01*
X5896Y-5076D01*
X5895Y-5083D01*
X5895Y-5089D01*
Y-5095D01*
X5894Y-5099D01*
Y-5103D01*
Y-5105D01*
Y-5106D01*
Y-5118D01*
X5895Y-5129D01*
X5897Y-5139D01*
X5899Y-5149D01*
X5901Y-5158D01*
X5903Y-5167D01*
X5905Y-5175D01*
X5908Y-5181D01*
X5911Y-5187D01*
X5913Y-5192D01*
X5915Y-5197D01*
X5917Y-5201D01*
X5919Y-5203D01*
X5920Y-5205D01*
X5921Y-5207D01*
X5922Y-5207D01*
X5927Y-5214D01*
X5933Y-5219D01*
X5939Y-5224D01*
X5945Y-5228D01*
X5958Y-5235D01*
X5970Y-5239D01*
X5981Y-5242D01*
X5986Y-5242D01*
X5990Y-5243D01*
X5993Y-5243D01*
X5998D01*
X6007Y-5243D01*
X6015Y-5242D01*
X6031Y-5238D01*
X6044Y-5232D01*
X6055Y-5225D01*
X6063Y-5219D01*
X6069Y-5213D01*
X6073Y-5209D01*
X6074Y-5208D01*
X6075Y-5207D01*
X6079Y-5200D01*
X6084Y-5193D01*
X6090Y-5177D01*
X6095Y-5160D01*
X6098Y-5143D01*
X6099Y-5135D01*
X6100Y-5129D01*
X6101Y-5122D01*
Y-5116D01*
X6101Y-5112D01*
Y-5108D01*
Y-5106D01*
Y-5106D01*
Y-5094D01*
X6100Y-5083D01*
X6099Y-5072D01*
X6097Y-5062D01*
X6095Y-5053D01*
X6093Y-5045D01*
X6090Y-5037D01*
X6088Y-5030D01*
X6086Y-5024D01*
X6083Y-5019D01*
X6080Y-5015D01*
X6078Y-5011D01*
X6077Y-5008D01*
X6076Y-5006D01*
X6075Y-5005D01*
Y-5004D01*
X6069Y-4997D01*
X6063Y-4992D01*
X6057Y-4987D01*
X6051Y-4983D01*
X6038Y-4977D01*
X6026Y-4972D01*
X6015Y-4969D01*
X6010Y-4969D01*
X6006Y-4968D01*
X6002Y-4967D01*
D02*
G37*
G36*
X2510Y-4224D02*
X2505D01*
X2495Y-4225D01*
X2487Y-4226D01*
X2478Y-4229D01*
X2471Y-4232D01*
X2457Y-4240D01*
X2446Y-4250D01*
X2438Y-4259D01*
X2432Y-4267D01*
X2430Y-4271D01*
X2428Y-4273D01*
X2427Y-4274D01*
Y-4275D01*
X2423Y-4285D01*
X2419Y-4296D01*
X2415Y-4308D01*
X2412Y-4320D01*
X2407Y-4345D01*
X2404Y-4370D01*
X2403Y-4381D01*
X2402Y-4393D01*
X2402Y-4402D01*
Y-4411D01*
X2401Y-4417D01*
Y-4423D01*
Y-4426D01*
Y-4427D01*
Y-4446D01*
X2402Y-4463D01*
X2404Y-4478D01*
X2405Y-4494D01*
X2407Y-4507D01*
X2409Y-4520D01*
X2411Y-4531D01*
X2414Y-4541D01*
X2417Y-4550D01*
X2419Y-4557D01*
X2421Y-4564D01*
X2423Y-4570D01*
X2425Y-4574D01*
X2426Y-4576D01*
X2427Y-4578D01*
Y-4579D01*
X2432Y-4588D01*
X2438Y-4595D01*
X2444Y-4602D01*
X2450Y-4608D01*
X2457Y-4613D01*
X2463Y-4617D01*
X2470Y-4620D01*
X2476Y-4623D01*
X2488Y-4627D01*
X2492Y-4628D01*
X2497Y-4629D01*
X2500D01*
X2503Y-4629D01*
X2505D01*
X2514Y-4629D01*
X2524Y-4627D01*
X2531Y-4625D01*
X2539Y-4621D01*
X2552Y-4614D01*
X2564Y-4604D01*
X2571Y-4595D01*
X2578Y-4587D01*
X2580Y-4583D01*
X2581Y-4581D01*
X2583Y-4579D01*
Y-4579D01*
X2587Y-4569D01*
X2591Y-4558D01*
X2594Y-4546D01*
X2598Y-4534D01*
X2602Y-4509D01*
X2605Y-4484D01*
X2606Y-4473D01*
X2607Y-4462D01*
X2608Y-4452D01*
Y-4444D01*
X2608Y-4437D01*
Y-4432D01*
Y-4429D01*
Y-4427D01*
Y-4409D01*
X2607Y-4391D01*
X2606Y-4375D01*
X2604Y-4360D01*
X2602Y-4347D01*
X2600Y-4334D01*
X2598Y-4323D01*
X2595Y-4313D01*
X2593Y-4304D01*
X2591Y-4297D01*
X2589Y-4290D01*
X2587Y-4284D01*
X2585Y-4280D01*
X2584Y-4278D01*
X2583Y-4276D01*
Y-4275D01*
X2577Y-4266D01*
X2572Y-4258D01*
X2566Y-4251D01*
X2560Y-4246D01*
X2553Y-4240D01*
X2547Y-4236D01*
X2541Y-4233D01*
X2534Y-4230D01*
X2523Y-4227D01*
X2518Y-4225D01*
X2514Y-4225D01*
X2510Y-4224D01*
D02*
G37*
G36*
X6523Y-3605D02*
X6510D01*
X6502Y-3607D01*
X6488Y-3610D01*
X6476Y-3615D01*
X6465Y-3620D01*
X6458Y-3626D01*
X6451Y-3631D01*
X6448Y-3634D01*
X6446Y-3635D01*
Y-3635D01*
X6437Y-3647D01*
X6431Y-3660D01*
X6425Y-3673D01*
X6422Y-3686D01*
X6420Y-3697D01*
X6419Y-3702D01*
Y-3706D01*
X6418Y-3710D01*
Y-3712D01*
Y-3713D01*
Y-3714D01*
X6635Y-3715D01*
X6632Y-3696D01*
X6628Y-3680D01*
X6622Y-3666D01*
X6616Y-3655D01*
X6610Y-3646D01*
X6605Y-3639D01*
X6603Y-3637D01*
X6601Y-3635D01*
X6600Y-3634D01*
X6594Y-3629D01*
X6587Y-3624D01*
X6574Y-3618D01*
X6561Y-3612D01*
X6547Y-3608D01*
X6536Y-3607D01*
X6530Y-3606D01*
X6526D01*
X6523Y-3605D01*
D02*
G37*
G36*
X1264Y-4968D02*
X1259D01*
X1250Y-4969D01*
X1242Y-4970D01*
X1235Y-4971D01*
X1227Y-4974D01*
X1214Y-4980D01*
X1203Y-4987D01*
X1194Y-4994D01*
X1188Y-5001D01*
X1185Y-5003D01*
X1184Y-5005D01*
X1183Y-5006D01*
Y-5007D01*
X1177Y-5014D01*
X1173Y-5022D01*
X1166Y-5039D01*
X1161Y-5056D01*
X1157Y-5073D01*
X1156Y-5080D01*
X1155Y-5087D01*
X1155Y-5094D01*
Y-5099D01*
X1154Y-5104D01*
Y-5108D01*
Y-5110D01*
Y-5110D01*
Y-5122D01*
X1155Y-5134D01*
X1156Y-5144D01*
X1158Y-5154D01*
X1160Y-5164D01*
X1163Y-5173D01*
X1166Y-5181D01*
X1168Y-5187D01*
X1171Y-5194D01*
X1174Y-5199D01*
X1176Y-5203D01*
X1178Y-5207D01*
X1180Y-5211D01*
X1181Y-5213D01*
X1182Y-5214D01*
X1183Y-5215D01*
X1188Y-5221D01*
X1194Y-5227D01*
X1200Y-5232D01*
X1206Y-5236D01*
X1213Y-5240D01*
X1219Y-5243D01*
X1232Y-5248D01*
X1242Y-5251D01*
X1247Y-5251D01*
X1252Y-5252D01*
X1255Y-5253D01*
X1259D01*
X1269Y-5252D01*
X1277Y-5251D01*
X1285Y-5249D01*
X1292Y-5247D01*
X1305Y-5241D01*
X1317Y-5234D01*
X1325Y-5226D01*
X1332Y-5221D01*
X1334Y-5218D01*
X1336Y-5216D01*
X1336Y-5215D01*
X1337Y-5215D01*
X1342Y-5207D01*
X1346Y-5199D01*
X1353Y-5182D01*
X1358Y-5165D01*
X1362Y-5148D01*
X1362Y-5141D01*
X1364Y-5133D01*
X1364Y-5127D01*
Y-5121D01*
X1365Y-5117D01*
Y-5113D01*
Y-5111D01*
Y-5110D01*
X1364Y-5099D01*
X1364Y-5087D01*
X1362Y-5076D01*
X1361Y-5066D01*
X1359Y-5057D01*
X1356Y-5048D01*
X1353Y-5040D01*
X1351Y-5034D01*
X1348Y-5027D01*
X1346Y-5022D01*
X1343Y-5017D01*
X1341Y-5013D01*
X1339Y-5010D01*
X1338Y-5008D01*
X1337Y-5007D01*
Y-5006D01*
X1332Y-4999D01*
X1326Y-4994D01*
X1319Y-4988D01*
X1313Y-4984D01*
X1307Y-4980D01*
X1300Y-4977D01*
X1288Y-4973D01*
X1277Y-4970D01*
X1272Y-4969D01*
X1267Y-4969D01*
X1264Y-4968D01*
D02*
G37*
G36*
X2553Y-3605D02*
X2549D01*
X2539Y-3605D01*
X2531Y-3606D01*
X2516Y-3610D01*
X2503Y-3616D01*
X2492Y-3623D01*
X2484Y-3629D01*
X2478Y-3635D01*
X2474Y-3640D01*
X2472Y-3641D01*
Y-3641D01*
X2468Y-3649D01*
X2463Y-3656D01*
X2457Y-3672D01*
X2451Y-3689D01*
X2448Y-3706D01*
X2447Y-3713D01*
X2446Y-3720D01*
X2446Y-3727D01*
Y-3732D01*
X2445Y-3736D01*
Y-3740D01*
Y-3742D01*
Y-3743D01*
Y-3755D01*
X2446Y-3766D01*
X2447Y-3776D01*
X2449Y-3786D01*
X2451Y-3795D01*
X2453Y-3804D01*
X2456Y-3812D01*
X2459Y-3818D01*
X2461Y-3824D01*
X2464Y-3830D01*
X2466Y-3834D01*
X2468Y-3838D01*
X2470Y-3841D01*
X2471Y-3843D01*
X2472Y-3844D01*
X2472Y-3845D01*
X2478Y-3851D01*
X2484Y-3856D01*
X2489Y-3861D01*
X2496Y-3866D01*
X2508Y-3872D01*
X2521Y-3876D01*
X2531Y-3879D01*
X2537Y-3879D01*
X2541Y-3880D01*
X2544Y-3881D01*
X2549D01*
X2558Y-3880D01*
X2566Y-3879D01*
X2581Y-3875D01*
X2594Y-3870D01*
X2606Y-3862D01*
X2614Y-3856D01*
X2620Y-3851D01*
X2624Y-3846D01*
X2625Y-3845D01*
X2625Y-3845D01*
X2630Y-3837D01*
X2634Y-3830D01*
X2641Y-3814D01*
X2646Y-3797D01*
X2649Y-3780D01*
X2650Y-3772D01*
X2651Y-3766D01*
X2652Y-3759D01*
Y-3753D01*
X2652Y-3750D01*
Y-3746D01*
Y-3744D01*
Y-3743D01*
Y-3731D01*
X2651Y-3720D01*
X2650Y-3710D01*
X2648Y-3700D01*
X2646Y-3690D01*
X2644Y-3682D01*
X2641Y-3674D01*
X2638Y-3668D01*
X2636Y-3662D01*
X2634Y-3656D01*
X2631Y-3652D01*
X2629Y-3648D01*
X2628Y-3645D01*
X2627Y-3643D01*
X2625Y-3642D01*
Y-3641D01*
X2620Y-3635D01*
X2614Y-3629D01*
X2608Y-3624D01*
X2602Y-3620D01*
X2589Y-3614D01*
X2577Y-3609D01*
X2566Y-3607D01*
X2561Y-3606D01*
X2556Y-3605D01*
X2553Y-3605D01*
D02*
G37*
G36*
X5701Y-3746D02*
X5629D01*
Y-3760D01*
Y-3771D01*
X5630Y-3781D01*
X5634Y-3800D01*
X5639Y-3816D01*
X5642Y-3823D01*
X5644Y-3830D01*
X5647Y-3835D01*
X5650Y-3841D01*
X5653Y-3845D01*
X5655Y-3849D01*
X5657Y-3851D01*
X5659Y-3853D01*
X5659Y-3854D01*
X5660Y-3855D01*
X5666Y-3861D01*
X5672Y-3867D01*
X5678Y-3872D01*
X5685Y-3875D01*
X5699Y-3882D01*
X5712Y-3886D01*
X5724Y-3889D01*
X5728Y-3889D01*
X5733Y-3890D01*
X5736Y-3891D01*
X5741D01*
X5754Y-3890D01*
X5766Y-3887D01*
X5775Y-3885D01*
X5784Y-3881D01*
X5790Y-3877D01*
X5795Y-3874D01*
X5798Y-3872D01*
X5799Y-3872D01*
X5806Y-3864D01*
X5811Y-3856D01*
X5815Y-3847D01*
X5817Y-3839D01*
X5819Y-3832D01*
X5819Y-3826D01*
X5820Y-3822D01*
Y-3821D01*
Y-3820D01*
X5819Y-3813D01*
X5819Y-3807D01*
X5815Y-3795D01*
X5811Y-3785D01*
X5806Y-3777D01*
X5801Y-3771D01*
X5796Y-3767D01*
X5793Y-3764D01*
X5792Y-3763D01*
X5786Y-3760D01*
X5779Y-3757D01*
X5772Y-3755D01*
X5764Y-3753D01*
X5747Y-3750D01*
X5730Y-3748D01*
X5722Y-3748D01*
X5714Y-3747D01*
X5707D01*
X5701Y-3746D01*
D02*
G37*
G36*
X4271Y-5017D02*
X4267D01*
X4253Y-5018D01*
X4240Y-5021D01*
X4229Y-5025D01*
X4221Y-5030D01*
X4213Y-5036D01*
X4208Y-5039D01*
X4205Y-5043D01*
X4204Y-5044D01*
X4196Y-5055D01*
X4190Y-5067D01*
X4185Y-5080D01*
X4183Y-5091D01*
X4181Y-5102D01*
X4180Y-5106D01*
Y-5110D01*
X4179Y-5113D01*
Y-5116D01*
Y-5117D01*
Y-5118D01*
X4181Y-5134D01*
X4183Y-5149D01*
X4187Y-5161D01*
X4191Y-5172D01*
X4196Y-5181D01*
X4199Y-5186D01*
X4202Y-5190D01*
X4203Y-5192D01*
X4212Y-5201D01*
X4223Y-5207D01*
X4233Y-5212D01*
X4244Y-5215D01*
X4253Y-5217D01*
X4260Y-5218D01*
X4263Y-5219D01*
X4267D01*
X4281Y-5217D01*
X4293Y-5215D01*
X4305Y-5210D01*
X4314Y-5205D01*
X4321Y-5200D01*
X4326Y-5196D01*
X4330Y-5193D01*
X4331Y-5192D01*
X4339Y-5181D01*
X4344Y-5169D01*
X4348Y-5156D01*
X4351Y-5144D01*
X4353Y-5134D01*
X4353Y-5129D01*
Y-5125D01*
X4354Y-5122D01*
Y-5120D01*
Y-5118D01*
Y-5118D01*
X4353Y-5101D01*
X4350Y-5087D01*
X4347Y-5074D01*
X4342Y-5063D01*
X4338Y-5055D01*
X4334Y-5049D01*
X4332Y-5045D01*
X4331Y-5044D01*
X4321Y-5035D01*
X4311Y-5028D01*
X4300Y-5023D01*
X4290Y-5020D01*
X4281Y-5018D01*
X4274Y-5017D01*
X4271Y-5017D01*
D02*
G37*
G36*
X5385Y-3619D02*
X5385Y-3620D01*
Y-3619D01*
X5385Y-3619D01*
D02*
G37*
G36*
X1229Y-3605D02*
X1217D01*
X1209Y-3607D01*
X1195Y-3610D01*
X1183Y-3615D01*
X1172Y-3620D01*
X1164Y-3626D01*
X1158Y-3631D01*
X1155Y-3634D01*
X1153Y-3635D01*
Y-3635D01*
X1144Y-3647D01*
X1137Y-3660D01*
X1132Y-3673D01*
X1129Y-3686D01*
X1126Y-3697D01*
X1126Y-3702D01*
Y-3706D01*
X1125Y-3710D01*
Y-3712D01*
Y-3713D01*
Y-3714D01*
X1341Y-3715D01*
X1339Y-3696D01*
X1334Y-3680D01*
X1328Y-3666D01*
X1322Y-3655D01*
X1317Y-3646D01*
X1311Y-3639D01*
X1309Y-3637D01*
X1308Y-3635D01*
X1307Y-3634D01*
X1301Y-3629D01*
X1294Y-3624D01*
X1281Y-3618D01*
X1267Y-3612D01*
X1254Y-3608D01*
X1242Y-3607D01*
X1237Y-3606D01*
X1233D01*
X1229Y-3605D01*
D02*
G37*
G36*
X7156Y-3505D02*
X7066Y-3750D01*
X7247D01*
X7156Y-3505D01*
D02*
G37*
G36*
X4435Y-3605D02*
X4423D01*
X4415Y-3607D01*
X4400Y-3610D01*
X4389Y-3615D01*
X4378Y-3620D01*
X4370Y-3626D01*
X4364Y-3631D01*
X4360Y-3634D01*
X4359Y-3635D01*
Y-3635D01*
X4350Y-3647D01*
X4343Y-3660D01*
X4338Y-3673D01*
X4335Y-3686D01*
X4332Y-3697D01*
X4332Y-3702D01*
Y-3706D01*
X4331Y-3710D01*
Y-3712D01*
Y-3713D01*
Y-3714D01*
X4547Y-3715D01*
X4545Y-3696D01*
X4540Y-3680D01*
X4534Y-3666D01*
X4528Y-3655D01*
X4522Y-3646D01*
X4517Y-3639D01*
X4515Y-3637D01*
X4514Y-3635D01*
X4513Y-3634D01*
X4507Y-3629D01*
X4500Y-3624D01*
X4487Y-3618D01*
X4473Y-3612D01*
X4460Y-3608D01*
X4448Y-3607D01*
X4443Y-3606D01*
X4439D01*
X4435Y-3605D01*
D02*
G37*
%LPD*%
D46*
X12283Y-11240D02*
G03*
X12283Y-11240I-118J0D01*
G01*
D47*
X5659Y-7581D02*
G03*
X5659Y-7581I-49J0D01*
G01*
X11329Y-11811D02*
G03*
X11329Y-11811I-49J0D01*
G01*
D48*
X6161Y-5512D02*
X7028D01*
X6161Y-7480D02*
X7028D01*
Y-5512D01*
X6161Y-7480D02*
Y-5512D01*
X11772Y-11634D02*
Y-9626D01*
X13032Y-11634D02*
Y-9626D01*
X11772Y-11634D02*
X13032D01*
X11772Y-9626D02*
X13032D01*
D50*
X1437Y-6949D02*
Y-6437D01*
X1319Y-6949D02*
Y-6437D01*
X1031Y-8813D02*
X1331D01*
X1031Y-8313D02*
X1331D01*
X3596Y-7552D02*
Y-7252D01*
X3096Y-7552D02*
Y-7252D01*
X3096Y-6252D02*
Y-5952D01*
X3596Y-6252D02*
Y-5952D01*
X4581Y-6252D02*
Y-5952D01*
X4081Y-6252D02*
Y-5952D01*
D51*
X683Y-5538D02*
X748Y-5473D01*
X879D01*
X945Y-5538D01*
Y-5801D01*
X879Y-5866D01*
X748D01*
X683Y-5801D01*
X289Y-5473D02*
X551D01*
Y-5669D01*
X420Y-5604D01*
X355D01*
X289Y-5669D01*
Y-5801D01*
X355Y-5866D01*
X486D01*
X551Y-5801D01*
X6726Y-6562D02*
X6463D01*
X6398Y-6496D01*
Y-6365D01*
X6463Y-6299D01*
X6726D01*
X6791Y-6365D01*
Y-6496D01*
X6660Y-6430D02*
X6791Y-6562D01*
Y-6496D02*
X6726Y-6562D01*
X6791Y-6693D02*
Y-6824D01*
Y-6758D01*
X6398D01*
X6463Y-6693D01*
X2874Y-5866D02*
X2743D01*
X2808D01*
Y-5473D01*
X2874Y-5538D01*
X2546D02*
X2480Y-5473D01*
X2349D01*
X2284Y-5538D01*
Y-5801D01*
X2349Y-5866D01*
X2480D01*
X2546Y-5801D01*
Y-5538D01*
X2152D02*
X2087Y-5473D01*
X1956D01*
X1890Y-5538D01*
Y-5801D01*
X1956Y-5866D01*
X2087D01*
X2152Y-5801D01*
Y-5538D01*
X1759Y-5473D02*
Y-5866D01*
Y-5735D01*
X1497Y-5473D01*
X1693Y-5669D01*
X1497Y-5866D01*
X2795Y-6693D02*
Y-6299D01*
X2598D01*
X2533Y-6365D01*
Y-6496D01*
X2598Y-6562D01*
X2795D01*
X2664D02*
X2533Y-6693D01*
X2402Y-6365D02*
X2336Y-6299D01*
X2205D01*
X2139Y-6365D01*
Y-6431D01*
X2205Y-6496D01*
X2271D01*
X2205D01*
X2139Y-6562D01*
Y-6627D01*
X2205Y-6693D01*
X2336D01*
X2402Y-6627D01*
X4364Y-7776D02*
X4626D01*
X4364Y-7513D01*
Y-7448D01*
X4429Y-7382D01*
X4560D01*
X4626Y-7448D01*
X4232Y-7776D02*
Y-7382D01*
X4036D01*
X3970Y-7448D01*
Y-7579D01*
X4036Y-7644D01*
X4232D01*
X4101D02*
X3970Y-7776D01*
X4626Y-7185D02*
Y-6791D01*
X4429D01*
X4364Y-6857D01*
Y-6988D01*
X4429Y-7054D01*
X4626D01*
X4495D02*
X4364Y-7185D01*
X4036D02*
Y-6791D01*
X4232Y-6988D01*
X3970D01*
X2835Y-7677D02*
X2703D01*
X2769D01*
Y-7284D01*
X2835Y-7349D01*
X2507D02*
X2441Y-7284D01*
X2310D01*
X2244Y-7349D01*
Y-7612D01*
X2310Y-7677D01*
X2441D01*
X2507Y-7612D01*
Y-7349D01*
X2113D02*
X2048Y-7284D01*
X1916D01*
X1851Y-7349D01*
Y-7612D01*
X1916Y-7677D01*
X2048D01*
X2113Y-7612D01*
Y-7349D01*
X3583Y-8661D02*
Y-8268D01*
X3386D01*
X3320Y-8333D01*
Y-8465D01*
X3386Y-8530D01*
X3583D01*
X3451D02*
X3320Y-8661D01*
X3189Y-8268D02*
X2927D01*
Y-8333D01*
X3189Y-8596D01*
Y-8661D01*
X1417Y-9646D02*
X1286D01*
X1352D01*
Y-9252D01*
X1417Y-9318D01*
X1089Y-9252D02*
Y-9646D01*
Y-9514D01*
X827Y-9252D01*
X1024Y-9449D01*
X827Y-9646D01*
X1654Y-7717D02*
Y-7323D01*
X1457D01*
X1391Y-7389D01*
Y-7520D01*
X1457Y-7585D01*
X1654D01*
X1522D02*
X1391Y-7717D01*
X1260D02*
X1129D01*
X1194D01*
Y-7323D01*
X1260Y-7389D01*
X932D02*
X866Y-7323D01*
X735D01*
X670Y-7389D01*
Y-7651D01*
X735Y-7717D01*
X866D01*
X932Y-7651D01*
Y-7389D01*
X12598Y-8760D02*
Y-9088D01*
X12533Y-9154D01*
X12402D01*
X12336Y-9088D01*
Y-8760D01*
X12205Y-8826D02*
X12139Y-8760D01*
X12008D01*
X11942Y-8826D01*
Y-8891D01*
X12008Y-8957D01*
X12074D01*
X12008D01*
X11942Y-9022D01*
Y-9088D01*
X12008Y-9154D01*
X12139D01*
X12205Y-9088D01*
D85*
X11153Y-6811D02*
Y-5787D01*
X8533Y-6811D02*
Y-5787D01*
Y-6811D02*
X11153D01*
X8533Y-5787D02*
X11153D01*
M02*
