G04 Layer_Physical_Order=1*
G04 Layer_Color=255*
%FSLAX24Y24*%
%MOIN*%
G70*
G01*
G75*
%ADD10R,0.0240X0.0800*%
%ADD11O,0.0240X0.0800*%
%ADD12R,0.0551X0.0236*%
%ADD13R,0.0709X0.0236*%
G04:AMPARAMS|DCode=14|XSize=74.8mil|YSize=126mil|CornerRadius=0mil|HoleSize=0mil|Usage=FLASHONLY|Rotation=270.000|XOffset=0mil|YOffset=0mil|HoleType=Round|Shape=Octagon|*
%AMOCTAGOND14*
4,1,8,0.0630,0.0187,0.0630,-0.0187,0.0443,-0.0374,-0.0443,-0.0374,-0.0630,-0.0187,-0.0630,0.0187,-0.0443,0.0374,0.0443,0.0374,0.0630,0.0187,0.0*
%
%ADD14OCTAGOND14*%

%ADD15O,0.0866X0.0236*%
G04:AMPARAMS|DCode=16|XSize=94.5mil|YSize=78.7mil|CornerRadius=19.7mil|HoleSize=0mil|Usage=FLASHONLY|Rotation=180.000|XOffset=0mil|YOffset=0mil|HoleType=Round|Shape=RoundedRectangle|*
%AMROUNDEDRECTD16*
21,1,0.0945,0.0394,0,0,180.0*
21,1,0.0551,0.0787,0,0,180.0*
1,1,0.0394,-0.0276,0.0197*
1,1,0.0394,0.0276,0.0197*
1,1,0.0394,0.0276,-0.0197*
1,1,0.0394,-0.0276,-0.0197*
%
%ADD16ROUNDEDRECTD16*%
G04:AMPARAMS|DCode=17|XSize=55.1mil|YSize=39.4mil|CornerRadius=2mil|HoleSize=0mil|Usage=FLASHONLY|Rotation=0.000|XOffset=0mil|YOffset=0mil|HoleType=Round|Shape=RoundedRectangle|*
%AMROUNDEDRECTD17*
21,1,0.0551,0.0354,0,0,0.0*
21,1,0.0512,0.0394,0,0,0.0*
1,1,0.0039,0.0256,-0.0177*
1,1,0.0039,-0.0256,-0.0177*
1,1,0.0039,-0.0256,0.0177*
1,1,0.0039,0.0256,0.0177*
%
%ADD17ROUNDEDRECTD17*%
%ADD18R,0.0394X0.0591*%
%ADD19R,0.0354X0.0354*%
G04:AMPARAMS|DCode=20|XSize=51.2mil|YSize=31.5mil|CornerRadius=1.6mil|HoleSize=0mil|Usage=FLASHONLY|Rotation=180.000|XOffset=0mil|YOffset=0mil|HoleType=Round|Shape=RoundedRectangle|*
%AMROUNDEDRECTD20*
21,1,0.0512,0.0283,0,0,180.0*
21,1,0.0480,0.0315,0,0,180.0*
1,1,0.0032,-0.0240,0.0142*
1,1,0.0032,0.0240,0.0142*
1,1,0.0032,0.0240,-0.0142*
1,1,0.0032,-0.0240,-0.0142*
%
%ADD20ROUNDEDRECTD20*%
G04:AMPARAMS|DCode=21|XSize=51.2mil|YSize=31.5mil|CornerRadius=1.6mil|HoleSize=0mil|Usage=FLASHONLY|Rotation=270.000|XOffset=0mil|YOffset=0mil|HoleType=Round|Shape=RoundedRectangle|*
%AMROUNDEDRECTD21*
21,1,0.0512,0.0283,0,0,270.0*
21,1,0.0480,0.0315,0,0,270.0*
1,1,0.0032,-0.0142,-0.0240*
1,1,0.0032,-0.0142,0.0240*
1,1,0.0032,0.0142,0.0240*
1,1,0.0032,0.0142,-0.0240*
%
%ADD21ROUNDEDRECTD21*%
G04:AMPARAMS|DCode=22|XSize=23.6mil|YSize=39.4mil|CornerRadius=3mil|HoleSize=0mil|Usage=FLASHONLY|Rotation=270.000|XOffset=0mil|YOffset=0mil|HoleType=Round|Shape=RoundedRectangle|*
%AMROUNDEDRECTD22*
21,1,0.0236,0.0335,0,0,270.0*
21,1,0.0177,0.0394,0,0,270.0*
1,1,0.0059,-0.0167,-0.0089*
1,1,0.0059,-0.0167,0.0089*
1,1,0.0059,0.0167,0.0089*
1,1,0.0059,0.0167,-0.0089*
%
%ADD22ROUNDEDRECTD22*%
%ADD23C,0.0118*%
%ADD24C,0.0197*%
%ADD25C,0.0394*%
%ADD26C,0.0295*%
%ADD27C,0.0200*%
%ADD28C,0.0630*%
%ADD29O,0.1102X0.1496*%
%ADD30O,0.1614X0.1220*%
%ADD31O,0.1614X0.1181*%
%ADD32C,0.0600*%
%ADD33C,0.0591*%
%ADD34R,0.0591X0.0591*%
%ADD35R,0.0591X0.0591*%
%ADD36O,0.1181X0.1968*%
%ADD37C,0.1181*%
%ADD38C,0.0236*%
%ADD39C,0.0197*%
G36*
X15940Y-14982D02*
X15890Y-14992D01*
X15874Y-14952D01*
X15867Y-14943D01*
X15865Y-14939D01*
X15863Y-14936D01*
X15858Y-14925D01*
X15801Y-14851D01*
X15792Y-14843D01*
X15790Y-14840D01*
X15787Y-14838D01*
X15779Y-14829D01*
X15705Y-14772D01*
X15694Y-14767D01*
X15691Y-14764D01*
X15687Y-14763D01*
X15678Y-14756D01*
X15591Y-14721D01*
X15580Y-14718D01*
X15576Y-14717D01*
X15572Y-14716D01*
X15561Y-14713D01*
X15468Y-14700D01*
X15461Y-14701D01*
X15453Y-14699D01*
X15445Y-14701D01*
X15437Y-14700D01*
X15345Y-14713D01*
X15333Y-14716D01*
X15329Y-14717D01*
X15326Y-14718D01*
X15314Y-14721D01*
X15228Y-14756D01*
X15218Y-14763D01*
X15215Y-14764D01*
X15211Y-14767D01*
X15201Y-14772D01*
X15127Y-14829D01*
X15119Y-14838D01*
X15116Y-14840D01*
X15113Y-14843D01*
X15105Y-14851D01*
X15048Y-14925D01*
X15042Y-14936D01*
X15040Y-14939D01*
X15039Y-14943D01*
X15032Y-14952D01*
X14996Y-15039D01*
X14994Y-15050D01*
X14992Y-15054D01*
X14992Y-15058D01*
X14988Y-15069D01*
X14976Y-15161D01*
X14977Y-15173D01*
X14976Y-15177D01*
X14977Y-15181D01*
X14976Y-15193D01*
X14988Y-15285D01*
X14992Y-15297D01*
X14992Y-15301D01*
X14994Y-15304D01*
X14996Y-15315D01*
X14994Y-15326D01*
X14992Y-15329D01*
X14992Y-15333D01*
X14988Y-15345D01*
X14976Y-15437D01*
X14977Y-15449D01*
X14976Y-15453D01*
X14977Y-15457D01*
X14976Y-15468D01*
X14988Y-15561D01*
X14992Y-15571D01*
X14988Y-15581D01*
X14976Y-15673D01*
X14977Y-15685D01*
X14976Y-15689D01*
X14977Y-15693D01*
X14976Y-15705D01*
X14988Y-15797D01*
X14992Y-15808D01*
X14992Y-15812D01*
X14994Y-15816D01*
X14996Y-15828D01*
X15032Y-15914D01*
X15039Y-15924D01*
X15040Y-15927D01*
X15042Y-15930D01*
X15048Y-15941D01*
X15105Y-16015D01*
X15113Y-16023D01*
X15116Y-16026D01*
X15119Y-16028D01*
X15127Y-16037D01*
X15201Y-16094D01*
X15211Y-16099D01*
X15215Y-16102D01*
X15218Y-16103D01*
X15228Y-16110D01*
X15314Y-16145D01*
X15326Y-16148D01*
X15329Y-16149D01*
X15333Y-16150D01*
X15345Y-16154D01*
X15437Y-16166D01*
X15445Y-16165D01*
X15453Y-16167D01*
X15461Y-16165D01*
X15468Y-16166D01*
X15561Y-16154D01*
X15572Y-16150D01*
X15576Y-16149D01*
X15580Y-16148D01*
X15591Y-16145D01*
X15678Y-16110D01*
X15687Y-16103D01*
X15691Y-16102D01*
X15694Y-16099D01*
X15705Y-16094D01*
X15779Y-16037D01*
X15787Y-16028D01*
X15790Y-16026D01*
X15792Y-16023D01*
X15801Y-16015D01*
X15858Y-15941D01*
X15863Y-15930D01*
X15865Y-15927D01*
X15867Y-15924D01*
X15874Y-15914D01*
X15890Y-15874D01*
X15940Y-15884D01*
Y-17756D01*
X13041D01*
X13027Y-17725D01*
X13024Y-17706D01*
X13025Y-17704D01*
X13034Y-17697D01*
X13097Y-17614D01*
X13102Y-17604D01*
X13105Y-17601D01*
X13106Y-17597D01*
X13113Y-17587D01*
X13152Y-17491D01*
X13155Y-17480D01*
X13156Y-17476D01*
X13157Y-17472D01*
X13160Y-17461D01*
X13174Y-17358D01*
X13173Y-17346D01*
X13174Y-17343D01*
X13173Y-17339D01*
X13174Y-17327D01*
X13160Y-17224D01*
X13157Y-17213D01*
X13156Y-17209D01*
X13155Y-17205D01*
X13152Y-17194D01*
X13113Y-17098D01*
X13106Y-17088D01*
X13105Y-17084D01*
X13102Y-17081D01*
X13097Y-17071D01*
X13034Y-16988D01*
X13025Y-16981D01*
X13023Y-16977D01*
X13019Y-16975D01*
X13012Y-16966D01*
X12929Y-16903D01*
X12919Y-16898D01*
X12916Y-16895D01*
X12912Y-16894D01*
X12902Y-16887D01*
X12806Y-16848D01*
X12795Y-16845D01*
X12791Y-16844D01*
X12787Y-16843D01*
X12776Y-16840D01*
X12673Y-16826D01*
X12665Y-16827D01*
X12657Y-16825D01*
X12650Y-16827D01*
X12642Y-16826D01*
X12539Y-16840D01*
X12528Y-16843D01*
X12524Y-16844D01*
X12520Y-16845D01*
X12509Y-16848D01*
X12413Y-16887D01*
X12403Y-16894D01*
X12399Y-16895D01*
X12396Y-16898D01*
X12386Y-16903D01*
X12303Y-16966D01*
X12296Y-16975D01*
X12292Y-16977D01*
X12290Y-16981D01*
X12281Y-16988D01*
X12218Y-17071D01*
X12213Y-17081D01*
X12210Y-17084D01*
X12209Y-17088D01*
X12202Y-17098D01*
X12163Y-17194D01*
X12160Y-17205D01*
X12159Y-17209D01*
X12158Y-17213D01*
X12155Y-17224D01*
X12141Y-17327D01*
X12142Y-17339D01*
X12141Y-17343D01*
X12142Y-17346D01*
X12141Y-17358D01*
X12155Y-17461D01*
X12158Y-17472D01*
X12159Y-17476D01*
X12160Y-17480D01*
X12163Y-17491D01*
X12202Y-17587D01*
X12209Y-17597D01*
X12210Y-17601D01*
X12213Y-17604D01*
X12218Y-17614D01*
X12281Y-17697D01*
X12290Y-17704D01*
X12291Y-17706D01*
X12288Y-17725D01*
X12274Y-17756D01*
X3671D01*
X3657Y-17725D01*
X3654Y-17706D01*
X3655Y-17704D01*
X3664Y-17697D01*
X3727Y-17614D01*
X3732Y-17604D01*
X3734Y-17601D01*
X3736Y-17597D01*
X3743Y-17587D01*
X3782Y-17491D01*
X3785Y-17480D01*
X3786Y-17476D01*
X3787Y-17472D01*
X3790Y-17461D01*
X3804Y-17358D01*
X3803Y-17346D01*
X3804Y-17343D01*
X3803Y-17339D01*
X3804Y-17327D01*
X3790Y-17224D01*
X3787Y-17213D01*
X3786Y-17209D01*
X3785Y-17205D01*
X3782Y-17194D01*
X3743Y-17098D01*
X3736Y-17088D01*
X3734Y-17084D01*
X3732Y-17081D01*
X3727Y-17071D01*
X3664Y-16988D01*
X3655Y-16981D01*
X3652Y-16977D01*
X3649Y-16975D01*
X3641Y-16966D01*
X3559Y-16903D01*
X3549Y-16898D01*
X3546Y-16895D01*
X3542Y-16894D01*
X3532Y-16887D01*
X3436Y-16848D01*
X3425Y-16845D01*
X3421Y-16844D01*
X3417Y-16843D01*
X3406Y-16840D01*
X3303Y-16826D01*
X3295Y-16827D01*
X3287Y-16825D01*
X3280Y-16827D01*
X3272Y-16826D01*
X3169Y-16840D01*
X3158Y-16843D01*
X3154Y-16844D01*
X3150Y-16845D01*
X3139Y-16848D01*
X3043Y-16887D01*
X3033Y-16894D01*
X3029Y-16895D01*
X3026Y-16898D01*
X3016Y-16903D01*
X2933Y-16966D01*
X2925Y-16975D01*
X2922Y-16977D01*
X2920Y-16981D01*
X2911Y-16988D01*
X2848Y-17071D01*
X2843Y-17081D01*
X2840Y-17084D01*
X2839Y-17088D01*
X2832Y-17098D01*
X2793Y-17194D01*
X2790Y-17205D01*
X2789Y-17209D01*
X2788Y-17213D01*
X2784Y-17224D01*
X2771Y-17327D01*
X2772Y-17339D01*
X2771Y-17343D01*
X2772Y-17346D01*
X2771Y-17358D01*
X2784Y-17461D01*
X2788Y-17472D01*
X2789Y-17476D01*
X2790Y-17480D01*
X2793Y-17491D01*
X2832Y-17587D01*
X2839Y-17597D01*
X2840Y-17601D01*
X2843Y-17604D01*
X2848Y-17614D01*
X2911Y-17697D01*
X2920Y-17704D01*
X2921Y-17706D01*
X2918Y-17725D01*
X2904Y-17756D01*
X-34D01*
Y-15738D01*
X-31Y-15735D01*
X22Y-15754D01*
X28Y-15797D01*
X31Y-15808D01*
X32Y-15812D01*
X33Y-15816D01*
X36Y-15828D01*
X71Y-15914D01*
X78Y-15924D01*
X79Y-15927D01*
X82Y-15930D01*
X87Y-15941D01*
X144Y-16015D01*
X153Y-16023D01*
X155Y-16026D01*
X158Y-16028D01*
X166Y-16037D01*
X240Y-16094D01*
X251Y-16099D01*
X254Y-16102D01*
X257Y-16103D01*
X267Y-16110D01*
X354Y-16145D01*
X365Y-16148D01*
X369Y-16149D01*
X373Y-16150D01*
X384Y-16154D01*
X476Y-16166D01*
X484Y-16165D01*
X492Y-16167D01*
X500Y-16165D01*
X508Y-16166D01*
X600Y-16154D01*
X612Y-16150D01*
X615Y-16149D01*
X619Y-16148D01*
X631Y-16145D01*
X717Y-16110D01*
X727Y-16103D01*
X730Y-16102D01*
X733Y-16099D01*
X744Y-16094D01*
X818Y-16037D01*
X826Y-16028D01*
X829Y-16026D01*
X831Y-16023D01*
X840Y-16015D01*
X897Y-15941D01*
X902Y-15930D01*
X905Y-15927D01*
X906Y-15924D01*
X913Y-15914D01*
X949Y-15828D01*
X951Y-15816D01*
X952Y-15812D01*
X953Y-15808D01*
X957Y-15797D01*
X969Y-15705D01*
X968Y-15693D01*
X969Y-15689D01*
X968Y-15685D01*
X969Y-15673D01*
X957Y-15581D01*
X953Y-15571D01*
X957Y-15561D01*
X969Y-15468D01*
X968Y-15457D01*
X969Y-15453D01*
X968Y-15449D01*
X969Y-15437D01*
X957Y-15345D01*
X953Y-15333D01*
X952Y-15329D01*
X951Y-15326D01*
X949Y-15315D01*
X951Y-15304D01*
X952Y-15301D01*
X953Y-15297D01*
X957Y-15285D01*
X969Y-15193D01*
X968Y-15181D01*
X969Y-15177D01*
X968Y-15173D01*
X969Y-15161D01*
X957Y-15069D01*
X953Y-15058D01*
X952Y-15054D01*
X951Y-15050D01*
X949Y-15039D01*
X913Y-14952D01*
X906Y-14943D01*
X905Y-14939D01*
X902Y-14936D01*
X897Y-14925D01*
X840Y-14851D01*
X831Y-14843D01*
X829Y-14840D01*
X826Y-14838D01*
X818Y-14829D01*
X744Y-14772D01*
X733Y-14767D01*
X730Y-14764D01*
X727Y-14763D01*
X717Y-14756D01*
X631Y-14721D01*
X619Y-14718D01*
X615Y-14717D01*
X612Y-14716D01*
X600Y-14713D01*
X508Y-14700D01*
X500Y-14701D01*
X492Y-14699D01*
X484Y-14701D01*
X476Y-14700D01*
X384Y-14713D01*
X373Y-14716D01*
X369Y-14717D01*
X365Y-14718D01*
X354Y-14721D01*
X267Y-14756D01*
X257Y-14763D01*
X254Y-14764D01*
X251Y-14767D01*
X240Y-14772D01*
X166Y-14829D01*
X158Y-14838D01*
X155Y-14840D01*
X153Y-14843D01*
X144Y-14851D01*
X87Y-14925D01*
X82Y-14936D01*
X79Y-14939D01*
X78Y-14943D01*
X71Y-14952D01*
X36Y-15039D01*
X33Y-15050D01*
X32Y-15054D01*
X31Y-15058D01*
X28Y-15069D01*
X22Y-15112D01*
X-31Y-15131D01*
X-34Y-15128D01*
Y-39D01*
X15940D01*
Y-14982D01*
D02*
G37*
%LPC*%
G36*
X7201Y-2044D02*
X7062Y-2057D01*
X6928Y-2098D01*
X6805Y-2164D01*
X6697Y-2252D01*
X6609Y-2360D01*
X6543Y-2483D01*
X6502Y-2617D01*
X6489Y-2756D01*
X6502Y-2895D01*
X6543Y-3028D01*
X6609Y-3152D01*
X6697Y-3259D01*
X6805Y-3348D01*
X6928Y-3414D01*
X6933Y-3415D01*
Y-4294D01*
X6921Y-4303D01*
X6871Y-4369D01*
X6839Y-4445D01*
X6828Y-4528D01*
Y-4921D01*
X6839Y-5003D01*
X6871Y-5080D01*
X6921Y-5146D01*
X6987Y-5196D01*
X7063Y-5228D01*
X7083Y-5231D01*
X7099Y-5278D01*
X6454Y-5923D01*
X6354D01*
X6302Y-5933D01*
X6258Y-5963D01*
X6228Y-6007D01*
X6218Y-6059D01*
Y-6343D01*
X6228Y-6395D01*
X6258Y-6439D01*
X6299Y-6467D01*
Y-6722D01*
X6258Y-6750D01*
X6228Y-6794D01*
X6218Y-6846D01*
Y-7130D01*
X6228Y-7182D01*
X6258Y-7226D01*
X6302Y-7256D01*
X6354Y-7266D01*
X6372D01*
Y-7750D01*
X6056D01*
X6045Y-7734D01*
X6001Y-7705D01*
X5949Y-7694D01*
X5469D01*
X5416Y-7705D01*
X5372Y-7734D01*
X5342Y-7778D01*
X5332Y-7831D01*
Y-8114D01*
X5342Y-8166D01*
X5372Y-8211D01*
X5413Y-8238D01*
Y-8602D01*
X6004D01*
Y-8238D01*
X6045Y-8211D01*
X6056Y-8195D01*
X6372D01*
X6409Y-8220D01*
X6467Y-8231D01*
X6801D01*
X6859Y-8220D01*
X6908Y-8187D01*
X6940Y-8138D01*
X6952Y-8081D01*
Y-7904D01*
X6940Y-7846D01*
X6908Y-7797D01*
X6859Y-7764D01*
X6817Y-7756D01*
Y-7266D01*
X6835D01*
X6887Y-7256D01*
X6931Y-7226D01*
X6961Y-7182D01*
X6971Y-7130D01*
Y-6846D01*
X6961Y-6794D01*
X6931Y-6750D01*
X6890Y-6722D01*
Y-6467D01*
X6931Y-6439D01*
X6961Y-6395D01*
X6971Y-6343D01*
Y-6164D01*
X7611Y-5524D01*
X7611Y-5524D01*
X7653Y-5469D01*
X7680Y-5404D01*
X7689Y-5335D01*
Y-5239D01*
X7697D01*
X7779Y-5228D01*
X7856Y-5196D01*
X7921Y-5146D01*
X7972Y-5080D01*
X8004Y-5003D01*
X8015Y-4921D01*
Y-4528D01*
X8004Y-4445D01*
X7972Y-4369D01*
X7921Y-4303D01*
X7856Y-4252D01*
X7779Y-4221D01*
X7697Y-4210D01*
X7469D01*
Y-3415D01*
X7473Y-3414D01*
X7596Y-3348D01*
X7704Y-3259D01*
X7793Y-3152D01*
X7859Y-3028D01*
X7899Y-2895D01*
X7913Y-2756D01*
X7899Y-2617D01*
X7859Y-2483D01*
X7793Y-2360D01*
X7704Y-2252D01*
X7596Y-2164D01*
X7473Y-2098D01*
X7340Y-2057D01*
X7201Y-2044D01*
D02*
G37*
G36*
X10669Y-5175D02*
X10118D01*
X10072Y-5184D01*
X10033Y-5210D01*
X10007Y-5249D01*
X9998Y-5295D01*
Y-5531D01*
X10007Y-5578D01*
X10033Y-5617D01*
X10072Y-5643D01*
X10118Y-5652D01*
X10669D01*
X10715Y-5643D01*
X10721Y-5639D01*
X11537Y-6455D01*
X11608Y-6503D01*
X11693Y-6520D01*
X12281D01*
Y-6594D01*
X12290Y-6641D01*
X12316Y-6680D01*
X12356Y-6706D01*
X12402Y-6715D01*
X12992D01*
X13038Y-6706D01*
X13077Y-6680D01*
X13103Y-6641D01*
X13113Y-6594D01*
Y-6004D01*
X13103Y-5958D01*
X13077Y-5919D01*
X13038Y-5893D01*
X12992Y-5884D01*
X12402D01*
X12356Y-5893D01*
X12316Y-5919D01*
X12290Y-5958D01*
X12281Y-6004D01*
Y-6078D01*
X11784D01*
X10963Y-5257D01*
X10892Y-5209D01*
X10807Y-5193D01*
X10728D01*
X10715Y-5184D01*
X10669Y-5175D01*
D02*
G37*
G36*
X13760Y-9844D02*
X13130D01*
X13038Y-9862D01*
X12960Y-9914D01*
X12907Y-9992D01*
X12889Y-10085D01*
X12907Y-10177D01*
X12960Y-10255D01*
X13038Y-10307D01*
X13048Y-10309D01*
Y-10360D01*
X13038Y-10362D01*
X12960Y-10414D01*
X12907Y-10492D01*
X12889Y-10585D01*
X12907Y-10677D01*
X12960Y-10755D01*
X13038Y-10807D01*
X13048Y-10809D01*
Y-10860D01*
X13038Y-10862D01*
X12960Y-10914D01*
X12907Y-10992D01*
X12889Y-11085D01*
X12907Y-11177D01*
X12960Y-11255D01*
X13038Y-11307D01*
X13048Y-11309D01*
Y-11360D01*
X13038Y-11362D01*
X12960Y-11414D01*
X12907Y-11492D01*
X12889Y-11585D01*
X12907Y-11677D01*
X12960Y-11755D01*
X13038Y-11807D01*
X13048Y-11809D01*
Y-11860D01*
X13038Y-11862D01*
X12960Y-11914D01*
X12907Y-11992D01*
X12889Y-12085D01*
X12907Y-12177D01*
X12960Y-12255D01*
X13038Y-12307D01*
X13130Y-12325D01*
X13760D01*
X13852Y-12307D01*
X13930Y-12255D01*
X13982Y-12177D01*
X14001Y-12085D01*
X13982Y-11992D01*
X13930Y-11914D01*
X13852Y-11862D01*
X13842Y-11860D01*
Y-11809D01*
X13852Y-11807D01*
X13930Y-11755D01*
X13982Y-11677D01*
X14001Y-11585D01*
X13982Y-11492D01*
X13930Y-11414D01*
X13852Y-11362D01*
X13842Y-11360D01*
Y-11309D01*
X13852Y-11307D01*
X13930Y-11255D01*
X13982Y-11177D01*
X14001Y-11085D01*
X13982Y-10992D01*
X13930Y-10914D01*
X13852Y-10862D01*
X13842Y-10860D01*
Y-10809D01*
X13852Y-10807D01*
X13930Y-10755D01*
X13982Y-10677D01*
X14001Y-10585D01*
X13982Y-10492D01*
X13930Y-10414D01*
X13852Y-10362D01*
X13842Y-10360D01*
Y-10309D01*
X13852Y-10307D01*
X13930Y-10255D01*
X13982Y-10177D01*
X14001Y-10085D01*
X13982Y-9992D01*
X13930Y-9914D01*
X13852Y-9862D01*
X13760Y-9844D01*
D02*
G37*
G36*
X5020Y-13064D02*
X5012Y-13066D01*
X5004Y-13065D01*
X4875Y-13082D01*
X4861Y-13087D01*
X4845Y-13090D01*
X4791Y-13113D01*
X4785Y-13115D01*
X4779Y-13118D01*
X4725Y-13140D01*
X4712Y-13149D01*
X4698Y-13156D01*
X4595Y-13235D01*
X4585Y-13246D01*
X4573Y-13257D01*
X4494Y-13360D01*
X4487Y-13374D01*
X4479Y-13387D01*
X4456Y-13441D01*
X4453Y-13446D01*
X4451Y-13453D01*
X4429Y-13507D01*
X4426Y-13522D01*
X4421Y-13537D01*
X4404Y-13665D01*
X4405Y-13681D01*
X4404Y-13697D01*
X4421Y-13825D01*
X4426Y-13840D01*
X4429Y-13856D01*
X4451Y-13910D01*
X4453Y-13916D01*
X4456Y-13922D01*
X4479Y-13975D01*
X4487Y-13988D01*
X4494Y-14003D01*
X4573Y-14105D01*
X4585Y-14116D01*
X4595Y-14128D01*
X4698Y-14207D01*
X4712Y-14213D01*
X4725Y-14222D01*
X4779Y-14245D01*
X4785Y-14248D01*
X4791Y-14250D01*
X4845Y-14272D01*
X4861Y-14275D01*
X4875Y-14280D01*
X5004Y-14297D01*
X5012Y-14296D01*
X5020Y-14298D01*
X5027Y-14296D01*
X5035Y-14297D01*
X5164Y-14280D01*
X5179Y-14275D01*
X5194Y-14272D01*
X5248Y-14250D01*
X5254Y-14248D01*
X5260Y-14245D01*
X5314Y-14222D01*
X5327Y-14213D01*
X5341Y-14207D01*
X5444Y-14128D01*
X5454Y-14116D01*
X5466Y-14105D01*
X5545Y-14003D01*
X5552Y-13988D01*
X5561Y-13975D01*
X5583Y-13922D01*
X5586Y-13916D01*
X5588Y-13910D01*
X5610Y-13856D01*
X5613Y-13840D01*
X5619Y-13825D01*
X5635Y-13697D01*
X5634Y-13681D01*
X5635Y-13665D01*
X5619Y-13537D01*
X5613Y-13522D01*
X5610Y-13507D01*
X5588Y-13453D01*
X5586Y-13446D01*
X5583Y-13441D01*
X5561Y-13387D01*
X5552Y-13374D01*
X5545Y-13360D01*
X5466Y-13257D01*
X5454Y-13246D01*
X5444Y-13235D01*
X5341Y-13156D01*
X5327Y-13149D01*
X5314Y-13140D01*
X5260Y-13118D01*
X5254Y-13115D01*
X5248Y-13113D01*
X5194Y-13090D01*
X5179Y-13087D01*
X5164Y-13082D01*
X5035Y-13065D01*
X5027Y-13066D01*
X5020Y-13064D01*
D02*
G37*
G36*
X10925D02*
X10917Y-13066D01*
X10909Y-13065D01*
X10781Y-13082D01*
X10766Y-13087D01*
X10751Y-13090D01*
X10697Y-13113D01*
X10691Y-13115D01*
X10685Y-13118D01*
X10631Y-13140D01*
X10618Y-13149D01*
X10604Y-13156D01*
X10501Y-13235D01*
X10491Y-13246D01*
X10479Y-13257D01*
X10400Y-13360D01*
X10393Y-13374D01*
X10384Y-13387D01*
X10362Y-13441D01*
X10359Y-13446D01*
X10357Y-13453D01*
X10334Y-13507D01*
X10331Y-13522D01*
X10326Y-13537D01*
X10309Y-13665D01*
X10310Y-13681D01*
X10309Y-13697D01*
X10326Y-13825D01*
X10331Y-13840D01*
X10334Y-13856D01*
X10357Y-13910D01*
X10359Y-13916D01*
X10362Y-13922D01*
X10384Y-13975D01*
X10393Y-13988D01*
X10400Y-14003D01*
X10479Y-14105D01*
X10491Y-14116D01*
X10501Y-14128D01*
X10604Y-14207D01*
X10618Y-14213D01*
X10631Y-14222D01*
X10685Y-14245D01*
X10691Y-14248D01*
X10697Y-14250D01*
X10751Y-14272D01*
X10766Y-14275D01*
X10781Y-14280D01*
X10909Y-14297D01*
X10917Y-14296D01*
X10925Y-14298D01*
X10933Y-14296D01*
X10941Y-14297D01*
X11069Y-14280D01*
X11084Y-14275D01*
X11100Y-14272D01*
X11154Y-14250D01*
X11160Y-14248D01*
X11166Y-14245D01*
X11219Y-14222D01*
X11233Y-14213D01*
X11247Y-14207D01*
X11349Y-14128D01*
X11360Y-14116D01*
X11372Y-14105D01*
X11451Y-14003D01*
X11458Y-13988D01*
X11466Y-13975D01*
X11489Y-13922D01*
X11492Y-13916D01*
X11494Y-13910D01*
X11516Y-13856D01*
X11519Y-13840D01*
X11524Y-13825D01*
X11541Y-13697D01*
X11540Y-13681D01*
X11541Y-13665D01*
X11524Y-13537D01*
X11519Y-13522D01*
X11516Y-13507D01*
X11494Y-13453D01*
X11492Y-13446D01*
X11489Y-13441D01*
X11466Y-13387D01*
X11458Y-13374D01*
X11451Y-13360D01*
X11372Y-13257D01*
X11360Y-13246D01*
X11350Y-13235D01*
X11247Y-13156D01*
X11233Y-13149D01*
X11219Y-13140D01*
X11166Y-13118D01*
X11160Y-13115D01*
X11154Y-13113D01*
X11100Y-13090D01*
X11084Y-13087D01*
X11069Y-13082D01*
X10941Y-13065D01*
X10933Y-13066D01*
X10925Y-13064D01*
D02*
G37*
G36*
X4512Y-6474D02*
X4228D01*
X4176Y-6484D01*
X4132Y-6514D01*
X4104Y-6555D01*
X3849D01*
X3821Y-6514D01*
X3777Y-6484D01*
X3724Y-6474D01*
X3441D01*
X3389Y-6484D01*
X3344Y-6514D01*
X3315Y-6558D01*
X3304Y-6610D01*
Y-6630D01*
X1299D01*
X1215Y-6646D01*
X1143Y-6694D01*
X1009Y-6828D01*
X961Y-6900D01*
X945Y-6984D01*
Y-7102D01*
X941Y-7107D01*
X941Y-7108D01*
X890D01*
X890Y-7107D01*
X837Y-7029D01*
X758Y-6976D01*
X665Y-6958D01*
X572Y-6976D01*
X494Y-7029D01*
X441Y-7107D01*
X423Y-7200D01*
Y-7760D01*
X441Y-7853D01*
X443Y-7856D01*
Y-8067D01*
X443Y-8067D01*
X460Y-8152D01*
X508Y-8224D01*
X1457Y-9173D01*
X1457Y-9173D01*
X1472Y-9183D01*
X1476Y-9192D01*
X1482Y-9245D01*
X1441Y-9307D01*
X1441Y-9308D01*
X1390D01*
X1390Y-9307D01*
X1337Y-9229D01*
X1258Y-9176D01*
X1165Y-9158D01*
X1072Y-9176D01*
X994Y-9229D01*
X941Y-9307D01*
X941Y-9308D01*
X890D01*
X890Y-9307D01*
X837Y-9229D01*
X758Y-9176D01*
X665Y-9158D01*
X572Y-9176D01*
X494Y-9229D01*
X441Y-9307D01*
X423Y-9400D01*
Y-9464D01*
X354D01*
X270Y-9481D01*
X198Y-9529D01*
X150Y-9601D01*
X134Y-9685D01*
X150Y-9770D01*
X198Y-9841D01*
X270Y-9889D01*
X354Y-9906D01*
X423D01*
Y-9960D01*
X441Y-10053D01*
X494Y-10132D01*
X572Y-10185D01*
X665Y-10203D01*
X758Y-10185D01*
X837Y-10132D01*
X865Y-10090D01*
X929Y-10085D01*
X945Y-10101D01*
Y-10763D01*
X871Y-10819D01*
X804Y-10906D01*
X763Y-11006D01*
X748Y-11114D01*
X763Y-11222D01*
X804Y-11323D01*
X871Y-11409D01*
X957Y-11475D01*
X1057Y-11517D01*
X1165Y-11531D01*
X1258Y-11519D01*
X1761Y-12022D01*
X1748Y-12114D01*
X1763Y-12222D01*
X1804Y-12323D01*
X1871Y-12409D01*
X1957Y-12475D01*
X2057Y-12517D01*
X2165Y-12531D01*
X2273Y-12517D01*
X2374Y-12475D01*
X2460Y-12409D01*
X2517Y-12335D01*
X4421D01*
X4506Y-12318D01*
X4577Y-12270D01*
X5373Y-11475D01*
X5421Y-11403D01*
X5433Y-11341D01*
X5512D01*
X5558Y-11332D01*
X5597Y-11306D01*
X5623Y-11267D01*
X5632Y-11220D01*
Y-10630D01*
X5623Y-10584D01*
X5597Y-10545D01*
X5558Y-10519D01*
X5512Y-10510D01*
X4921D01*
X4875Y-10519D01*
X4836Y-10545D01*
X4810Y-10584D01*
X4801Y-10630D01*
Y-11220D01*
X4810Y-11267D01*
X4836Y-11306D01*
X4843Y-11310D01*
X4849Y-11374D01*
X4330Y-11893D01*
X2517D01*
X2460Y-11819D01*
X2374Y-11753D01*
X2273Y-11711D01*
X2165Y-11697D01*
X2073Y-11709D01*
X1570Y-11207D01*
X1582Y-11114D01*
X1570Y-11022D01*
X1821Y-10770D01*
X1869Y-10699D01*
X1886Y-10614D01*
Y-10058D01*
X1890Y-10053D01*
X1890Y-10052D01*
X1941D01*
X1941Y-10053D01*
X1994Y-10132D01*
X2072Y-10185D01*
X2165Y-10203D01*
X2258Y-10185D01*
X2337Y-10132D01*
X2390Y-10053D01*
X2408Y-9960D01*
Y-9901D01*
X2643D01*
X2727Y-9884D01*
X2799Y-9836D01*
X2912Y-9723D01*
X2912Y-9723D01*
X2912Y-9723D01*
X2965Y-9670D01*
X3097D01*
X3108Y-9687D01*
X3150Y-9715D01*
Y-9970D01*
X3108Y-9998D01*
X3079Y-10042D01*
X3068Y-10094D01*
Y-10378D01*
X3079Y-10430D01*
X3108Y-10474D01*
X3152Y-10504D01*
X3205Y-10514D01*
X3224D01*
Y-10667D01*
X3187Y-10700D01*
X3165Y-10697D01*
X3057Y-10711D01*
X2957Y-10753D01*
X2871Y-10819D01*
X2804Y-10906D01*
X2763Y-11006D01*
X2748Y-11114D01*
X2763Y-11222D01*
X2804Y-11323D01*
X2871Y-11409D01*
X2957Y-11475D01*
X3057Y-11517D01*
X3165Y-11531D01*
X3273Y-11517D01*
X3374Y-11475D01*
X3460Y-11409D01*
X3526Y-11323D01*
X3568Y-11222D01*
X3582Y-11114D01*
X3570Y-11022D01*
X3601Y-10991D01*
X3649Y-10919D01*
X3666Y-10835D01*
Y-10514D01*
X3685D01*
X3737Y-10504D01*
X3782Y-10474D01*
X3811Y-10430D01*
X3822Y-10378D01*
Y-10094D01*
X3811Y-10042D01*
X3782Y-9998D01*
X3740Y-9970D01*
Y-9715D01*
X3782Y-9687D01*
X3811Y-9643D01*
X3822Y-9591D01*
Y-9307D01*
X3818Y-9288D01*
X3856Y-9238D01*
X4239D01*
X4410Y-9409D01*
X4410Y-9409D01*
X4482Y-9457D01*
X4567Y-9474D01*
X4567Y-9474D01*
X7638D01*
X7638Y-9474D01*
X7723Y-9457D01*
X7795Y-9409D01*
X8248Y-8956D01*
X8248Y-8956D01*
X8296Y-8884D01*
X8313Y-8799D01*
X8313Y-8799D01*
Y-8589D01*
X8413D01*
X8423Y-8604D01*
X8467Y-8634D01*
X8520Y-8644D01*
X9000D01*
X9052Y-8634D01*
X9097Y-8604D01*
X9107Y-8589D01*
X9154D01*
X9154Y-8589D01*
X9239Y-8572D01*
X9311Y-8523D01*
X9895Y-7939D01*
X9941Y-7959D01*
Y-8100D01*
X9900Y-8128D01*
X9870Y-8172D01*
X9860Y-8224D01*
Y-8508D01*
X9870Y-8560D01*
X9900Y-8604D01*
X9944Y-8634D01*
X9996Y-8644D01*
X10056D01*
Y-8740D01*
X10069Y-8809D01*
X10108Y-8868D01*
X10463Y-9222D01*
X10521Y-9261D01*
X10591Y-9275D01*
X11100D01*
X11148Y-9307D01*
X11158Y-9309D01*
Y-9360D01*
X11148Y-9362D01*
X11070Y-9414D01*
X11018Y-9492D01*
X10999Y-9585D01*
X11018Y-9677D01*
X11070Y-9755D01*
X11148Y-9807D01*
X11158Y-9809D01*
Y-9860D01*
X11148Y-9862D01*
X11085Y-9904D01*
X9010D01*
X8941Y-9918D01*
X8882Y-9957D01*
X6224Y-12615D01*
X2953D01*
X2884Y-12628D01*
X2825Y-12668D01*
X2510Y-12982D01*
X2441Y-12925D01*
X2324Y-12863D01*
X2198Y-12825D01*
X2067Y-12812D01*
X1936Y-12825D01*
X1810Y-12863D01*
X1693Y-12925D01*
X1591Y-13009D01*
X1508Y-13111D01*
X1446Y-13227D01*
X1407Y-13353D01*
X1394Y-13484D01*
Y-13878D01*
X1407Y-14009D01*
X1446Y-14135D01*
X1508Y-14252D01*
X1591Y-14353D01*
X1693Y-14437D01*
X1810Y-14499D01*
X1936Y-14538D01*
X2067Y-14550D01*
X2198Y-14538D01*
X2324Y-14499D01*
X2441Y-14437D01*
X2542Y-14353D01*
X2626Y-14252D01*
X2688Y-14135D01*
X2727Y-14009D01*
X2739Y-13878D01*
Y-13484D01*
X2727Y-13353D01*
X2709Y-13295D01*
X3028Y-12976D01*
X6299D01*
X6368Y-12962D01*
X6427Y-12923D01*
X9085Y-10265D01*
X11085D01*
X11148Y-10307D01*
X11158Y-10309D01*
Y-10360D01*
X11148Y-10362D01*
X11085Y-10404D01*
X9297D01*
X9228Y-10418D01*
X9170Y-10457D01*
X7845Y-11782D01*
X7806Y-11840D01*
X7792Y-11909D01*
Y-12840D01*
X7715Y-12863D01*
X7599Y-12925D01*
X7497Y-13009D01*
X7413Y-13111D01*
X7351Y-13227D01*
X7313Y-13353D01*
X7300Y-13484D01*
Y-13878D01*
X7313Y-14009D01*
X7351Y-14135D01*
X7413Y-14252D01*
X7497Y-14353D01*
X7599Y-14437D01*
X7715Y-14499D01*
X7841Y-14538D01*
X7972Y-14550D01*
X8104Y-14538D01*
X8230Y-14499D01*
X8346Y-14437D01*
X8448Y-14353D01*
X8532Y-14252D01*
X8594Y-14135D01*
X8632Y-14009D01*
X8645Y-13878D01*
Y-13484D01*
X8632Y-13353D01*
X8594Y-13227D01*
X8532Y-13111D01*
X8448Y-13009D01*
X8346Y-12925D01*
X8230Y-12863D01*
X8153Y-12840D01*
Y-11984D01*
X9372Y-10765D01*
X11085D01*
X11148Y-10807D01*
X11158Y-10809D01*
Y-10860D01*
X11148Y-10862D01*
X11070Y-10914D01*
X11018Y-10992D01*
X10999Y-11085D01*
X11018Y-11177D01*
X11070Y-11255D01*
X11148Y-11307D01*
X11158Y-11309D01*
Y-11360D01*
X11148Y-11362D01*
X11070Y-11414D01*
X11018Y-11492D01*
X10999Y-11585D01*
X11018Y-11677D01*
X11070Y-11755D01*
X11148Y-11807D01*
X11158Y-11809D01*
Y-11860D01*
X11148Y-11862D01*
X11085Y-11904D01*
X10668D01*
X10636Y-11883D01*
X10551Y-11866D01*
X10467Y-11883D01*
X10435Y-11904D01*
X10239D01*
Y-11890D01*
X10228Y-11836D01*
X10198Y-11790D01*
X10157Y-11764D01*
Y-11555D01*
X9528D01*
Y-11763D01*
X9487Y-11790D01*
X9457Y-11836D01*
X9446Y-11890D01*
Y-12244D01*
X9457Y-12298D01*
X9487Y-12343D01*
X9533Y-12374D01*
X9587Y-12385D01*
X10098D01*
X10152Y-12374D01*
X10198Y-12343D01*
X10228Y-12298D01*
X10235Y-12265D01*
X10429D01*
X10467Y-12291D01*
X10551Y-12307D01*
X10636Y-12291D01*
X10674Y-12265D01*
X11085D01*
X11148Y-12307D01*
X11240Y-12325D01*
X11870D01*
X11962Y-12307D01*
X12040Y-12255D01*
X12093Y-12177D01*
X12111Y-12085D01*
X12093Y-11992D01*
X12040Y-11914D01*
X11962Y-11862D01*
X11952Y-11860D01*
Y-11809D01*
X11962Y-11807D01*
X12040Y-11755D01*
X12093Y-11677D01*
X12111Y-11585D01*
X12093Y-11492D01*
X12040Y-11414D01*
X11962Y-11362D01*
X11952Y-11360D01*
Y-11309D01*
X11962Y-11307D01*
X12006Y-11278D01*
X12288Y-11559D01*
X12296Y-11600D01*
X12319Y-11635D01*
Y-13091D01*
X12333Y-13160D01*
X12372Y-13218D01*
X12963Y-13809D01*
X13021Y-13848D01*
X13091Y-13862D01*
X13205D01*
Y-13878D01*
X13218Y-14009D01*
X13257Y-14135D01*
X13319Y-14252D01*
X13402Y-14353D01*
X13504Y-14437D01*
X13621Y-14499D01*
X13747Y-14538D01*
X13878Y-14550D01*
X14009Y-14538D01*
X14135Y-14499D01*
X14252Y-14437D01*
X14353Y-14353D01*
X14437Y-14252D01*
X14499Y-14135D01*
X14538Y-14009D01*
X14550Y-13878D01*
Y-13484D01*
X14538Y-13353D01*
X14499Y-13227D01*
X14437Y-13111D01*
X14353Y-13009D01*
X14252Y-12925D01*
X14135Y-12863D01*
X14009Y-12825D01*
X13878Y-12812D01*
X13747Y-12825D01*
X13621Y-12863D01*
X13504Y-12925D01*
X13402Y-13009D01*
X13319Y-13111D01*
X13257Y-13227D01*
X13218Y-13353D01*
X13206Y-13478D01*
X13183Y-13487D01*
X13155Y-13491D01*
X12681Y-13016D01*
Y-11635D01*
X12704Y-11600D01*
X12721Y-11516D01*
X12704Y-11431D01*
X12656Y-11360D01*
X12584Y-11312D01*
X12543Y-11304D01*
X12409Y-11170D01*
X12426Y-11116D01*
X12484Y-11104D01*
X12556Y-11056D01*
X12604Y-10984D01*
X12621Y-10900D01*
X12604Y-10816D01*
X12556Y-10744D01*
X12484Y-10696D01*
X12465Y-10692D01*
Y-10641D01*
X12486Y-10637D01*
X12558Y-10589D01*
X12606Y-10518D01*
X12622Y-10433D01*
X12606Y-10349D01*
X12558Y-10277D01*
X12486Y-10229D01*
X12445Y-10221D01*
X12181Y-9957D01*
X12122Y-9918D01*
X12053Y-9904D01*
X12025D01*
X11962Y-9862D01*
X11952Y-9860D01*
Y-9809D01*
X11962Y-9807D01*
X12040Y-9755D01*
X12093Y-9677D01*
X12111Y-9585D01*
X12093Y-9492D01*
X12040Y-9414D01*
X11962Y-9362D01*
X11952Y-9360D01*
Y-9309D01*
X11962Y-9307D01*
X12011Y-9274D01*
X12189Y-9453D01*
X12198Y-9494D01*
X12245Y-9566D01*
X12317Y-9613D01*
X12402Y-9630D01*
X12486Y-9613D01*
X12558Y-9566D01*
X12606Y-9494D01*
X12622Y-9409D01*
X12606Y-9325D01*
X12558Y-9253D01*
X12486Y-9205D01*
X12445Y-9197D01*
X12204Y-8957D01*
X12146Y-8918D01*
X12077Y-8904D01*
X12025D01*
X11962Y-8862D01*
X11870Y-8844D01*
X11240D01*
X11148Y-8862D01*
X11071Y-8914D01*
X10665D01*
X10446Y-8694D01*
X10467Y-8644D01*
X10476D01*
X10529Y-8634D01*
X10573Y-8604D01*
X10602Y-8560D01*
X10613Y-8508D01*
Y-8224D01*
X10602Y-8172D01*
X10573Y-8128D01*
X10532Y-8100D01*
Y-7845D01*
X10573Y-7817D01*
X10602Y-7773D01*
X10613Y-7720D01*
Y-7437D01*
X10602Y-7385D01*
X10573Y-7340D01*
X10529Y-7311D01*
X10476Y-7301D01*
X9996D01*
X9944Y-7311D01*
X9900Y-7340D01*
X9881Y-7368D01*
X9856Y-7373D01*
X9784Y-7421D01*
X9784Y-7421D01*
X9105Y-8100D01*
X9055Y-8079D01*
Y-7845D01*
X9097Y-7817D01*
X9108Y-7800D01*
X9154D01*
X9238Y-7783D01*
X9310Y-7735D01*
X9329Y-7715D01*
X9377Y-7644D01*
X9394Y-7559D01*
X9377Y-7475D01*
X9329Y-7403D01*
X9258Y-7355D01*
X9173Y-7338D01*
X9104Y-7352D01*
X9097Y-7340D01*
X9052Y-7311D01*
X9000Y-7301D01*
X8520D01*
X8467Y-7311D01*
X8423Y-7340D01*
X8394Y-7385D01*
X8383Y-7437D01*
Y-7720D01*
X8394Y-7773D01*
X8423Y-7817D01*
X8465Y-7845D01*
Y-8100D01*
X8423Y-8128D01*
X8413Y-8144D01*
X8199D01*
X8195Y-8141D01*
X8110Y-8124D01*
X8025Y-8141D01*
X8021Y-8144D01*
X7772D01*
X7764Y-8138D01*
X7707Y-8127D01*
X7372D01*
X7314Y-8138D01*
X7266Y-8171D01*
X7233Y-8220D01*
X7222Y-8278D01*
Y-8455D01*
X7233Y-8512D01*
X7266Y-8561D01*
X7314Y-8594D01*
X7372Y-8605D01*
X7707D01*
X7764Y-8594D01*
X7772Y-8589D01*
X7868D01*
Y-8707D01*
X7546Y-9030D01*
X4659D01*
X4520Y-8891D01*
X4520Y-8884D01*
X4538Y-8838D01*
X4575Y-8830D01*
X4586Y-8823D01*
X4665D01*
X4750Y-8806D01*
X4821Y-8758D01*
X5077Y-8503D01*
X5125Y-8431D01*
X5142Y-8346D01*
Y-7008D01*
X5125Y-6923D01*
X5077Y-6852D01*
X4920Y-6694D01*
X4848Y-6646D01*
X4764Y-6630D01*
X4648D01*
Y-6610D01*
X4638Y-6558D01*
X4608Y-6514D01*
X4564Y-6484D01*
X4512Y-6474D01*
D02*
G37*
G36*
X5201Y-2044D02*
X5062Y-2057D01*
X4928Y-2098D01*
X4805Y-2164D01*
X4697Y-2252D01*
X4609Y-2360D01*
X4543Y-2483D01*
X4502Y-2617D01*
X4489Y-2756D01*
X4502Y-2895D01*
X4543Y-3028D01*
X4609Y-3152D01*
X4697Y-3259D01*
X4805Y-3348D01*
X4928Y-3414D01*
X4933Y-3415D01*
Y-4354D01*
X4933Y-4354D01*
X4937Y-4389D01*
X4942Y-4424D01*
X4951Y-4446D01*
X4924Y-4492D01*
X4918Y-4496D01*
X4646D01*
X4576Y-4505D01*
X4512Y-4532D01*
X4456Y-4574D01*
X4414Y-4630D01*
X4387Y-4694D01*
X4378Y-4764D01*
X4387Y-4833D01*
X4414Y-4898D01*
X4456Y-4953D01*
X4512Y-4996D01*
X4576Y-5023D01*
X4646Y-5032D01*
X5000D01*
X5020Y-5080D01*
X5071Y-5146D01*
X5136Y-5196D01*
X5213Y-5228D01*
X5295Y-5239D01*
X5846D01*
X5929Y-5228D01*
X6005Y-5196D01*
X6071Y-5146D01*
X6122Y-5080D01*
X6153Y-5003D01*
X6164Y-4921D01*
Y-4528D01*
X6153Y-4445D01*
X6122Y-4369D01*
X6071Y-4303D01*
X6005Y-4252D01*
X5929Y-4221D01*
X5846Y-4210D01*
X5469D01*
Y-3415D01*
X5473Y-3414D01*
X5596Y-3348D01*
X5704Y-3259D01*
X5793Y-3152D01*
X5859Y-3028D01*
X5899Y-2895D01*
X5913Y-2756D01*
X5899Y-2617D01*
X5859Y-2483D01*
X5793Y-2360D01*
X5704Y-2252D01*
X5596Y-2164D01*
X5473Y-2098D01*
X5340Y-2057D01*
X5201Y-2044D01*
D02*
G37*
G36*
X13622Y-1257D02*
X13071D01*
X12989Y-1268D01*
X12912Y-1300D01*
X12846Y-1350D01*
X12796Y-1416D01*
X12764Y-1493D01*
X12753Y-1575D01*
Y-1969D01*
X12764Y-2051D01*
X12796Y-2127D01*
X12846Y-2193D01*
X12912Y-2244D01*
X12989Y-2275D01*
X13029Y-2281D01*
Y-2664D01*
X12663Y-3029D01*
X12402D01*
X12356Y-3038D01*
X12316Y-3064D01*
X12290Y-3104D01*
X12281Y-3150D01*
Y-3224D01*
X11398D01*
X11313Y-3241D01*
X11242Y-3289D01*
X10537Y-3994D01*
X10118D01*
X10072Y-4003D01*
X10033Y-4029D01*
X10007Y-4068D01*
X9998Y-4114D01*
Y-4350D01*
X10007Y-4396D01*
X10033Y-4436D01*
X10072Y-4462D01*
X10118Y-4471D01*
X10669D01*
X10715Y-4462D01*
X10754Y-4436D01*
X10781Y-4396D01*
X10786Y-4369D01*
X11489Y-3666D01*
X12281D01*
Y-3740D01*
X12290Y-3786D01*
X12316Y-3825D01*
X12356Y-3851D01*
X12402Y-3861D01*
X12992D01*
X13038Y-3851D01*
X13077Y-3825D01*
X13103Y-3786D01*
X13113Y-3740D01*
Y-3478D01*
X13571Y-3020D01*
X13622Y-2954D01*
X13653Y-2877D01*
X13664Y-2795D01*
Y-2281D01*
X13704Y-2275D01*
X13781Y-2244D01*
X13847Y-2193D01*
X13897Y-2127D01*
X13929Y-2051D01*
X13940Y-1969D01*
Y-1575D01*
X13929Y-1493D01*
X13897Y-1416D01*
X13847Y-1350D01*
X13781Y-1300D01*
X13704Y-1268D01*
X13622Y-1257D01*
D02*
G37*
G36*
X9201Y-2044D02*
X9062Y-2057D01*
X8928Y-2098D01*
X8805Y-2164D01*
X8697Y-2252D01*
X8609Y-2360D01*
X8543Y-2483D01*
X8502Y-2617D01*
X8489Y-2756D01*
X8502Y-2895D01*
X8543Y-3028D01*
X8609Y-3152D01*
X8697Y-3259D01*
X8805Y-3348D01*
X8928Y-3414D01*
X9062Y-3454D01*
X9201Y-3468D01*
X9340Y-3454D01*
X9473Y-3414D01*
X9596Y-3348D01*
X9704Y-3259D01*
X9793Y-3152D01*
X9859Y-3028D01*
X9899Y-2895D01*
X9913Y-2756D01*
X9899Y-2617D01*
X9859Y-2483D01*
X9793Y-2360D01*
X9704Y-2252D01*
X9596Y-2164D01*
X9473Y-2098D01*
X9340Y-2057D01*
X9201Y-2044D01*
D02*
G37*
G36*
X11417Y-371D02*
X11278Y-384D01*
X11145Y-425D01*
X11022Y-491D01*
X10914Y-579D01*
X10825Y-687D01*
X10759Y-810D01*
X10719Y-944D01*
X10705Y-1083D01*
Y-1870D01*
X10719Y-2009D01*
X10759Y-2143D01*
X10825Y-2266D01*
X10914Y-2374D01*
X11022Y-2462D01*
X11145Y-2528D01*
X11278Y-2568D01*
X11417Y-2582D01*
X11556Y-2568D01*
X11690Y-2528D01*
X11813Y-2462D01*
X11921Y-2374D01*
X12009Y-2266D01*
X12075Y-2143D01*
X12116Y-2009D01*
X12129Y-1870D01*
Y-1083D01*
X12116Y-944D01*
X12075Y-810D01*
X12009Y-687D01*
X11921Y-579D01*
X11813Y-491D01*
X11690Y-425D01*
X11556Y-384D01*
X11417Y-371D01*
D02*
G37*
G36*
X984D02*
X845Y-384D01*
X712Y-425D01*
X589Y-491D01*
X481Y-579D01*
X392Y-687D01*
X326Y-810D01*
X286Y-944D01*
X272Y-1083D01*
Y-1870D01*
X286Y-2009D01*
X326Y-2143D01*
X392Y-2266D01*
X481Y-2374D01*
X519Y-2405D01*
Y-3547D01*
X505Y-3557D01*
X479Y-3596D01*
X470Y-3642D01*
Y-4232D01*
X479Y-4278D01*
X479Y-4278D01*
X453Y-4328D01*
X354D01*
X308Y-4338D01*
X269Y-4364D01*
X243Y-4403D01*
X234Y-4449D01*
Y-4803D01*
X243Y-4849D01*
X269Y-4888D01*
X308Y-4914D01*
X354Y-4924D01*
X453D01*
X479Y-4974D01*
X479Y-4974D01*
X470Y-5020D01*
Y-5610D01*
X479Y-5656D01*
X505Y-5695D01*
X544Y-5721D01*
X591Y-5731D01*
X984D01*
X1030Y-5721D01*
X1069Y-5695D01*
X1096Y-5656D01*
X1105Y-5610D01*
Y-5537D01*
X1336D01*
Y-5555D01*
X1346Y-5607D01*
X1376Y-5652D01*
X1420Y-5681D01*
X1472Y-5692D01*
X1756D01*
X1808Y-5681D01*
X1852Y-5652D01*
X1880Y-5610D01*
X2244D01*
Y-5020D01*
X1880D01*
X1852Y-4978D01*
X1808Y-4949D01*
X1756Y-4938D01*
X1472D01*
X1420Y-4949D01*
X1376Y-4978D01*
X1346Y-5023D01*
X1336Y-5075D01*
Y-5093D01*
X1105D01*
Y-5020D01*
X1096Y-4974D01*
X1069Y-4935D01*
X1030Y-4908D01*
X984Y-4899D01*
X847D01*
X820Y-4849D01*
X820Y-4849D01*
X829Y-4803D01*
Y-4449D01*
X820Y-4403D01*
X820Y-4403D01*
X847Y-4353D01*
X984D01*
X1030Y-4344D01*
X1069Y-4317D01*
X1096Y-4278D01*
X1105Y-4232D01*
Y-3642D01*
X1096Y-3596D01*
X1069Y-3557D01*
X1055Y-3547D01*
Y-2575D01*
X1123Y-2568D01*
X1257Y-2528D01*
X1380Y-2462D01*
X1488Y-2374D01*
X1576Y-2266D01*
X1642Y-2143D01*
X1683Y-2009D01*
X1696Y-1870D01*
Y-1083D01*
X1683Y-944D01*
X1642Y-810D01*
X1576Y-687D01*
X1488Y-579D01*
X1380Y-491D01*
X1257Y-425D01*
X1123Y-384D01*
X984Y-371D01*
D02*
G37*
G36*
X15472Y-1257D02*
X14921D01*
X14839Y-1268D01*
X14762Y-1300D01*
X14697Y-1350D01*
X14646Y-1416D01*
X14614Y-1493D01*
X14604Y-1575D01*
Y-1969D01*
X14614Y-2051D01*
X14646Y-2127D01*
X14697Y-2193D01*
X14762Y-2244D01*
X14839Y-2275D01*
X14879Y-2281D01*
Y-2664D01*
X14834Y-2708D01*
X14784Y-2774D01*
X14752Y-2851D01*
X14741Y-2933D01*
Y-3205D01*
X14663Y-3246D01*
X14556Y-3335D01*
X14467Y-3443D01*
X14401Y-3566D01*
X14361Y-3700D01*
X14347Y-3839D01*
Y-4626D01*
X14361Y-4765D01*
X14401Y-4898D01*
X14467Y-5022D01*
X14556Y-5130D01*
X14663Y-5218D01*
X14787Y-5284D01*
X14920Y-5324D01*
X15059Y-5338D01*
X15198Y-5324D01*
X15332Y-5284D01*
X15455Y-5218D01*
X15563Y-5130D01*
X15651Y-5022D01*
X15717Y-4898D01*
X15757Y-4765D01*
X15771Y-4626D01*
Y-3839D01*
X15757Y-3700D01*
X15717Y-3566D01*
X15651Y-3443D01*
X15563Y-3335D01*
X15455Y-3246D01*
X15377Y-3205D01*
Y-3065D01*
X15421Y-3020D01*
X15472Y-2954D01*
X15504Y-2877D01*
X15515Y-2795D01*
Y-2281D01*
X15555Y-2275D01*
X15631Y-2244D01*
X15697Y-2193D01*
X15748Y-2127D01*
X15779Y-2051D01*
X15790Y-1969D01*
Y-1575D01*
X15779Y-1493D01*
X15748Y-1416D01*
X15697Y-1350D01*
X15631Y-1300D01*
X15555Y-1268D01*
X15472Y-1257D01*
D02*
G37*
%LPD*%
G36*
X3304Y-7091D02*
X3315Y-7143D01*
X3344Y-7187D01*
X3389Y-7217D01*
X3441Y-7227D01*
X3724D01*
X3777Y-7217D01*
X3821Y-7187D01*
X3849Y-7146D01*
X4104D01*
X4132Y-7187D01*
X4176Y-7217D01*
X4228Y-7227D01*
X4512D01*
X4564Y-7217D01*
X4608Y-7187D01*
X4629Y-7157D01*
X4677Y-7140D01*
X4690Y-7139D01*
X4700Y-7147D01*
Y-8255D01*
X4579Y-8377D01*
X4575Y-8375D01*
X4518Y-8363D01*
X4183D01*
X4126Y-8375D01*
X4077Y-8407D01*
X4044Y-8456D01*
X4033Y-8514D01*
Y-8691D01*
X4043Y-8743D01*
X4040Y-8758D01*
X4021Y-8793D01*
X1706D01*
X888Y-7975D01*
Y-7856D01*
X890Y-7853D01*
X890Y-7852D01*
X941D01*
X941Y-7853D01*
X994Y-7932D01*
X1072Y-7985D01*
X1165Y-8003D01*
X1258Y-7985D01*
X1337Y-7932D01*
X1365Y-7890D01*
X1429Y-7885D01*
X1445Y-7901D01*
Y-8059D01*
X1461Y-8144D01*
X1509Y-8215D01*
X1581Y-8263D01*
X1665Y-8280D01*
X1750Y-8263D01*
X1821Y-8215D01*
X1869Y-8144D01*
X1886Y-8059D01*
Y-7858D01*
X1890Y-7853D01*
X1908Y-7760D01*
Y-7200D01*
X1892Y-7121D01*
X1921Y-7071D01*
X3304D01*
Y-7091D01*
D02*
G37*
%LPC*%
G36*
X3612Y-7989D02*
X3278D01*
X3220Y-8001D01*
X3210Y-8008D01*
X3071D01*
X2986Y-8024D01*
X2915Y-8072D01*
X2915Y-8072D01*
X2867Y-8144D01*
X2850Y-8228D01*
X2867Y-8313D01*
X2915Y-8384D01*
X2986Y-8432D01*
X3071Y-8449D01*
X3071Y-8449D01*
X3210D01*
X3220Y-8456D01*
X3278Y-8467D01*
X3612D01*
X3670Y-8456D01*
X3719Y-8423D01*
X3751Y-8375D01*
X3763Y-8317D01*
Y-8140D01*
X3751Y-8082D01*
X3719Y-8033D01*
X3670Y-8001D01*
X3612Y-7989D01*
D02*
G37*
%LPD*%
D10*
X2165Y-7480D02*
D03*
D11*
X1165Y-9680D02*
D03*
Y-7480D02*
D03*
X1665D02*
D03*
X2165Y-9680D02*
D03*
X1665D02*
D03*
X665Y-7480D02*
D03*
Y-9680D02*
D03*
D12*
X10394Y-5413D02*
D03*
Y-4232D02*
D03*
D13*
X10315Y-4823D02*
D03*
D14*
X9331D02*
D03*
D15*
X13445Y-12085D02*
D03*
Y-11585D02*
D03*
Y-11085D02*
D03*
Y-10585D02*
D03*
Y-10085D02*
D03*
Y-9585D02*
D03*
Y-9085D02*
D03*
Y-8585D02*
D03*
X11555Y-12085D02*
D03*
Y-11585D02*
D03*
Y-11085D02*
D03*
Y-10585D02*
D03*
Y-10085D02*
D03*
Y-9585D02*
D03*
Y-9085D02*
D03*
Y-8585D02*
D03*
D16*
X15197Y-1772D02*
D03*
X13346D02*
D03*
X7421Y-4724D02*
D03*
X5571D02*
D03*
D17*
X9843Y-11358D02*
D03*
Y-12067D02*
D03*
D18*
X787Y-5315D02*
D03*
Y-3937D02*
D03*
D19*
X532Y-4626D02*
D03*
D20*
X8760Y-8366D02*
D03*
Y-7579D02*
D03*
X10236D02*
D03*
Y-8366D02*
D03*
X6594Y-6201D02*
D03*
Y-6988D02*
D03*
X5709Y-8760D02*
D03*
Y-7972D02*
D03*
X3445Y-10236D02*
D03*
Y-9449D02*
D03*
D21*
X2402Y-5315D02*
D03*
X1614D02*
D03*
X4370Y-6850D02*
D03*
X3583D02*
D03*
D22*
X6634Y-7992D02*
D03*
Y-8740D02*
D03*
X7539Y-8366D02*
D03*
X4350Y-8602D02*
D03*
Y-7854D02*
D03*
X3445Y-8228D02*
D03*
D23*
X12500Y-13091D02*
Y-11516D01*
Y-13091D02*
X13091Y-13681D01*
X13878D01*
X9010Y-10085D02*
X11555D01*
X6299Y-12795D02*
X9010Y-10085D01*
X2953Y-12795D02*
X6299D01*
X2067Y-13681D02*
X2953Y-12795D01*
X11555Y-10085D02*
X12053D01*
X12402Y-10433D01*
X11555Y-10585D02*
X11570Y-10600D01*
X12100D01*
X12400Y-10900D01*
X11555Y-11085D02*
X12069D01*
X12500Y-11516D01*
X9843Y-12067D02*
X9860Y-12085D01*
X9297Y-10585D02*
X11555D01*
X7972Y-11909D02*
X9297Y-10585D01*
X7972Y-13681D02*
Y-11909D01*
X10551Y-12087D02*
Y-12085D01*
X10236Y-8740D02*
Y-8366D01*
Y-8740D02*
X10591Y-9094D01*
X11545D01*
X11555Y-9085D01*
X12077D02*
X12402Y-9409D01*
X11555Y-9085D02*
X12077D01*
X9331Y-4823D02*
X10315D01*
X10551Y-12085D02*
X11555D01*
X9860D02*
X10551D01*
D24*
X9213Y-11378D02*
X9843D01*
X1165Y-11114D02*
X2165Y-12114D01*
X4421D01*
X5217Y-11319D01*
Y-10925D01*
X3165Y-11114D02*
X3445Y-10835D01*
Y-10236D01*
X1665Y-10614D02*
Y-9680D01*
X1165Y-11114D02*
X1665Y-10614D01*
X1165Y-11114D02*
Y-9680D01*
X10394Y-4232D02*
X10610D01*
X11398Y-3445D01*
X12697D01*
X10394Y-5413D02*
X10807D01*
X11693Y-6299D01*
X12697D01*
X12303Y-4823D02*
X12697Y-4429D01*
X10315Y-4823D02*
X12303D01*
X8760Y-7579D02*
X9154D01*
X9173Y-7559D01*
X2874Y-9449D02*
X3445D01*
X2165Y-9680D02*
X2643D01*
X3071Y-8228D02*
X3445D01*
X3071Y-8228D02*
X3071Y-8228D01*
X4350Y-8602D02*
X4665D01*
X4921Y-8346D01*
Y-7008D01*
X4764Y-6850D02*
X4921Y-7008D01*
X4370Y-6850D02*
X4764D01*
X1165Y-7480D02*
Y-6984D01*
X1299Y-6850D01*
X3583D01*
X3583Y-6850D01*
X1665Y-8059D02*
Y-7480D01*
X354Y-9685D02*
X661D01*
X665Y-9680D01*
X2756Y-9567D02*
Y-9567D01*
X2643Y-9680D02*
X2756Y-9567D01*
X2874Y-9449D01*
X2165Y-8071D02*
Y-7480D01*
X2165Y-8071D02*
X2165Y-8071D01*
D25*
X15059Y-4232D02*
Y-2933D01*
X15197Y-2795D01*
Y-1772D01*
X13346Y-2795D02*
Y-1772D01*
X12697Y-3445D02*
X13346Y-2795D01*
D26*
X5201Y-4354D02*
Y-2756D01*
Y-4354D02*
X5571Y-4724D01*
X7201Y-4504D02*
Y-2756D01*
Y-4504D02*
X7421Y-4724D01*
X6594Y-6201D02*
Y-6161D01*
X7421Y-5335D01*
Y-4724D01*
X787Y-1673D02*
X984Y-1476D01*
X787Y-3937D02*
Y-1673D01*
X4646Y-4764D02*
X5531D01*
X5571Y-4724D01*
D27*
X6594Y-7953D02*
Y-6988D01*
X5709Y-7972D02*
X6575D01*
X6594Y-7953D01*
X8760Y-8366D02*
X9154D01*
X9941Y-7579D01*
X10236D01*
X665Y-8067D02*
Y-7480D01*
X787Y-5315D02*
X1614D01*
X1614Y-5315D01*
X8091Y-8366D02*
X8110Y-8346D01*
X7539Y-8366D02*
X8091D01*
X8760D01*
X665Y-8067D02*
X1614Y-9016D01*
X7638Y-9252D02*
X8091Y-8799D01*
Y-8366D01*
X1614Y-9016D02*
X4331D01*
X4567Y-9252D01*
X7638D01*
D28*
X492Y-15177D02*
D03*
Y-15689D02*
D03*
X15453D02*
D03*
Y-15177D02*
D03*
X14232Y-15453D02*
D03*
X13563D02*
D03*
X8327D02*
D03*
X7657D02*
D03*
X2421D02*
D03*
X1752D02*
D03*
D29*
X7972Y-13681D02*
D03*
X2067D02*
D03*
X13878D02*
D03*
D30*
X7972Y-15453D02*
D03*
D31*
X2067D02*
D03*
X13878D02*
D03*
D32*
X15453D02*
D03*
D33*
X12697Y-4429D02*
D03*
X6594Y-10925D02*
D03*
X1165Y-11114D02*
D03*
X2165Y-12114D02*
D03*
X3165Y-11114D02*
D03*
X12697Y-7283D02*
D03*
D34*
Y-3445D02*
D03*
Y-6299D02*
D03*
D35*
X5217Y-10925D02*
D03*
D36*
X15059Y-4232D02*
D03*
X15069Y-9242D02*
D03*
X984Y-1476D02*
D03*
X11417D02*
D03*
D37*
X3201Y-2756D02*
D03*
X5201D02*
D03*
X9201D02*
D03*
X7201D02*
D03*
D38*
X15427Y-1129D02*
D03*
Y-5854D02*
D03*
X14837Y-7035D02*
D03*
X15427Y-10578D02*
D03*
X14837Y-11759D02*
D03*
X15427Y-12940D02*
D03*
X14837Y-14121D02*
D03*
Y-16484D02*
D03*
X14246Y-1129D02*
D03*
X13655Y-4673D02*
D03*
X14246Y-5854D02*
D03*
X13655Y-7035D02*
D03*
X14246Y-8216D02*
D03*
Y-10578D02*
D03*
X13655Y-16484D02*
D03*
X13065Y-1129D02*
D03*
X12474Y-2310D02*
D03*
X13065Y-8216D02*
D03*
Y-12940D02*
D03*
X12474Y-14121D02*
D03*
Y-16484D02*
D03*
X11293Y-4673D02*
D03*
X11884Y-5854D02*
D03*
X11293Y-7035D02*
D03*
X11884Y-8216D02*
D03*
Y-12940D02*
D03*
Y-15302D02*
D03*
X11293Y-16484D02*
D03*
X10112Y-2310D02*
D03*
X10703Y-3491D02*
D03*
Y-5854D02*
D03*
X10112Y-9397D02*
D03*
X10703Y-12940D02*
D03*
X10112Y-14121D02*
D03*
X10703Y-15302D02*
D03*
X10112Y-16484D02*
D03*
X8931Y-11759D02*
D03*
X9522Y-12940D02*
D03*
X8931Y-14121D02*
D03*
X9522Y-15302D02*
D03*
X8931Y-16484D02*
D03*
X8340Y-1129D02*
D03*
Y-3491D02*
D03*
X7750Y-16484D02*
D03*
X7159Y-1129D02*
D03*
Y-10578D02*
D03*
X6569Y-11759D02*
D03*
X7159Y-12940D02*
D03*
X6569Y-14121D02*
D03*
Y-16484D02*
D03*
X5978Y-1129D02*
D03*
Y-3491D02*
D03*
Y-10578D02*
D03*
X5388Y-11759D02*
D03*
X5978Y-15302D02*
D03*
X5388Y-16484D02*
D03*
X4797Y-1129D02*
D03*
Y-3491D02*
D03*
X4207Y-4673D02*
D03*
Y-9397D02*
D03*
Y-11759D02*
D03*
Y-14121D02*
D03*
X4797Y-15302D02*
D03*
X4207Y-16484D02*
D03*
X3616Y-3491D02*
D03*
X3026Y-4673D02*
D03*
Y-11759D02*
D03*
Y-14121D02*
D03*
X3616Y-15302D02*
D03*
X3026Y-16484D02*
D03*
X1844Y-2310D02*
D03*
X2435Y-3491D02*
D03*
X1844Y-4673D02*
D03*
X2435Y-5854D02*
D03*
Y-10578D02*
D03*
X1844Y-16484D02*
D03*
X1254Y-3491D02*
D03*
Y-5854D02*
D03*
X663Y-11759D02*
D03*
X1254Y-12940D02*
D03*
X663Y-14121D02*
D03*
Y-16484D02*
D03*
D39*
X12402Y-10433D02*
D03*
X12400Y-10900D02*
D03*
X12500Y-11516D02*
D03*
X9134Y-11378D02*
D03*
X10551Y-12087D02*
D03*
X12402Y-9409D02*
D03*
X9173Y-7559D02*
D03*
X3071Y-8228D02*
D03*
X1665Y-8059D02*
D03*
X665Y-8067D02*
D03*
X8110Y-8346D02*
D03*
X354Y-9685D02*
D03*
X4646Y-4764D02*
D03*
X2756Y-9567D02*
D03*
X2165Y-8071D02*
D03*
M02*
